<?xml version="1.0" standalone="no"?>
<!DOCTYPE svg PUBLIC "-//W3C//DTD SVG 20010904//EN"
 "http://www.w3.org/TR/2001/REC-SVG-20010904/DTD/svg10.dtd">
<svg version="1.0" xmlns="http://www.w3.org/2000/svg"
 width="182.000000pt" height="182.000000pt" viewBox="0 0 182.000000 182.000000"
 preserveAspectRatio="xMidYMid meet">
<metadata>
Created by potrace 1.11, written by Peter Selinger 2001-2013
</metadata>
<g transform="translate(0.000000,182.000000) scale(0.100000,-0.100000)"
fill="#000000" stroke="none">
<path d="M572 1271 c-9 -5 -12 -23 -10 -52 3 -36 7 -44 23 -44 17 0 20 7 20
49 0 50 -9 63 -33 47z"/>
<path d="M373 1193 c-21 -7 -15 -27 18 -61 44 -45 84 -22 42 24 -28 30 -47 42
-60 37z"/>
<path d="M910 1104 c-39 -11 -118 -73 -121 -93 0 -3 -2 -14 -4 -23 -3 -15 22
-47 32 -40 1 1 14 2 27 2 33 0 27 -30 -14 -82 -17 -21 -28 -38 -24 -38 14 0
58 56 76 97 20 45 40 53 79 33 14 -8 19 -21 19 -51 0 -52 -21 -92 -63 -118
-72 -44 -106 -20 -142 99 -49 164 -85 209 -171 216 l-49 4 48 -13 c77 -22 88
-42 153 -270 8 -28 -57 -51 -121 -42 -99 13 -162 96 -153 203 4 47 10 60 37
84 17 15 28 28 23 28 -14 0 -51 -39 -67 -71 -30 -57 -18 -167 23 -213 47 -53
154 -70 228 -37 39 18 41 18 63 0 71 -58 204 22 218 131 8 56 -15 80 -74 80
-23 0 -42 3 -42 8 3 18 -2 32 -12 32 -6 0 -8 -7 -5 -17 8 -20 -9 -32 -34 -26
-34 9 -32 34 6 69 52 50 92 42 77 -15 -6 -25 -5 -25 38 -6 22 9 27 14 15 15
-14 0 -17 6 -14 24 8 39 -3 45 -52 30z"/>
<path d="M1265 1085 c-19 -9 -24 -14 -12 -15 9 0 17 -2 17 -5 0 -3 -21 -56
-46 -118 -57 -138 -64 -161 -53 -178 7 -12 14 -11 40 4 26 14 30 15 25 2 -7
-19 -4 -19 39 -1 31 13 35 13 35 0 0 -7 7 -14 17 -14 16 0 81 44 95 64 16 23
6 -21 -15 -69 -26 -59 -49 -95 -60 -95 -4 0 -12 11 -17 25 -13 33 -29 32 -41
-5 -6 -16 -18 -30 -26 -30 -10 0 -13 -6 -9 -16 3 -8 -1 -31 -9 -51 -18 -42
-18 -43 -6 -43 5 0 13 9 16 20 5 16 15 20 55 20 40 0 50 -4 55 -20 3 -11 11
-20 16 -20 12 0 12 1 -11 55 l-20 48 33 32 c40 39 95 164 77 175 -9 6 -9 13 0
30 9 16 9 25 1 33 -8 8 -11 7 -11 -4 0 -9 -14 -37 -31 -63 -52 -77 -99 -86
-79 -15 20 70 82 117 158 116 23 0 42 4 42 9 -1 16 -76 6 -118 -15 -45 -23
-89 -71 -109 -118 -7 -18 -20 -33 -28 -33 -20 0 -20 0 15 82 17 38 30 79 30
89 0 19 -2 19 -31 4 -17 -9 -33 -15 -35 -12 -2 2 7 31 21 65 36 88 35 92 -20
67z m35 -140 c0 -20 -64 -143 -79 -154 -29 -19 -28 -4 5 84 22 58 31 70 50 71
13 1 24 1 24 -1z m17 -261 c-3 -4 -2 -15 4 -25 8 -16 6 -19 -11 -19 -11 0 -20
3 -20 6 0 10 21 44 27 44 3 0 3 -3 0 -6z m23 -58 c0 -2 2 -11 5 -18 4 -11 -4
-14 -35 -14 -44 0 -52 12 -17 26 24 10 47 12 47 6z"/>
<path d="M1337 1033 c-12 -11 -8 -23 8 -23 8 0 15 7 15 15 0 16 -12 20 -23 8z"/>
<path d="M285 992 c-3 -3 -5 -14 -5 -24 0 -15 8 -18 49 -18 53 0 65 7 51 30
-9 14 -84 23 -95 12z"/>
<path d="M1130 959 c-64 -26 -130 -105 -130 -157 0 -27 25 -45 52 -38 80 20
163 176 94 176 -16 0 -56 -37 -56 -51 0 -6 9 -1 19 12 11 13 22 21 26 17 15
-14 -7 -78 -36 -108 -55 -55 -81 -32 -55 47 18 55 66 93 116 93 16 0 30 5 30
10 0 12 -27 12 -60 -1z"/>
<path d="M1651 956 c-22 -12 -20 -13 28 -12 33 1 51 5 51 14 0 16 -48 15 -79
-2z"/>
<path d="M1590 923 c-42 -28 -79 -76 -90 -113 -18 -64 20 -64 94 0 l36 32 -16
-37 c-8 -21 -13 -39 -11 -41 6 -7 54 13 62 25 4 7 0 8 -11 4 -14 -5 -16 -3
-10 13 17 39 18 54 6 54 -10 0 -10 3 0 14 6 8 10 25 8 38 -3 20 -7 16 -25 -22
-35 -77 -111 -138 -107 -87 1 10 2 24 3 32 0 9 21 36 46 60 24 25 43 45 42 45
-1 0 -14 -8 -27 -17z"/>
<path d="M389 811 c-33 -33 -36 -49 -13 -58 21 -8 79 50 71 71 -9 23 -25 20
-58 -13z"/>
<path d="M224 735 c-4 -9 -2 -20 3 -24 7 -4 -4 -37 -28 -88 -21 -46 -34 -83
-29 -83 5 0 14 9 20 20 8 16 21 20 60 20 40 0 50 -4 55 -20 3 -11 10 -20 15
-20 11 0 6 14 -31 91 -16 32 -27 70 -26 85 2 32 -29 47 -39 19z m31 -5 c3 -5
-1 -10 -10 -10 -9 0 -13 5 -10 10 3 6 8 10 10 10 2 0 7 -4 10 -10z m11 -85
c20 -48 19 -51 -21 -51 -19 0 -35 3 -35 7 0 12 30 79 36 79 3 0 12 -16 20 -35z"/>
<path d="M4 625 l-1 -85 54 0 c29 0 53 4 53 8 0 5 -19 8 -42 8 l-43 -1 -3 78
c-2 42 -6 77 -10 77 -5 0 -8 -38 -8 -85z"/>
<path d="M399 700 c-6 -55 -3 -160 3 -160 5 0 8 30 8 68 l0 67 33 -39 c17 -22
44 -54 59 -70 l27 -31 1 88 c0 48 -4 87 -8 87 -5 0 -8 -30 -7 -67 l2 -66 -26
29 c-14 16 -41 47 -58 69 -20 24 -34 34 -34 25z"/>
<path d="M635 687 c-39 -33 -39 -91 -1 -123 50 -44 120 -23 122 35 0 30 -1 31
-40 31 -28 0 -37 -3 -27 -9 8 -5 23 -8 33 -6 28 6 25 -43 -4 -54 -69 -25 -127
51 -80 108 19 24 41 28 87 18 28 -7 29 -6 11 8 -28 22 -71 18 -101 -8z"/>
<path d="M881 688 c-5 -13 -21 -49 -35 -81 -29 -64 -30 -67 -17 -67 5 0 11 9
14 20 4 17 14 20 55 20 42 0 52 -3 57 -20 5 -16 25 -29 25 -17 0 15 -71 162
-79 165 -6 2 -15 -7 -20 -20z m39 -42 c11 -25 20 -46 20 -48 0 -2 -18 -3 -40
-3 -23 0 -38 4 -36 10 3 5 10 27 17 48 7 20 14 37 15 37 2 0 13 -20 24 -44z"/>
<path d="M1057 695 c-11 -8 -17 -23 -15 -36 3 -22 17 -29 81 -43 36 -8 37 -43
1 -56 -18 -7 -33 -6 -55 5 -16 9 -29 11 -29 6 0 -32 88 -41 114 -12 28 31 16
54 -34 71 -68 23 -74 29 -55 50 16 18 32 19 78 4 19 -6 20 -5 8 10 -16 19 -69
21 -94 1z"/>
<path d="M1460 625 c0 -47 4 -85 8 -85 5 0 8 30 7 66 l-1 66 21 -24 c11 -13
37 -44 57 -68 l38 -45 0 88 c0 48 -4 87 -9 87 -5 0 -8 -27 -6 -60 1 -33 -2
-60 -6 -60 -4 0 -29 27 -54 60 -25 33 -48 60 -51 60 -2 0 -4 -38 -4 -85z"/>
<path d="M1675 628 l0 -83 45 -3 c38 -2 50 1 69 22 57 60 14 146 -72 146 l-42
0 0 -82z m108 41 c34 -41 8 -108 -43 -111 -49 -2 -50 -1 -50 66 0 42 4 66 13
69 23 8 62 -4 80 -24z"/>
</g>
</svg>
