<?xml version="1.0" standalone="no"?>
<!DOCTYPE svg PUBLIC "-//W3C//DTD SVG 20010904//EN"
 "http://www.w3.org/TR/2001/REC-SVG-20010904/DTD/svg10.dtd">
<svg version="1.0" xmlns="http://www.w3.org/2000/svg"
 width="512.000000pt" height="512.000000pt" viewBox="0 0 512.000000 512.000000"
 preserveAspectRatio="xMidYMid meet">
<metadata>
Created by potrace 1.11, written by Peter Selinger 2001-2013
</metadata>
<g transform="translate(0.000000,512.000000) scale(0.100000,-0.100000)"
fill="#000000" stroke="none">
<path d="M3949 4702 c-192 -123 -526 -642 -719 -1117 -114 -282 -174 -482
-226 -750 -19 -99 -37 -191 -40 -203 -4 -18 -9 -22 -22 -17 -86 33 -143 40
-342 39 -209 0 -221 -2 -367 -49 -20 -7 -23 -4 -23 23 0 49 -39 269 -71 397
-139 557 -356 1024 -657 1410 -206 264 -307 331 -385 259 -67 -62 -101 -207
-100 -426 3 -384 90 -805 220 -1063 93 -182 249 -357 423 -469 244 -159 234
-149 246 -248 l6 -55 -56 -62 c-100 -109 -181 -246 -279 -472 -79 -181 -136
-380 -137 -472 0 -32 -3 -37 -17 -33 -30 9 -342 65 -453 81 -58 8 -119 17
-137 20 -31 5 -33 4 -43 -36 -6 -22 -10 -43 -7 -45 2 -2 59 -8 128 -14 178
-14 502 -60 515 -74 6 -6 14 -49 18 -96 l6 -85 -308 3 c-169 2 -321 1 -338 -3
-28 -5 -32 -10 -38 -47 -4 -22 -5 -42 -4 -44 2 -1 68 4 148 11 80 7 238 15
353 17 l207 3 29 -83 29 -82 -22 -5 c-11 -2 -79 -14 -151 -25 -123 -20 -308
-57 -474 -95 l-73 -17 5 -40 c3 -22 8 -42 10 -45 3 -3 51 9 106 26 149 47 554
141 604 141 8 0 32 -35 55 -85 90 -188 177 -275 324 -326 50 -18 86 -22 173
-23 125 0 223 20 395 81 l105 37 -45 9 c-25 4 -71 13 -104 19 -80 15 -182 67
-233 118 -44 44 -86 121 -81 148 5 24 37 27 44 5 37 -122 130 -194 292 -228
37 -8 82 -15 100 -15 l32 0 0 63 0 62 -78 80 c-85 88 -139 178 -148 248 -6 40
-3 48 20 72 21 21 33 25 53 20 14 -3 106 -6 204 -6 98 0 191 -4 205 -9 25 -10
26 -14 22 -60 -3 -27 -19 -78 -36 -113 -33 -67 -123 -173 -166 -196 -24 -13
-26 -19 -26 -83 l0 -68 34 0 c65 0 181 30 253 66 59 28 78 43 98 78 14 23 25
55 25 69 0 20 5 27 19 27 29 0 33 -14 20 -67 -28 -110 -168 -189 -382 -216
-89 -12 -97 -14 -65 -21 21 -4 97 -32 170 -62 73 -30 171 -65 218 -76 240 -57
427 47 565 316 23 45 44 88 47 96 4 12 28 9 159 -19 159 -33 412 -99 489 -126
24 -8 45 -13 47 -11 2 2 5 23 6 47 l2 43 -145 33 c-80 18 -228 47 -330 64
-102 18 -188 35 -192 39 -4 3 5 43 20 89 l27 84 217 -6 c119 -4 269 -12 332
-19 64 -6 118 -10 120 -7 3 2 2 23 -1 47 l-6 42 -324 0 -325 0 6 38 c3 20 8
63 12 95 7 64 0 59 118 77 130 20 290 38 399 46 59 4 107 9 107 13 0 3 -5 23
-11 45 l-11 38 -56 -7 c-82 -10 -395 -62 -475 -78 -78 -17 -67 -30 -87 113
-30 214 -151 487 -341 770 -43 64 -83 128 -88 144 -24 63 -3 156 45 197 11 8
57 39 103 68 374 234 566 498 666 913 59 246 91 693 65 896 -14 110 -30 152
-76 199 -49 52 -81 55 -145 15z m-99 -851 c43 -81 -51 -370 -183 -565 -21 -32
-85 -106 -141 -165 -120 -125 -201 -230 -303 -390 -85 -133 -89 -138 -68 -89
89 214 451 935 541 1077 91 145 129 177 154 132z m-2448 -78 c71 -77 233 -374
431 -788 168 -351 217 -455 213 -455 -2 0 -40 58 -84 129 -102 161 -192 277
-319 411 -150 160 -219 272 -283 460 -36 107 -51 230 -30 255 19 22 43 18 72
-12z m764 -1878 c36 -24 54 -74 54 -152 -1 -169 -52 -233 -149 -184 -121 62
-140 290 -30 349 30 16 91 9 125 -13z m972 -9 c15 -8 38 -33 51 -56 20 -37 23
-51 18 -106 -9 -99 -56 -172 -124 -195 -85 -28 -125 32 -127 186 -1 103 11
131 67 165 38 23 78 25 115 6z"/>
<path d="M2102 1822 c-9 -20 -8 -140 2 -150 11 -11 40 13 60 50 17 30 18 39 7
65 -16 39 -57 60 -69 35z"/>
<path d="M3086 1784 c-10 -73 -7 -101 10 -118 23 -24 33 -20 50 20 16 39 12
84 -12 122 -23 36 -41 27 -48 -24z"/>
</g>
</svg>
