<?xml version="1.0" encoding="UTF-8" standalone="no"?><!DOCTYPE svg PUBLIC "-//W3C//DTD SVG 1.1//EN" "http://www.w3.org/Graphics/SVG/1.1/DTD/svg11.dtd"><svg width="100%" height="100%" viewBox="0 0 300 75" version="1.1" xmlns="http://www.w3.org/2000/svg" xmlns:xlink="http://www.w3.org/1999/xlink" xml:space="preserve" xmlns:serif="http://www.serif.com/" style="fill-rule:evenodd;clip-rule:evenodd;"><path d="M217.805,36.791c-0.915,0.125 -0.98,-0.057 -0.195,-0.547c1.7,-1.075 3.13,-2.363 4.29,-3.863c0.645,-0.825 1.573,-2.265 2.783,-4.32c0.87,-1.48 1.642,-3.015 2.317,-4.605c0.007,-0.015 0.012,-0.031 0.015,-0.047c0.029,-0.137 -0.057,-0.272 -0.19,-0.3c-0.016,-0.004 -0.033,-0.005 -0.05,-0.005c-7.565,0.08 -13.847,3.08 -18.847,9c-1.195,1.42 -2.723,2.582 -4.583,3.487c-1.07,0.525 -2.347,0.763 -3.832,0.713c-3.8,-0.13 -7.558,-0.245 -11.273,-0.345c-0.58,-0.02 -0.6,-0.13 -0.06,-0.33c4.215,-1.585 8.205,-3.603 11.97,-6.053c2.49,-1.62 4.31,-3.805 5.46,-6.555c1.48,-3.555 2.815,-7.22 4.005,-10.995c0.009,-0.027 0.015,-0.056 0.017,-0.084c0.014,-0.201 -0.14,-0.379 -0.341,-0.393c-0.03,-0.002 -0.059,-0 -0.088,0.005c-2.645,0.46 -5.2,1.042 -7.665,1.747c-2.79,0.795 -5.145,1.878 -7.065,3.248c-2.085,1.485 -4.1,3.295 -6.045,5.43c-3.6,3.96 -7.323,7.84 -11.168,11.64c-0.615,0.61 -1.315,0.845 -2.1,0.705l-14.377,-2.565c-0.74,-0.13 -0.778,-0.388 -0.113,-0.773c4.905,-2.83 8.82,-6.66 11.745,-11.49c2.025,-3.34 4.425,-6.387 7.2,-9.142c0.84,-0.83 0.7,-1.158 -0.42,-0.983c-7.89,1.23 -14.11,5.078 -18.66,11.543c-1.8,2.555 -3.497,5.175 -5.092,7.86c-0.645,1.09 -1.79,1.56 -3.435,1.41c-6.72,-0.62 -11.27,-1.115 -13.65,-1.485c-0.245,-0.04 -0.253,-0.108 -0.023,-0.203c6.64,-2.755 13.028,-6.002 19.163,-9.742c0.22,-0.13 0.212,-0.248 -0.023,-0.353c-2.005,-0.905 -4.452,-1.477 -7.342,-1.717c-4.55,-0.38 -7.485,-0.613 -8.805,-0.698c-4.545,-0.295 -8.573,0.77 -12.083,3.195c-0.765,0.53 -2.385,1.815 -4.86,3.855c-1.6,1.32 -3.117,2.735 -4.552,4.245c-0.168,0.177 -0.398,0.277 -0.638,0.278c-12.59,0.02 -25.37,0.602 -38.34,1.747c-0.26,0.02 -0.282,-0.042 -0.067,-0.187c5.565,-3.745 9.187,-8.6 10.867,-14.565c0.355,-1.245 0.985,-2.33 1.89,-3.255c1.405,-1.425 2.51,-2.913 3.315,-4.463c0.575,-1.12 0.273,-1.462 -0.907,-1.027c-2.125,0.775 -4.303,1.33 -6.533,1.665c-2.74,0.41 -5.03,1.64 -6.87,3.69c-4.79,5.35 -9.11,11.055 -12.96,17.115c-0.585,0.93 -1.165,1.56 -1.74,1.89c-0.665,0.385 -1.487,0.702 -2.467,0.952c-7.18,1.83 -13.495,2.975 -18.945,3.435c-6.685,0.56 -13.293,1.59 -19.823,3.09c-0.255,0.057 -0.462,0.206 -0.562,0.405c-0.37,0.73 -0.238,1.348 0.397,1.853c0.177,0.142 0.422,0.194 0.668,0.142c6.38,-1.33 13.697,-2.305 21.952,-2.925c4.235,-0.315 9.313,-1.085 15.233,-2.31c0.242,-0.052 0.489,0 0.675,0.143c2.275,1.695 3.895,3.307 4.86,4.837c1.725,2.745 3.65,4.68 5.775,5.805c3.065,1.625 6.45,2.905 10.155,3.84c0.028,0.007 0.056,0.012 0.085,0.014c0.263,0.017 0.493,-0.181 0.51,-0.44c0.002,-0.03 0.001,-0.061 -0.003,-0.091c-0.075,-0.605 -0.327,-1.215 -0.757,-1.83c-3.735,-5.31 -8.35,-9.695 -13.845,-13.155c-0.405,-0.255 -1.158,-0.535 -2.258,-0.84c-0.24,-0.065 -0.237,-0.118 0.008,-0.158c5.96,-0.945 11.962,-1.362 18.007,-1.252c0.364,0.004 0.705,0.179 0.923,0.472c2.05,2.755 3.96,5.618 5.73,8.588c1.305,2.19 2.417,3.77 3.337,4.74c1.36,1.42 2.865,2.66 4.515,3.72c2.47,1.595 5.068,2.832 7.793,3.712c3.06,0.995 6.267,1.353 9.622,1.073c0.027,-0.002 0.053,-0.006 0.078,-0.011c0.364,-0.07 0.605,-0.428 0.534,-0.791c-0.005,-0.026 -0.011,-0.051 -0.019,-0.076c-3.175,-10.1 -9.59,-17.5 -19.245,-22.2c-0.225,-0.11 -0.215,-0.182 0.03,-0.217c5.545,-0.735 10.917,-0.86 16.117,-0.375c0.88,0.08 1.613,0.455 2.198,1.125c2.895,3.335 5.495,6.587 7.8,9.757c1.665,2.285 3.292,4.228 4.882,5.828c0.92,0.92 2.52,2.145 4.8,3.675c1.69,1.13 3.323,2.335 4.898,3.615c0.19,0.155 0.37,0.235 0.54,0.24c0.24,0.005 0.435,-0.078 0.585,-0.248c0.13,-0.147 0.161,-0.402 0.082,-0.667c-1.04,-3.4 -1.755,-5.595 -2.145,-6.585c-1.95,-4.97 -4.997,-9.053 -9.142,-12.248c-0.525,-0.405 -1.498,-1.017 -2.918,-1.837c-1,-0.575 -1.965,-1.208 -2.895,-1.898c-0.535,-0.4 -0.487,-0.572 0.143,-0.517c6.98,0.6 13.957,1.24 20.932,1.92c9.03,0.88 17.943,2.495 26.738,4.845c0.227,0.058 0.401,0.246 0.442,0.48c0.46,2.71 0.925,5.352 1.395,7.927c0.595,3.23 1.323,5.798 2.183,7.703c3.645,8.085 9.947,13.39 18.907,15.915c0.03,0.008 0.06,0.015 0.091,0.019c0.359,0.049 0.694,-0.206 0.743,-0.565c0.005,-0.03 0.007,-0.061 0.006,-0.092c0.005,-6.205 -1.29,-12.082 -3.885,-17.632c-2.235,-4.78 -5.455,-8.355 -9.66,-10.725c-1.445,-0.815 -2.512,-1.538 -3.202,-2.168c-0.19,-0.18 -0.153,-0.262 0.112,-0.247c12.25,0.755 22.295,1.17 30.135,1.245c4.66,0.045 7.99,0.145 9.99,0.3c0.213,0.012 0.404,0.167 0.48,0.39c0.285,0.805 0.843,1.715 1.673,2.73c5.125,6.285 10.87,11.375 17.235,15.27c1.055,0.645 2.155,1.225 3.3,1.74c1.535,0.69 2.705,1.13 3.51,1.32c1.11,0.265 2.145,-0.025 3.105,-0.87c0.171,-0.154 0.228,-0.398 0.142,-0.608c-0.36,-0.87 -1.115,-2.142 -2.265,-3.817c-2.4,-3.505 -4.557,-6.325 -6.472,-8.46c-0.895,-0.995 -1.993,-1.925 -3.293,-2.79c-1.205,-0.8 -2.422,-1.585 -3.652,-2.355c-0.61,-0.38 -0.56,-0.513 0.15,-0.398c3.11,0.495 6.097,1.47 8.962,2.925c3.605,1.835 6.478,3.028 8.618,3.578c2.95,0.755 5.727,1.917 8.332,3.487c3.14,1.9 6.488,3.3 10.043,4.2c0.83,0.21 1.945,0.133 3.345,-0.232c0.005,-0.001 0.01,-0.003 0.015,-0.004c0.177,-0.054 0.278,-0.247 0.223,-0.428c-0.001,-0.006 -0.003,-0.012 -0.006,-0.018c-2.105,-5.64 -4.932,-10.898 -8.482,-15.773c-1.7,-2.33 -3.785,-4.25 -6.255,-5.76c-3.415,-2.09 -7.098,-2.585 -11.048,-1.485c-1.72,0.48 -3.462,0.855 -5.227,1.125c-4.005,0.62 -8.025,1.983 -12.06,4.088c-0.593,0.308 -1.281,0.383 -1.928,0.21c-3.79,-1.01 -7.565,-1.263 -11.325,-0.758" style="fill:none;fill-rule:nonzero;stroke:#878786;stroke-width:1.5px;"/><path d="M266.945,50.216c-0.005,-0.19 0.058,-0.357 0.188,-0.502" style="fill:none;fill-rule:nonzero;stroke:#202020;stroke-width:1.5px;"/><path d="M267.133,49.714c0.615,-0.22 0.605,-0.605 -0.03,-1.155" style="fill:none;fill-rule:nonzero;stroke:#696868;stroke-width:1.5px;"/><path d="M267.103,48.559c0.075,-0.67 -0.033,-0.895 -0.323,-0.675c-0.191,0.145 -0.417,0.196 -0.6,0.135l-1.11,-0.368" style="fill:none;fill-rule:nonzero;stroke:#403f3f;stroke-width:1.5px;"/><path d="M265.07,47.651l-1.125,0" style="fill:none;fill-rule:nonzero;stroke:#202020;stroke-width:1.5px;"/><path d="M263.945,47.651c-0.29,-0.22 -0.575,-0.44 -0.855,-0.66c-0.68,-0.535 -0.922,-0.557 -0.727,-0.067c0.062,0.152 0.218,0.286 0.427,0.367c0.48,0.195 0.813,0.555 0.998,1.08" style="fill:none;fill-rule:nonzero;stroke:#4e4d4d;stroke-width:1.5px;"/><path d="M263.788,48.371c-0.065,0.715 0.315,1.325 1.14,1.83c1.73,1.06 2.96,1.76 3.69,2.1c0.25,0.115 0.33,0.045 0.24,-0.21c-0.315,-0.905 -0.953,-1.53 -1.913,-1.875" style="fill:none;fill-rule:nonzero;stroke:#878786;stroke-width:1.5px;"/><path d="M263.788,48.371l0.345,-0.03" style="fill:none;fill-rule:nonzero;stroke:#c3c3c3;stroke-width:1.5px;"/><path d="M264.133,48.341l2.812,1.875" style="fill:none;fill-rule:nonzero;stroke:#969696;stroke-width:1.5px;"/><path d="M264.133,48.341l-0.188,-0.69" style="fill:none;fill-rule:nonzero;stroke:#5d5c5d;stroke-width:1.5px;"/><path d="M266.54,49.121c-0.655,-0.355 -1.145,-0.845 -1.47,-1.47" style="fill:none;fill-rule:nonzero;stroke:#4f4e4f;stroke-width:1.5px;"/><path d="M267.133,49.714c-0.25,-0.145 -0.448,-0.343 -0.593,-0.593" style="fill:none;fill-rule:nonzero;stroke:#787777;stroke-width:1.5px;"/><path d="M266.54,49.121c-0.07,-0.47 0.118,-0.657 0.563,-0.562" style="fill:none;fill-rule:nonzero;stroke:#979597;stroke-width:1.5px;"/><path d="M260.008,41.404l0.03,-0.533" style="fill:none;fill-rule:nonzero;stroke:#5e5d5d;stroke-width:1.5px;"/><path d="M260.038,40.871c3.28,0.45 3.582,-0.237 0.907,-2.062c-1.45,-0.99 -2.865,-1.31 -4.245,-0.96c-0.825,0.21 -1.25,0.317 -1.275,0.322c-0.91,0.16 -1.82,0.32 -2.73,0.48" style="fill:none;fill-rule:nonzero;stroke:#7d7c7c;stroke-width:1.5px;"/><path d="M252.695,38.651c-1.945,-0.735 -1.955,-0.62 -0.03,0.345" style="fill:none;fill-rule:nonzero;stroke:#4e4d4d;stroke-width:1.5px;"/><path d="M252.665,38.996c3.45,1.135 6.448,2.955 8.993,5.46c0.79,0.775 1.497,1.293 2.122,1.553c0.775,0.32 1.635,0.567 2.58,0.742c0.33,0.06 0.395,-0.047 0.195,-0.322c-0.545,-0.735 -0.985,-1.453 -1.32,-2.153c-0.71,-1.485 -1.89,-2.245 -3.54,-2.28c-0.355,-0.01 -0.917,-0.207 -1.687,-0.592" style="fill:none;fill-rule:nonzero;stroke:#7d7c7c;stroke-width:1.5px;"/><path d="M252.665,38.996l0.03,-0.345" style="fill:none;fill-rule:nonzero;stroke:#b9b8b9;stroke-width:1.5px;"/><path d="M260.038,40.871c-0.145,-0.15 -0.218,-0.327 -0.218,-0.532" style="fill:none;fill-rule:nonzero;stroke:#cac8c9;stroke-width:1.5px;"/><path d="M259.82,40.339c0.275,-0.07 0.47,-0.198 0.585,-0.383c0.005,-0.007 0.009,-0.014 0.012,-0.021c0.078,-0.159 -0.016,-0.367 -0.208,-0.461c-0.01,-0.005 -0.019,-0.009 -0.029,-0.013c-1.335,-0.535 -2.642,-0.752 -3.922,-0.652c-0.315,0.025 -0.498,0.135 -0.548,0.33c-0.056,0.229 0.104,0.472 0.36,0.547l2.625,0.78" style="fill:none;fill-rule:nonzero;stroke:#848383;stroke-width:1.5px;"/><path d="M258.695,40.466l1.313,0.938" style="fill:none;fill-rule:nonzero;stroke:#cac8c9;stroke-width:1.5px;"/><path d="M259.82,40.339c-0.415,-0.115 -0.79,-0.073 -1.125,0.127" style="fill:none;fill-rule:nonzero;stroke:#656463;stroke-width:1.5px;"/><path d="M247.445,38.276c-2.505,0.905 -5.067,1.155 -7.687,0.75" style="fill:none;fill-rule:nonzero;stroke:#706f6f;stroke-width:1.5px;"/><path d="M239.758,39.026c-2.04,-0.115 -2.04,0.053 -0,0.503" style="fill:none;fill-rule:nonzero;stroke:#474747;stroke-width:1.5px;"/><path d="M239.758,39.529l8.625,2.437" style="fill:none;fill-rule:nonzero;stroke:#706f6f;stroke-width:1.5px;"/><path d="M248.383,41.966c1.595,0.51 2.98,1.333 4.155,2.468" style="fill:none;fill-rule:nonzero;stroke:#7d7c7c;stroke-width:1.5px;"/><path d="M252.538,44.434c0.01,0.285 -0.078,0.362 -0.263,0.232c-0.44,-0.31 -1.487,-0.71 -3.142,-1.2" style="fill:none;fill-rule:nonzero;stroke:#5e5d5d;stroke-width:1.5px;"/><path d="M249.133,43.466l-4.095,-1.47" style="fill:none;fill-rule:nonzero;stroke:#474747;stroke-width:1.5px;"/><path d="M245.038,41.996c-0.865,-0.645 -1.563,-0.957 -2.093,-0.937c-0.715,0.025 -0.75,0.165 -0.105,0.42c0.72,0.28 1.433,0.577 2.138,0.892" style="fill:none;fill-rule:nonzero;stroke:#363535;stroke-width:1.5px;"/><path d="M244.978,42.371l3.967,1.845" style="fill:none;fill-rule:nonzero;stroke:#474747;stroke-width:1.5px;"/><path d="M248.945,44.216l4.688,1.5" style="fill:none;fill-rule:nonzero;stroke:#5e5d5d;stroke-width:1.5px;"/><path d="M253.633,45.716l9.022,3.585c0.26,0.1 0.31,0.035 0.15,-0.195c-2.715,-3.85 -5.847,-6.587 -9.397,-8.212c-1.375,-0.635 -2.608,-1.478 -3.698,-2.528c-0.375,-0.365 -0.725,-0.545 -1.05,-0.54c-0.425,0 -0.83,0.15 -1.215,0.45" style="fill:none;fill-rule:nonzero;stroke:#7d7c7c;stroke-width:1.5px;"/><path d="M253.633,45.716c0.01,-0.71 -0.355,-1.137 -1.095,-1.282" style="fill:none;fill-rule:nonzero;stroke:#cac8c9;stroke-width:1.5px;"/><path d="M248.383,41.966l-0.938,-3.69" style="fill:none;fill-rule:nonzero;stroke:#dcdadb;stroke-width:1.5px;"/><path d="M248.945,44.216c-0.085,-0.325 -0.022,-0.575 0.188,-0.75" style="fill:none;fill-rule:nonzero;stroke:#949393;stroke-width:1.5px;"/><path d="M239.758,39.529l-0,-0.503" style="fill:none;fill-rule:nonzero;stroke:#a6a5a6;stroke-width:1.5px;"/><path d="M244.978,42.371l0.06,-0.375" style="fill:none;fill-rule:nonzero;stroke:#6c6b6c;stroke-width:1.5px;"/><path d="M251.203,36.236c-0.455,0.755 -0.308,0.9 0.442,0.435c1.205,-0.75 2.433,-1.21 3.683,-1.38c0.28,-0.042 0.503,-0.169 0.592,-0.337c0.145,-0.3 -0.125,-0.408 -0.81,-0.323c-0.23,0.025 -0.467,0.03 -0.712,0.015c-1.44,-0.095 -2.505,0.435 -3.195,1.59" style="fill:none;fill-rule:nonzero;stroke:#838383;stroke-width:1.5px;"/><path d="M240.74,50.764c-0.895,-0.97 -4.145,-3.783 -9.75,-8.438c-0.69,-0.58 -1.382,-0.96 -2.077,-1.14c-0.255,-0.07 -0.29,-0.007 -0.105,0.188c1.265,1.335 2.45,2.735 3.555,4.2c1.42,1.885 2.592,3.282 3.517,4.192c3.325,3.245 6.84,6.13 10.545,8.655c0.75,0.51 0.858,0.398 0.323,-0.337c-1.86,-2.565 -3.863,-5.005 -6.008,-7.32" style="fill:none;fill-rule:nonzero;stroke:#828282;stroke-width:1.5px;"/><path d="M240.043,37.504c2.285,-0.345 4.25,-0.438 5.895,-0.278c0.66,0.065 0.967,-0.042 0.922,-0.322c-0.029,-0.197 -0.251,-0.356 -0.532,-0.383c-2.585,-0.225 -4.718,-0.05 -6.398,0.525c-1.625,0.56 -1.587,0.713 0.113,0.458" style="fill:none;fill-rule:nonzero;stroke:#696868;stroke-width:1.5px;"/><path d="M244.842,52.44c0.08,-0.077 0.083,-0.206 0.006,-0.286l-6.614,-6.897c-0.076,-0.08 -0.206,-0.083 -0.286,-0.006l-0.184,0.177c-0.08,0.077 -0.083,0.206 -0.006,0.286l6.614,6.896c0.076,0.081 0.206,0.083 0.286,0.006l0.184,-0.176" style="fill:none;fill-rule:nonzero;stroke:#363535;stroke-width:1.5px;"/><path d="M229.199,46.387c0.086,-0.064 0.104,-0.187 0.041,-0.273l-4.381,-5.92c-0.037,-0.05 -0.095,-0.079 -0.157,-0.079c-0.042,-0 -0.082,0.013 -0.116,0.038l-0.024,0.018c-0.086,0.063 -0.104,0.186 -0.041,0.272l4.381,5.921c0.037,0.05 0.095,0.079 0.157,0.079c0.042,-0 0.082,-0.014 0.116,-0.038l0.024,-0.018" style="fill:none;fill-rule:nonzero;stroke:#757474;stroke-width:1.5px;"/><path d="M220.445,27.716c-0.68,-0.27 -1.297,-0.235 -1.852,0.105c-0.525,0.32 -0.808,0.49 -0.848,0.51c-1.17,0.55 -2.245,1.185 -3.225,1.905c-0.64,0.47 -0.567,0.7 0.218,0.69l1.77,-0.022" style="fill:none;fill-rule:nonzero;stroke:#706f6f;stroke-width:1.5px;"/><path d="M216.508,30.904l1.125,-0" style="fill:none;fill-rule:nonzero;stroke:#5e5d5d;stroke-width:1.5px;"/><path d="M217.633,30.904c0.265,0.12 0.4,0.317 0.405,0.592" style="fill:none;fill-rule:nonzero;stroke:#282727;stroke-width:1.5px;"/><path d="M218.038,31.496l-3.593,1.905" style="fill:none;fill-rule:nonzero;stroke:#828282;stroke-width:1.5px;"/><path d="M214.445,33.401c-2.665,0.37 -5.122,1.29 -7.372,2.76c-0.22,0.145 -0.2,0.218 0.06,0.218c2.835,0.01 5.46,-0.733 7.875,-2.228" style="fill:none;fill-rule:nonzero;stroke:#706f6f;stroke-width:1.5px;"/><path d="M215.008,34.151c2.55,-1.31 4.425,-2.57 5.625,-3.78c0.96,-0.97 0.897,-1.855 -0.188,-2.655" style="fill:none;fill-rule:nonzero;stroke:#828282;stroke-width:1.5px;"/><path d="M215.008,34.151c-0.38,-0.105 -0.568,-0.355 -0.563,-0.75" style="fill:none;fill-rule:nonzero;stroke:#e1e0e1;stroke-width:1.5px;"/><path d="M218.038,31.496c0.845,-0.63 1.6,-1.365 2.265,-2.205c0.215,-0.275 0.19,-0.54 -0.075,-0.795" style="fill:none;fill-rule:nonzero;stroke:#999898;stroke-width:1.5px;"/><path d="M220.228,28.496c-0.05,-0.335 0.022,-0.595 0.217,-0.78" style="fill:none;fill-rule:nonzero;stroke:#e1e0e1;stroke-width:1.5px;"/><path d="M220.228,28.496c-1.5,0.13 -2.795,0.703 -3.885,1.718c-0.28,0.26 -0.225,0.385 0.165,0.375" style="fill:none;fill-rule:nonzero;stroke:#878586;stroke-width:1.5px;"/><path d="M216.508,30.589l-0,0.315" style="fill:none;fill-rule:nonzero;stroke:#bdbbbc;stroke-width:1.5px;"/><path d="M217.633,30.904c-0.12,-0.68 -0.495,-0.785 -1.125,-0.315" style="fill:none;fill-rule:nonzero;stroke:#757373;stroke-width:1.5px;"/><path d="M212.9,32.089c-0.275,0.03 -0.537,0.1 -0.787,0.21c-0.95,0.43 -1.063,0.647 -0.338,0.652c0.49,0 1.193,-0.172 2.108,-0.517c1.15,-0.435 0.822,-0.55 -0.983,-0.345" style="fill:none;fill-rule:nonzero;stroke:#282727;stroke-width:1.5px;"/><path d="M205.235,17.974c0.34,-0.59 0.22,-0.843 -0.36,-0.758c-1.925,0.275 -3.765,0.825 -5.52,1.65c-0.183,0.088 -0.294,0.246 -0.262,0.375c0.035,0.135 0.167,0.173 0.397,0.113c1.65,-0.4 3.248,-0.66 4.793,-0.78c0.397,-0.028 0.755,-0.254 0.952,-0.6" style="fill:none;fill-rule:nonzero;stroke:#7d7c7c;stroke-width:1.5px;"/><path d="M195.133,23.464l-4.5,2.812" style="fill:none;fill-rule:nonzero;stroke:#696868;stroke-width:1.5px;"/><path d="M190.633,26.276c-0.47,0.145 -0.783,0.438 -0.938,0.878" style="fill:none;fill-rule:nonzero;stroke:#474747;stroke-width:1.5px;"/><path d="M189.695,27.154l-0.562,0.375" style="fill:none;fill-rule:nonzero;stroke:#202020;stroke-width:1.5px;"/><path d="M189.133,27.529c-1.445,1.18 -2.773,2.05 -3.983,2.61c-0.73,0.335 -1.215,0.777 -1.455,1.327" style="fill:none;fill-rule:nonzero;stroke:#363535;stroke-width:1.5px;"/><path d="M183.695,31.466l-4.462,3.09c-0.6,0.41 -0.528,0.633 0.217,0.668l4.245,0.18" style="fill:none;fill-rule:nonzero;stroke:#5e5d5d;stroke-width:1.5px;"/><path d="M183.695,35.404c1.155,0.415 2.34,0.565 3.555,0.45c0.215,-0.02 0.22,-0.065 0.015,-0.135c-0.58,-0.195 -0.895,-0.593 -0.945,-1.193" style="fill:none;fill-rule:nonzero;stroke:#202020;stroke-width:1.5px;"/><path d="M186.32,34.526c2.705,-0.82 5.268,-1.965 7.688,-3.435" style="fill:none;fill-rule:nonzero;stroke:#787877;stroke-width:1.5px;"/><path d="M194.008,31.091l4.065,-2.782c1.025,-0.705 0.937,-0.898 -0.263,-0.578l-4.177,1.11" style="fill:none;fill-rule:nonzero;stroke:#555554;stroke-width:1.5px;"/><path d="M193.633,28.841l-8.625,2.685" style="fill:none;fill-rule:nonzero;stroke:#757474;stroke-width:1.5px;"/><path d="M185.008,31.526l-0.158,-0.03" style="fill:none;fill-rule:nonzero;stroke:#5e5d5d;stroke-width:1.5px;"/><path d="M184.85,31.496c-0.25,-0.38 0.478,-0.857 2.183,-1.432c0.319,-0.108 0.604,-0.305 0.825,-0.57c0.515,-0.625 1.137,-0.818 1.867,-0.578c0.269,0.089 0.524,0.078 0.683,-0.03l1.912,-1.297" style="fill:none;fill-rule:nonzero;stroke:#363535;stroke-width:1.5px;"/><path d="M192.32,27.589c1.37,-0.16 2.745,-0.308 4.125,-0.443c0.185,-0.015 0.325,-0.075 0.42,-0.18c0.205,-0.225 0.13,-0.352 -0.225,-0.382c-1.615,-0.15 -3.18,0.06 -4.695,0.63" style="fill:none;fill-rule:nonzero;stroke:#5e5d5d;stroke-width:1.5px;"/><path d="M191.945,27.214l-0.157,-0.03" style="fill:none;fill-rule:nonzero;stroke:#363535;stroke-width:1.5px;"/><path d="M191.788,27.184c-0.19,-0.21 -0.263,-0.45 -0.218,-0.72" style="fill:none;fill-rule:nonzero;stroke:#202020;stroke-width:1.5px;"/><path d="M191.57,26.464l2.438,-0.623" style="fill:none;fill-rule:nonzero;stroke:#696868;stroke-width:1.5px;"/><path d="M194.008,25.841c1.245,-0.05 3.072,-0.275 5.482,-0.675c1.595,-0.265 2.643,-1.082 3.143,-2.452" style="fill:none;fill-rule:nonzero;stroke:#757474;stroke-width:1.5px;"/><path d="M202.633,22.714c0.355,-0.165 0.575,-0.408 0.66,-0.728c0.003,-0.011 0.005,-0.022 0.007,-0.033c0.024,-0.172 -0.115,-0.334 -0.306,-0.361c-0.013,-0.002 -0.026,-0.003 -0.039,-0.003c-2.78,-0.085 -5.387,0.54 -7.822,1.875" style="fill:none;fill-rule:nonzero;stroke:#7a7a79;stroke-width:1.5px;"/><path d="M202.633,22.714c-0.19,-0.045 -0.378,-0.045 -0.563,-0" style="fill:none;fill-rule:nonzero;stroke:#dedddd;stroke-width:1.5px;"/><path d="M202.07,22.714l-6.75,1.125" style="fill:none;fill-rule:nonzero;stroke:#818080;stroke-width:1.5px;"/><path d="M195.32,23.839c-0.175,-0.075 -0.237,-0.2 -0.187,-0.375" style="fill:none;fill-rule:nonzero;stroke:#d2d0d1;stroke-width:1.5px;"/><path d="M195.133,24.026c-0.775,0.18 -1.025,0.493 -0.75,0.938" style="fill:none;fill-rule:nonzero;stroke:#7f7e7e;stroke-width:1.5px;"/><path d="M191.57,26.464l-0.562,0.187" style="fill:none;fill-rule:nonzero;stroke:#787777;stroke-width:1.5px;"/><path d="M191.008,26.651c-0.175,-0.075 -0.3,-0.2 -0.375,-0.375" style="fill:none;fill-rule:nonzero;stroke:#9f9d9e;stroke-width:1.5px;"/><path d="M194.008,25.841c-0.1,-0.435 0.025,-0.727 0.375,-0.877" style="fill:none;fill-rule:nonzero;stroke:#cccbcb;stroke-width:1.5px;"/><path d="M194.383,24.964l0.937,-0.375" style="fill:none;fill-rule:nonzero;stroke:#8b8a8a;stroke-width:1.5px;"/><path d="M195.32,24.589c0.675,-0.15 1.345,-0.315 2.01,-0.495c0.345,-0.095 1.02,-0.198 2.025,-0.308c0.985,-0.11 1.89,-0.467 2.715,-1.072" style="fill:none;fill-rule:nonzero;stroke:#7c7b7a;stroke-width:1.5px;"/><path d="M195.32,24.589c-0.195,-0.125 -0.257,-0.313 -0.187,-0.563" style="fill:none;fill-rule:nonzero;stroke:#2f2e2d;stroke-width:1.5px;"/><path d="M195.133,24.026c0.11,-0.02 0.172,-0.082 0.187,-0.187" style="fill:none;fill-rule:nonzero;stroke:#706e6e;stroke-width:1.5px;"/><path d="M189.695,27.154c0.515,0.135 0.953,-0.033 1.313,-0.503" style="fill:none;fill-rule:nonzero;stroke:#565656;stroke-width:1.5px;"/><path d="M184.85,31.496c-0.37,0.245 -0.755,0.235 -1.155,-0.03" style="fill:none;fill-rule:nonzero;stroke:#838182;stroke-width:1.5px;"/><path d="M189.133,27.529c0.975,1.125 1.86,1.01 2.655,-0.345" style="fill:none;fill-rule:nonzero;stroke:#454445;stroke-width:1.5px;"/><path d="M192.32,27.589c-0.29,0.02 -0.415,-0.105 -0.375,-0.375" style="fill:none;fill-rule:nonzero;stroke:#838182;stroke-width:1.5px;"/><path d="M183.695,35.404l0.188,-0.315" style="fill:none;fill-rule:nonzero;stroke:#6d6c6c;stroke-width:1.5px;"/><path d="M193.79,30.746c-2.735,1.01 -5.537,1.75 -8.407,2.22" style="fill:none;fill-rule:nonzero;stroke:#9d9c9c;stroke-width:1.5px;"/><path d="M185.383,32.966l-0,-0.877" style="fill:none;fill-rule:nonzero;stroke:#838182;stroke-width:1.5px;"/><path d="M185.383,32.089l8.437,-2.31" style="fill:none;fill-rule:nonzero;stroke:#9a9899;stroke-width:1.5px;"/><path d="M186.32,34.526l-2.437,0.563" style="fill:none;fill-rule:nonzero;stroke:#878787;stroke-width:1.5px;"/><path d="M183.883,35.089c-0.6,0.015 -0.97,-0.203 -1.11,-0.653c-0.059,-0.191 0.065,-0.41 0.285,-0.502l2.325,-0.968" style="fill:none;fill-rule:nonzero;stroke:#c5c4c4;stroke-width:1.5px;"/><path d="M185.383,32.089c-0.265,-0.11 -0.39,-0.298 -0.375,-0.563" style="fill:none;fill-rule:nonzero;stroke:#c2c0c0;stroke-width:1.5px;"/><path d="M194.008,31.091l-0.218,-0.345" style="fill:none;fill-rule:nonzero;stroke:#bcbbbb;stroke-width:1.5px;"/><path d="M193.79,30.746c0.95,-0.575 0.96,-0.897 0.03,-0.967" style="fill:none;fill-rule:nonzero;stroke:#7a7979;stroke-width:1.5px;"/><path d="M193.82,29.779c0.315,-0.395 0.253,-0.708 -0.187,-0.938" style="fill:none;fill-rule:nonzero;stroke:#b9b8b8;stroke-width:1.5px;"/><path d="M194.878,61.361c0.885,3.41 1.09,3.363 0.615,-0.142c-0.02,-0.165 -0.08,-0.305 -0.18,-0.42c-0.565,-0.69 -0.71,-0.503 -0.435,0.562" style="fill:none;fill-rule:nonzero;stroke:#202020;stroke-width:1.5px;"/><path d="M191.54,57.746l-0.907,0.03" style="fill:none;fill-rule:nonzero;stroke:#2e2e2e;stroke-width:1.5px;"/><path d="M190.633,57.776l-2.318,-1.717c-0.149,-0.108 -0.298,-0.156 -0.39,-0.128c-0.145,0.04 -0.135,0.17 0.03,0.39c1.83,2.365 3.613,4.763 5.348,7.193c0.455,0.635 0.627,0.587 0.517,-0.143l-0.862,-5.625c-0.042,-0.261 -0.206,-0.47 -0.42,-0.532c-0.43,-0.13 -0.763,0.047 -0.998,0.532" style="fill:none;fill-rule:nonzero;stroke:#858484;stroke-width:1.5px;"/><path d="M190.633,57.776c1.235,2.055 1.537,2.045 0.907,-0.03" style="fill:none;fill-rule:nonzero;stroke:#a2a1a2;stroke-width:1.5px;"/><path d="M188.42,50.246c-1.55,-0.285 -3.13,-0.772 -4.74,-1.462c-0.29,-0.125 -0.35,-0.055 -0.18,0.21c1.01,1.565 2.07,3.065 3.18,4.5c0.68,0.87 1.315,1.44 1.905,1.71c0.9,0.41 1.81,0.437 2.73,0.082c0.025,-0.009 0.05,-0.02 0.074,-0.031c0.522,-0.244 0.778,-0.818 0.565,-1.273c-0.009,-0.021 -0.02,-0.041 -0.031,-0.061l-2.033,-3.525c-0.092,-0.163 -0.336,-0.234 -0.592,-0.172c-0.285,0.07 -0.578,0.077 -0.878,0.022" style="fill:none;fill-rule:nonzero;stroke:#7f7f7f;stroke-width:1.5px;"/><path d="M183.508,43.466l-4.208,-2.437c-0.4,-0.23 -0.49,-0.143 -0.27,0.262l0.915,1.673" style="fill:none;fill-rule:nonzero;stroke:#706f6f;stroke-width:1.5px;"/><path d="M179.945,42.964c0.18,1.125 0.858,1.802 2.033,2.032" style="fill:none;fill-rule:nonzero;stroke:#474747;stroke-width:1.5px;"/><path d="M181.978,44.996c1.31,1.54 2.945,2.53 4.905,2.97" style="fill:none;fill-rule:nonzero;stroke:#696868;stroke-width:1.5px;"/><path d="M186.883,47.966c0.47,0.35 0.97,0.548 1.5,0.593c0.265,0.02 0.335,-0.093 0.21,-0.338c-1.115,-2.165 -2.81,-3.75 -5.085,-4.755" style="fill:none;fill-rule:nonzero;stroke:#7a7a79;stroke-width:1.5px;"/><path d="M186.883,47.966l-0.375,-1.125" style="fill:none;fill-rule:nonzero;stroke:#d2d0d1;stroke-width:1.5px;"/><path d="M186.508,46.841l-3.218,-2.782" style="fill:none;fill-rule:nonzero;stroke:#b0afb0;stroke-width:1.5px;"/><path d="M183.29,44.059c-0.045,-0.26 0.028,-0.458 0.218,-0.593" style="fill:none;fill-rule:nonzero;stroke:#d9d8d8;stroke-width:1.5px;"/><path d="M179.945,42.964l3.345,1.095" style="fill:none;fill-rule:nonzero;stroke:#a6a5a6;stroke-width:1.5px;"/><path d="M181.978,44.996c-0.03,-0.195 -0.008,-0.355 0.067,-0.48c0.009,-0.014 0.019,-0.026 0.031,-0.038c0.102,-0.1 0.301,-0.067 0.439,0.074c0.015,0.015 0.028,0.03 0.04,0.047c0.98,1.305 2.298,2.052 3.953,2.242" style="fill:none;fill-rule:nonzero;stroke:#9f9d9e;stroke-width:1.5px;"/><path d="M185.54,57.746l-1.44,-1.875" style="fill:none;fill-rule:nonzero;stroke:#696868;stroke-width:1.5px;"/><path d="M184.1,55.871l-1.687,-2.437" style="fill:none;fill-rule:nonzero;stroke:#787877;stroke-width:1.5px;"/><path d="M182.413,53.434c-1.34,-2.68 -2.053,-4.915 -2.138,-6.705c-0.025,-0.5 -0.14,-0.783 -0.345,-0.848c-0.015,-0.005 -0.03,-0.009 -0.046,-0.01c-0.147,-0.013 -0.284,0.159 -0.304,0.38c-0.002,0.022 -0.002,0.044 -0.002,0.065c0.095,2.69 0.852,5.188 2.272,7.493" style="fill:none;fill-rule:nonzero;stroke:#868685;stroke-width:1.5px;"/><path d="M181.85,53.809l1.313,2.812" style="fill:none;fill-rule:nonzero;stroke:#787877;stroke-width:1.5px;"/><path d="M183.163,56.621l0.562,1.688" style="fill:none;fill-rule:nonzero;stroke:#696868;stroke-width:1.5px;"/><path d="M183.725,58.309c0.16,0.37 0.39,0.682 0.69,0.937" style="fill:none;fill-rule:nonzero;stroke:#555554;stroke-width:1.5px;"/><path d="M184.415,59.246c0.265,0.79 0.708,1.078 1.328,0.863c0.221,-0.076 0.372,-0.29 0.375,-0.533c0.015,-0.665 -0.178,-1.275 -0.578,-1.83" style="fill:none;fill-rule:nonzero;stroke:#787877;stroke-width:1.5px;"/><path d="M184.415,59.246l0.435,-0.937" style="fill:none;fill-rule:nonzero;stroke:#bcbbbb;stroke-width:1.5px;"/><path d="M184.85,58.309c0.135,-0.335 0.365,-0.523 0.69,-0.563" style="fill:none;fill-rule:nonzero;stroke:#d0cecf;stroke-width:1.5px;"/><path d="M184.85,58.309c-0.28,-0.315 -0.655,-0.315 -1.125,-0" style="fill:none;fill-rule:nonzero;stroke:#adabac;stroke-width:1.5px;"/><path d="M183.163,56.621c0.545,0.02 0.857,-0.23 0.937,-0.75" style="fill:none;fill-rule:nonzero;stroke:#d0cecf;stroke-width:1.5px;"/><path d="M181.85,53.809c0.39,0.09 0.578,-0.035 0.563,-0.375" style="fill:none;fill-rule:nonzero;stroke:#edecec;stroke-width:1.5px;"/><path d="M170.863,17.366c-0.95,1.845 -1.8,3.735 -2.55,5.67c-0.13,0.345 -0.103,0.358 0.082,0.038l3.765,-6.435c0.185,-0.31 0.11,-0.388 -0.225,-0.233c-0.505,0.23 -0.862,0.55 -1.072,0.96" style="fill:none;fill-rule:nonzero;stroke:#828282;stroke-width:1.5px;"/><path d="M162.695,26.966c-0.9,0.225 -1.597,0.735 -2.092,1.53" style="fill:none;fill-rule:nonzero;stroke:#4e4d4d;stroke-width:1.5px;"/><path d="M160.603,28.496c-2,1.335 -1.99,1.513 0.03,0.533" style="fill:none;fill-rule:nonzero;stroke:#696868;stroke-width:1.5px;"/><path d="M160.633,29.029c0.945,-0.415 1.705,-1.03 2.28,-1.845" style="fill:none;fill-rule:nonzero;stroke:#4e4d4d;stroke-width:1.5px;"/><path d="M162.913,27.184c2.305,-0.695 2.232,-0.768 -0.218,-0.218" style="fill:none;fill-rule:nonzero;stroke:#202020;stroke-width:1.5px;"/><path d="M162.913,27.184c-0.03,-0.115 -0.103,-0.188 -0.218,-0.218" style="fill:none;fill-rule:nonzero;stroke:#5d5c5d;stroke-width:1.5px;"/><path d="M160.633,29.029l-0.03,-0.533" style="fill:none;fill-rule:nonzero;stroke:#a5a4a5;stroke-width:1.5px;"/><path d="M148.685,19.774c-1.52,-0.095 -3.037,-0.085 -4.552,0.03c-1.315,0.105 -2.79,0.4 -4.425,0.885c-2.05,0.605 -4.09,1.252 -6.12,1.942c-0.009,0.003 -0.018,0.007 -0.027,0.011c-0.174,0.073 -0.274,0.237 -0.221,0.362c0.002,0.006 0.005,0.012 0.008,0.017c0.07,0.115 0.22,0.13 0.45,0.045c1.465,-0.54 2.975,-0.75 4.53,-0.63c4.42,0.34 8.865,-0.385 13.335,-2.175c0.55,-0.22 0.527,-0.337 -0.068,-0.352c-0.85,-0.025 -1.82,-0.07 -2.91,-0.135" style="fill:none;fill-rule:nonzero;stroke:#838383;stroke-width:1.5px;"/><path d="M143.24,24.979c1.06,-0.4 0.933,-0.485 -0.382,-0.255c-0.5,0.09 -0.535,0.195 -0.105,0.315c0.13,0.035 0.292,0.015 0.487,-0.06" style="fill:none;fill-rule:nonzero;stroke:#282727;stroke-width:1.5px;"/><path d="M141.832,24.165c0.106,-0.001 0.194,-0.089 0.194,-0.195l-0.001,-0.046c-0,-0.107 -0.088,-0.194 -0.195,-0.194c-0,-0 -0,-0 -0.001,-0l-7.23,0.038c-0.106,0 -0.194,0.088 -0.194,0.195l0.001,0.046c0,0.106 0.088,0.194 0.195,0.194c-0,-0 0,-0 0.001,-0l7.23,-0.038" style="fill:none;fill-rule:nonzero;stroke:#2e2e2e;stroke-width:1.5px;"/><path d="M128.983,27.604c3.72,-0.4 7.4,-1.04 11.04,-1.92c1.665,-0.405 1.64,-0.59 -0.075,-0.555c-0.995,0.025 -2.068,0.097 -3.218,0.217c-0.04,0.005 -0.862,0.063 -2.467,0.173c-1.96,0.135 -3.758,0.727 -5.393,1.777c-0.4,0.26 -0.362,0.363 0.113,0.308" style="fill:none;fill-rule:nonzero;stroke:#858484;stroke-width:1.5px;"/><path d="M137.568,47.391c0,-0 0,-0 0,-0c0.186,-0.122 -0.629,-1.69 -1.804,-3.473c-0,0 -0,0 -0,0c-1.176,-1.782 -2.296,-3.149 -2.481,-3.026c-0,-0 -0,-0 -0,-0c-0.186,0.122 0.629,1.689 1.804,3.472c0,0 0,0 0,0c1.176,1.783 2.296,3.149 2.481,3.027" style="fill:none;fill-rule:nonzero;stroke:#868685;stroke-width:1.5px;"/><path d="M126.433,34.174c-0.91,-0.855 -1.098,-0.72 -0.563,0.405c0.535,1.13 1.623,2.18 3.263,3.15c0.203,0.118 0.339,0.327 0.367,0.562c0.23,1.845 1.048,3.285 2.453,4.32c0.28,0.21 0.525,0.455 0.735,0.735c1.03,1.395 1.702,2.195 2.017,2.4c0.45,0.3 0.433,0.155 -0.052,-0.435l-2.475,-3.03c-0.141,-0.175 -0.217,-0.405 -0.218,-0.652c0,-1.17 -0.377,-2.175 -1.132,-3.015c-1.245,-1.38 -2.71,-2.86 -4.395,-4.44" style="fill:none;fill-rule:nonzero;stroke:#282727;stroke-width:1.5px;"/><path d="M125.368,25.819c0.81,-0.815 0.65,-1.373 -0.48,-1.673c-0.015,-0.004 -0.029,-0.007 -0.044,-0.01c-0.26,-0.047 -0.511,0.128 -0.558,0.388c-0.002,0.014 -0.004,0.028 -0.006,0.042c-0.165,1.845 0.01,2.473 0.525,1.883c0.295,-0.34 0.483,-0.55 0.563,-0.63" style="fill:none;fill-rule:nonzero;stroke:#2e2e2e;stroke-width:1.5px;"/><path d="M99.725,38.246c-1.395,-1.07 -2.792,-2.132 -4.192,-3.187c-0.4,-0.3 -0.605,-0.325 -0.615,-0.075c-0.01,0.16 0.087,0.354 0.262,0.525c1.275,1.23 2.718,2.215 4.328,2.955" style="fill:none;fill-rule:nonzero;stroke:#818181;stroke-width:1.5px;"/><path d="M99.508,38.464c3.15,1.65 5.84,3.83 8.07,6.54c0.755,0.915 1.535,1.612 2.34,2.092c6.805,4.04 7.43,2.61 1.875,-4.29c-0.156,-0.195 -0.363,-0.336 -0.593,-0.405c-1.53,-0.475 -3.1,-0.75 -4.71,-0.825c-0.83,-0.04 -3.085,-1.15 -6.765,-3.33" style="fill:none;fill-rule:nonzero;stroke:#787877;stroke-width:1.5px;"/><path d="M99.508,38.464c0.115,-0.03 0.187,-0.103 0.217,-0.218" style="fill:none;fill-rule:nonzero;stroke:#e8e7e8;stroke-width:1.5px;"/><path d="M105.695,44.216c-0.405,-0.415 -0.83,-0.812 -1.275,-1.192c-0.19,-0.165 -0.4,-0.27 -0.63,-0.315c-0.79,-0.155 -0.937,0.09 -0.442,0.735c0.125,0.164 0.341,0.292 0.607,0.36c0.62,0.155 1.128,0.49 1.523,1.005" style="fill:none;fill-rule:nonzero;stroke:#202020;stroke-width:1.5px;"/><path d="M105.478,44.809c0.42,0.695 0.892,1.355 1.417,1.98c0.03,0.035 0.258,0.41 0.683,1.125c0.27,0.455 0.72,0.78 1.35,0.975c0.46,0.14 1.867,0.747 4.222,1.822c0.565,0.255 0.838,0.175 0.818,-0.24c-0.013,-0.207 -0.184,-0.396 -0.428,-0.472c-3.265,-1.035 -5.88,-2.963 -7.845,-5.783" style="fill:none;fill-rule:nonzero;stroke:#474747;stroke-width:1.5px;"/><path d="M105.478,44.809c-0.045,-0.26 0.027,-0.458 0.217,-0.593" style="fill:none;fill-rule:nonzero;stroke:#565656;stroke-width:1.5px;"/><path d="M104.383,37.091c-2.74,-1.835 -5.738,-3.025 -8.993,-3.57c-0.29,-0.05 -0.555,-0.032 -0.795,0.053c-0.28,0.1 -0.27,0.182 0.03,0.247c1.48,0.34 2.805,1.003 3.975,1.988" style="fill:none;fill-rule:nonzero;stroke:#696868;stroke-width:1.5px;"/><path d="M98.6,35.809c0.22,0.385 0.523,0.687 0.908,0.907" style="fill:none;fill-rule:nonzero;stroke:#282727;stroke-width:1.5px;"/><path d="M99.508,36.716l1.095,0.03" style="fill:none;fill-rule:nonzero;stroke:#403f3f;stroke-width:1.5px;"/><path d="M100.603,36.746c0.27,0.605 0.707,0.98 1.312,1.125" style="fill:none;fill-rule:nonzero;stroke:#696868;stroke-width:1.5px;"/><path d="M101.915,37.871c0.16,0.165 0.348,0.29 0.563,0.375" style="fill:none;fill-rule:nonzero;stroke:#403f3f;stroke-width:1.5px;"/><path d="M102.478,38.246l7.027,2.76c0.097,0.042 0.196,0.039 0.255,-0.007c0.075,-0.055 0.063,-0.125 -0.037,-0.21c-1.68,-1.375 -3.46,-2.608 -5.34,-3.698" style="fill:none;fill-rule:nonzero;stroke:#757474;stroke-width:1.5px;"/><path d="M102.478,38.246c0.08,-0.47 0.402,-0.657 0.967,-0.562c0.38,0.065 0.568,-0.113 0.563,-0.533" style="fill:none;fill-rule:nonzero;stroke:#a3a2a3;stroke-width:1.5px;"/><path d="M104.008,37.151l0.375,-0.06" style="fill:none;fill-rule:nonzero;stroke:#cccbcb;stroke-width:1.5px;"/><path d="M104.008,37.151c-0.69,0.295 -1.288,0.245 -1.793,-0.15c-0.23,-0.18 -0.34,-0.145 -0.33,0.105l0.03,0.765" style="fill:none;fill-rule:nonzero;stroke:#979597;stroke-width:1.5px;"/><path d="M100.603,36.746c0.11,-0.59 -0.13,-0.83 -0.72,-0.72" style="fill:none;fill-rule:nonzero;stroke:#979597;stroke-width:1.5px;"/><path d="M99.883,36.026l-1.283,-0.217" style="fill:none;fill-rule:nonzero;stroke:#7f7e7e;stroke-width:1.5px;"/><path d="M99.508,36.716l0.375,-0.69" style="fill:none;fill-rule:nonzero;stroke:#565556;stroke-width:1.5px;"/><path d="M104.008,45.821c-0.92,-0.98 -1.818,-1.982 -2.693,-3.007c-0.18,-0.205 -0.382,-0.365 -0.607,-0.48c-1.76,-0.865 -1.853,-0.473 -0.278,1.177c1.51,1.59 3.213,2.945 5.108,4.065c0.465,0.275 0.677,0.28 0.637,0.015c-0.02,-0.12 -0.092,-0.232 -0.217,-0.337c-0.315,-0.255 -0.645,-0.488 -0.99,-0.698c-0.4,-0.235 -0.72,-0.48 -0.96,-0.735" style="fill:none;fill-rule:nonzero;stroke:#787877;stroke-width:1.5px;"/><path d="M100.91,33.724c-0.235,-0.445 -0.492,-0.495 -0.772,-0.15c-0.007,0.008 -0.013,0.016 -0.018,0.025c-0.079,0.126 -0.02,0.306 0.13,0.4c0.01,0.006 0.02,0.012 0.03,0.017l0.975,0.465c0.244,0.119 0.49,0.149 0.675,0.083c0.69,-0.255 0.525,-0.413 -0.495,-0.473c-0.217,-0.013 -0.418,-0.154 -0.525,-0.367" style="fill:none;fill-rule:nonzero;stroke:#202020;stroke-width:1.5px;"/><path d="M86.195,16.339l-2.437,2.565" style="fill:none;fill-rule:nonzero;stroke:#474747;stroke-width:1.5px;"/><path d="M83.758,18.904c-1.325,0.235 -1.443,0.605 -0.353,1.11c1.72,0.8 2.993,0.392 3.818,-1.223c0.54,-1.055 1.017,-2.222 1.432,-3.502c0.205,-0.625 0.038,-0.743 -0.502,-0.353l-1.958,1.403" style="fill:none;fill-rule:nonzero;stroke:#696868;stroke-width:1.5px;"/><path d="M83.758,18.904c1.615,0.515 2.74,0.032 3.375,-1.448c0.003,-0.007 0.006,-0.015 0.009,-0.022c0.049,-0.144 -0.048,-0.31 -0.215,-0.367c-0.009,-0.003 -0.018,-0.006 -0.027,-0.008c-0.355,-0.095 -0.59,-0.335 -0.705,-0.72" style="fill:none;fill-rule:nonzero;stroke:#9f9d9e;stroke-width:1.5px;"/><path d="M80.195,24.026c-0.75,0.24 -1.125,0.783 -1.125,1.628" style="fill:none;fill-rule:nonzero;stroke:#363535;stroke-width:1.5px;"/><path d="M79.07,25.654c-1.71,0.54 -3.077,1.51 -4.102,2.91c-0.15,0.21 -0.1,0.28 0.15,0.21c1.845,-0.525 3.537,-1.378 5.077,-2.558" style="fill:none;fill-rule:nonzero;stroke:#4e4d4d;stroke-width:1.5px;"/><path d="M80.195,26.216c0.54,-0.335 0.915,-0.815 1.125,-1.44" style="fill:none;fill-rule:nonzero;stroke:#363535;stroke-width:1.5px;"/><path d="M81.32,24.776c1.245,-0.735 2.448,-1.54 3.608,-2.415c0.44,-0.33 0.477,-0.517 0.112,-0.562c-0.113,-0.014 -0.315,0.044 -0.547,0.157l-4.298,2.07" style="fill:none;fill-rule:nonzero;stroke:#555554;stroke-width:1.5px;"/><path d="M81.32,24.776c-0.56,0.005 -0.935,-0.245 -1.125,-0.75" style="fill:none;fill-rule:nonzero;stroke:#7a7979;stroke-width:1.5px;"/><path d="M80.195,26.216c-0.205,-0.47 -0.58,-0.657 -1.125,-0.562" style="fill:none;fill-rule:nonzero;stroke:#737172;stroke-width:1.5px;"/><path d="M80.48,44.569c-0.905,-1.23 -1.045,-1.015 -0.42,0.645c0.088,0.224 0.248,0.416 0.458,0.547c2.47,1.56 2.562,1.283 0.277,-0.832c-0.115,-0.11 -0.22,-0.23 -0.315,-0.36" style="fill:none;fill-rule:nonzero;stroke:#757474;stroke-width:1.5px;"/><path d="M75.133,39.904c-2.415,-1.585 -2.415,-1.398 -0,0.562" style="fill:none;fill-rule:nonzero;stroke:#403f3f;stroke-width:1.5px;"/><path d="M75.133,40.466c1.02,1.05 2.202,1.87 3.547,2.46c0.245,0.11 0.28,0.06 0.105,-0.15c-1.005,-1.22 -2.222,-2.177 -3.652,-2.872" style="fill:none;fill-rule:nonzero;stroke:#4e4d4d;stroke-width:1.5px;"/><path d="M75.133,40.466c-0.14,-0.25 -0.14,-0.437 -0,-0.562" style="fill:none;fill-rule:nonzero;stroke:#7c7b7c;stroke-width:1.5px;"/><path d="M74.622,42.181c0,-0 0,-0 0,-0c0.169,-0.066 0.193,-0.414 0.053,-0.77c0,-0 0,-0 0,-0c-0.139,-0.356 -0.393,-0.595 -0.561,-0.529c-0.001,-0 -0.001,-0 -0.001,-0c-0.168,0.066 -0.192,0.413 -0.052,0.77c-0,-0 -0,-0 -0,-0c0.139,0.356 0.393,0.595 0.561,0.529" style="fill:none;fill-rule:nonzero;stroke:#202020;stroke-width:1.5px;"/><path d="M263.27,43.174c-0.425,-0.295 -0.807,-0.325 -1.147,-0.09c-0.023,0.016 -0.043,0.034 -0.061,0.055c-0.115,0.135 -0.098,0.34 0.037,0.455c0.021,0.018 0.044,0.033 0.069,0.045c0.41,0.2 0.767,0.217 1.072,0.052c0.021,-0.011 0.041,-0.025 0.058,-0.041c0.125,-0.113 0.138,-0.307 0.027,-0.429c-0.016,-0.018 -0.034,-0.034 -0.055,-0.047" style="fill:none;fill-rule:nonzero;stroke:#c1c0c0;stroke-width:1.5px;"/><path d="M253.063,41.786c-2.505,-0.055 -3.045,0.168 -1.62,0.668c0.19,0.07 0.477,0.2 0.862,0.39c0.675,0.345 1.088,0.197 1.238,-0.443c0.004,-0.017 0.007,-0.034 0.009,-0.051c0.034,-0.274 -0.164,-0.526 -0.438,-0.56c-0.017,-0.002 -0.034,-0.003 -0.051,-0.004" style="fill:none;fill-rule:nonzero;stroke:#cac8c9;stroke-width:1.5px;"/><path d="M186.845,52.399c0.59,0.945 0.793,0.847 0.608,-0.293c-0.037,-0.24 -0.158,-0.43 -0.315,-0.495c-0.145,-0.06 -0.263,-0.022 -0.353,0.113c-0.112,0.168 -0.088,0.435 0.06,0.675" style="fill:none;fill-rule:nonzero;stroke:#d7d5d6;stroke-width:1.5px;"/><path d="M143.008,21.026c-0.825,-0.29 -1.483,-0.165 -1.973,0.375c-0.195,0.21 -0.147,0.293 0.143,0.248l1.83,-0.308" style="fill:none;fill-rule:nonzero;stroke:#dbdada;stroke-width:1.5px;"/><path d="M143.008,21.341c5.59,-0.32 5.59,-0.425 -0,-0.315" style="fill:none;fill-rule:nonzero;stroke:#b9b9b9;stroke-width:1.5px;"/><path d="M143.008,21.341l-0,-0.315" style="fill:none;fill-rule:nonzero;stroke:#9f9d9e;stroke-width:1.5px;"/><path d="M111.883,44.404l-0.188,-0.413c-0.105,-0.244 -0.281,-0.428 -0.487,-0.51c-0.755,-0.3 -0.645,0.018 0.33,0.953" style="fill:none;fill-rule:nonzero;stroke:#d0cecf;stroke-width:1.5px;"/><path d="M111.538,44.434c-0.165,0.335 -0.425,0.532 -0.78,0.592" style="fill:none;fill-rule:nonzero;stroke:#bcbbbb;stroke-width:1.5px;"/><path d="M110.758,45.026l-0.188,0" style="fill:none;fill-rule:nonzero;stroke:#aeadae;stroke-width:1.5px;"/><path d="M110.57,45.026l-2.835,-1.267c-0.18,-0.08 -0.222,-0.043 -0.127,0.112c0.595,1.025 1.51,1.65 2.745,1.875" style="fill:none;fill-rule:nonzero;stroke:#a7a5a6;stroke-width:1.5px;"/><path d="M110.353,45.746c0.245,0.63 0.692,1.015 1.342,1.155" style="fill:none;fill-rule:nonzero;stroke:#aeadae;stroke-width:1.5px;"/><path d="M111.695,46.901c0.61,0.71 1.348,1.163 2.213,1.358c0.255,0.055 0.335,-0.043 0.24,-0.293c-0.51,-1.34 -1.265,-2.527 -2.265,-3.562" style="fill:none;fill-rule:nonzero;stroke:#bcbbbb;stroke-width:1.5px;"/><path d="M111.695,46.901c0.2,-0.125 0.263,-0.312 0.188,-0.562" style="fill:none;fill-rule:nonzero;stroke:#8b8a8b;stroke-width:1.5px;"/><path d="M111.883,46.339c1.1,-0.825 0.735,-1.21 -1.095,-1.155" style="fill:none;fill-rule:nonzero;stroke:#b9b8b8;stroke-width:1.5px;"/><path d="M110.788,45.184l-0.03,-0.158" style="fill:none;fill-rule:nonzero;stroke:#8b8a8b;stroke-width:1.5px;"/><path d="M111.538,44.434l0.345,-0.03" style="fill:none;fill-rule:nonzero;stroke:#adabac;stroke-width:1.5px;"/><path d="M110.353,45.746c0.19,-0.21 0.262,-0.45 0.217,-0.72" style="fill:none;fill-rule:nonzero;stroke:#767476;stroke-width:1.5px;"/><path d="M111.883,46.339c-0.68,-0.12 -1.045,-0.505 -1.095,-1.155" style="fill:none;fill-rule:nonzero;stroke:#abaaaa;stroke-width:1.5px;"/><path d="M217.805,36.791c3.76,-0.505 7.535,-0.252 11.325,0.758c0.647,0.173 1.335,0.098 1.928,-0.21c4.035,-2.105 8.055,-3.468 12.06,-4.088c1.765,-0.27 3.507,-0.645 5.227,-1.125c3.95,-1.1 7.633,-0.605 11.048,1.485c2.47,1.51 4.555,3.43 6.255,5.76c3.55,4.875 6.377,10.133 8.482,15.773c0.003,0.006 0.005,0.012 0.006,0.018c0.055,0.181 -0.046,0.374 -0.223,0.428c-0.005,0.001 -0.01,0.003 -0.015,0.004c-1.4,0.365 -2.515,0.442 -3.345,0.232c-3.555,-0.9 -6.903,-2.3 -10.043,-4.2c-2.605,-1.57 -5.382,-2.732 -8.332,-3.487c-2.14,-0.55 -5.013,-1.743 -8.618,-3.578c-2.865,-1.455 -5.852,-2.43 -8.962,-2.925c-0.71,-0.115 -0.76,0.018 -0.15,0.398c1.23,0.77 2.447,1.555 3.652,2.355c1.3,0.865 2.398,1.795 3.293,2.79c1.915,2.135 4.072,4.955 6.472,8.46c1.15,1.675 1.905,2.947 2.265,3.817c0.086,0.21 0.029,0.454 -0.142,0.608c-0.96,0.845 -1.995,1.135 -3.105,0.87c-0.805,-0.19 -1.975,-0.63 -3.51,-1.32c-1.145,-0.515 -2.245,-1.095 -3.3,-1.74c-6.365,-3.895 -12.11,-8.985 -17.235,-15.27c-0.83,-1.015 -1.388,-1.925 -1.673,-2.73c-0.076,-0.223 -0.267,-0.378 -0.48,-0.39c-2,-0.155 -5.33,-0.255 -9.99,-0.3c-7.84,-0.075 -17.885,-0.49 -30.135,-1.245c-0.265,-0.015 -0.302,0.067 -0.112,0.247c0.69,0.63 1.757,1.353 3.202,2.168c4.205,2.37 7.425,5.945 9.66,10.725c2.595,5.55 3.89,11.427 3.885,17.632c0.001,0.031 -0.001,0.062 -0.006,0.092c-0.049,0.359 -0.384,0.614 -0.743,0.565c-0.031,-0.004 -0.061,-0.011 -0.091,-0.019c-8.96,-2.525 -15.262,-7.83 -18.907,-15.915c-0.86,-1.905 -1.588,-4.473 -2.183,-7.703c-0.47,-2.575 -0.935,-5.217 -1.395,-7.927c-0.041,-0.234 -0.215,-0.422 -0.442,-0.48c-8.795,-2.35 -17.708,-3.965 -26.738,-4.845c-6.975,-0.68 -13.952,-1.32 -20.932,-1.92c-0.63,-0.055 -0.678,0.117 -0.143,0.517c0.93,0.69 1.895,1.323 2.895,1.898c1.42,0.82 2.393,1.432 2.918,1.837c4.145,3.195 7.192,7.278 9.142,12.248c0.39,0.99 1.105,3.185 2.145,6.585c0.079,0.265 0.048,0.52 -0.082,0.667c-0.15,0.17 -0.345,0.253 -0.585,0.248c-0.17,-0.005 -0.35,-0.085 -0.54,-0.24c-1.575,-1.28 -3.208,-2.485 -4.898,-3.615c-2.28,-1.53 -3.88,-2.755 -4.8,-3.675c-1.59,-1.6 -3.217,-3.543 -4.882,-5.828c-2.305,-3.17 -4.905,-6.422 -7.8,-9.757c-0.585,-0.67 -1.318,-1.045 -2.198,-1.125c-5.2,-0.485 -10.572,-0.36 -16.117,0.375c-0.245,0.035 -0.255,0.107 -0.03,0.217c9.655,4.7 16.07,12.1 19.245,22.2c0.008,0.025 0.014,0.05 0.019,0.076c0.071,0.363 -0.17,0.721 -0.534,0.791c-0.025,0.005 -0.051,0.009 -0.078,0.011c-3.355,0.28 -6.562,-0.078 -9.622,-1.073c-2.725,-0.88 -5.323,-2.117 -7.793,-3.712c-1.65,-1.06 -3.155,-2.3 -4.515,-3.72c-0.92,-0.97 -2.032,-2.55 -3.337,-4.74c-1.77,-2.97 -3.68,-5.833 -5.73,-8.588c-0.218,-0.293 -0.559,-0.468 -0.923,-0.472c-6.045,-0.11 -12.047,0.307 -18.007,1.252c-0.245,0.04 -0.248,0.093 -0.008,0.158c1.1,0.305 1.853,0.585 2.258,0.84c5.495,3.46 10.11,7.845 13.845,13.155c0.43,0.615 0.682,1.225 0.757,1.83c0.004,0.03 0.005,0.061 0.003,0.091c-0.017,0.259 -0.247,0.457 -0.51,0.44c-0.029,-0.002 -0.057,-0.007 -0.085,-0.014c-3.705,-0.935 -7.09,-2.215 -10.155,-3.84c-2.125,-1.125 -4.05,-3.06 -5.775,-5.805c-0.965,-1.53 -2.585,-3.142 -4.86,-4.837c-0.186,-0.143 -0.433,-0.195 -0.675,-0.143c-5.92,1.225 -10.998,1.995 -15.233,2.31c-8.255,0.62 -15.572,1.595 -21.952,2.925c-0.246,0.052 -0.491,-0 -0.668,-0.142c-0.635,-0.505 -0.767,-1.123 -0.397,-1.853c0.1,-0.199 0.307,-0.348 0.562,-0.405c6.53,-1.5 13.138,-2.53 19.823,-3.09c5.45,-0.46 11.765,-1.605 18.945,-3.435c0.98,-0.25 1.802,-0.567 2.467,-0.952c0.575,-0.33 1.155,-0.96 1.74,-1.89c3.85,-6.06 8.17,-11.765 12.96,-17.115c1.84,-2.05 4.13,-3.28 6.87,-3.69c2.23,-0.335 4.408,-0.89 6.533,-1.665c1.18,-0.435 1.482,-0.093 0.907,1.027c-0.805,1.55 -1.91,3.038 -3.315,4.463c-0.905,0.925 -1.535,2.01 -1.89,3.255c-1.68,5.965 -5.302,10.82 -10.867,14.565c-0.215,0.145 -0.193,0.207 0.067,0.187c12.97,-1.145 25.75,-1.727 38.34,-1.747c0.24,-0.001 0.47,-0.101 0.638,-0.278c1.435,-1.51 2.952,-2.925 4.552,-4.245c2.475,-2.04 4.095,-3.325 4.86,-3.855c3.51,-2.425 7.538,-3.49 12.083,-3.195c1.32,0.085 4.255,0.318 8.805,0.698c2.89,0.24 5.337,0.812 7.342,1.717c0.235,0.105 0.243,0.223 0.023,0.353c-6.135,3.74 -12.523,6.987 -19.163,9.742c-0.23,0.095 -0.222,0.163 0.023,0.203c2.38,0.37 6.93,0.865 13.65,1.485c1.645,0.15 2.79,-0.32 3.435,-1.41c1.595,-2.685 3.292,-5.305 5.092,-7.86c4.55,-6.465 10.77,-10.313 18.66,-11.543c1.12,-0.175 1.26,0.153 0.42,0.983c-2.775,2.755 -5.175,5.802 -7.2,9.142c-2.925,4.83 -6.84,8.66 -11.745,11.49c-0.665,0.385 -0.627,0.643 0.113,0.773l14.377,2.565c0.785,0.14 1.485,-0.095 2.1,-0.705c3.845,-3.8 7.568,-7.68 11.168,-11.64c1.945,-2.135 3.96,-3.945 6.045,-5.43c1.92,-1.37 4.275,-2.453 7.065,-3.248c2.465,-0.705 5.02,-1.287 7.665,-1.747c0.029,-0.005 0.058,-0.007 0.088,-0.005c0.201,0.014 0.355,0.192 0.341,0.393c-0.002,0.028 -0.008,0.057 -0.017,0.084c-1.19,3.775 -2.525,7.44 -4.005,10.995c-1.15,2.75 -2.97,4.935 -5.46,6.555c-3.765,2.45 -7.755,4.468 -11.97,6.053c-0.54,0.2 -0.52,0.31 0.06,0.33c3.715,0.1 7.473,0.215 11.273,0.345c1.485,0.05 2.762,-0.188 3.832,-0.713c1.86,-0.905 3.388,-2.067 4.583,-3.487c5,-5.92 11.282,-8.92 18.847,-9c0.017,-0 0.034,0.001 0.05,0.005c0.133,0.028 0.219,0.163 0.19,0.3c-0.003,0.016 -0.008,0.032 -0.015,0.047c-0.675,1.59 -1.447,3.125 -2.317,4.605c-1.21,2.055 -2.138,3.495 -2.783,4.32c-1.16,1.5 -2.59,2.788 -4.29,3.863c-0.785,0.49 -0.72,0.672 0.195,0.547Zm49.14,13.425c-0.005,-0.19 0.058,-0.357 0.188,-0.502c0.615,-0.22 0.605,-0.605 -0.03,-1.155c0.075,-0.67 -0.033,-0.895 -0.323,-0.675c-0.191,0.145 -0.417,0.196 -0.6,0.135l-1.11,-0.368l-1.125,0c-0.29,-0.22 -0.575,-0.44 -0.855,-0.66c-0.68,-0.535 -0.922,-0.557 -0.727,-0.067c0.062,0.152 0.218,0.286 0.427,0.367c0.48,0.195 0.813,0.555 0.998,1.08c-0.065,0.715 0.315,1.325 1.14,1.83c1.73,1.06 2.96,1.76 3.69,2.1c0.25,0.115 0.33,0.045 0.24,-0.21c-0.315,-0.905 -0.953,-1.53 -1.913,-1.875Zm-6.937,-8.812l0.03,-0.533c3.28,0.45 3.582,-0.237 0.907,-2.062c-1.45,-0.99 -2.865,-1.31 -4.245,-0.96c-0.825,0.21 -1.25,0.317 -1.275,0.322c-0.91,0.16 -1.82,0.32 -2.73,0.48c-1.945,-0.735 -1.955,-0.62 -0.03,0.345c3.45,1.135 6.448,2.955 8.993,5.46c0.79,0.775 1.497,1.293 2.122,1.553c0.775,0.32 1.635,0.567 2.58,0.742c0.33,0.06 0.395,-0.047 0.195,-0.322c-0.545,-0.735 -0.985,-1.453 -1.32,-2.153c-0.71,-1.485 -1.89,-2.245 -3.54,-2.28c-0.355,-0.01 -0.917,-0.207 -1.687,-0.592Zm-12.563,-3.128c-2.505,0.905 -5.067,1.155 -7.687,0.75c-2.04,-0.115 -2.04,0.053 -0,0.503l8.625,2.437c1.595,0.51 2.98,1.333 4.155,2.468c0.01,0.285 -0.078,0.362 -0.263,0.232c-0.44,-0.31 -1.487,-0.71 -3.142,-1.2l-4.095,-1.47c-0.865,-0.645 -1.563,-0.957 -2.093,-0.937c-0.715,0.025 -0.75,0.165 -0.105,0.42c0.72,0.28 1.433,0.577 2.138,0.892l3.967,1.845l4.688,1.5l9.022,3.585c0.26,0.1 0.31,0.035 0.15,-0.195c-2.715,-3.85 -5.847,-6.587 -9.397,-8.212c-1.375,-0.635 -2.608,-1.478 -3.698,-2.528c-0.375,-0.365 -0.725,-0.545 -1.05,-0.54c-0.425,0 -0.83,0.15 -1.215,0.45Zm3.758,-2.04c-0.455,0.755 -0.308,0.9 0.442,0.435c1.205,-0.75 2.433,-1.21 3.683,-1.38c0.28,-0.042 0.503,-0.169 0.592,-0.337c0.145,-0.3 -0.125,-0.408 -0.81,-0.323c-0.23,0.025 -0.467,0.03 -0.712,0.015c-1.44,-0.095 -2.505,0.435 -3.195,1.59Zm-10.463,14.528c-0.895,-0.97 -4.145,-3.783 -9.75,-8.438c-0.69,-0.58 -1.382,-0.96 -2.077,-1.14c-0.255,-0.07 -0.29,-0.007 -0.105,0.188c1.265,1.335 2.45,2.735 3.555,4.2c1.42,1.885 2.592,3.282 3.517,4.192c3.325,3.245 6.84,6.13 10.545,8.655c0.75,0.51 0.858,0.398 0.323,-0.337c-1.86,-2.565 -3.863,-5.005 -6.008,-7.32Zm-0.697,-13.26c2.285,-0.345 4.25,-0.438 5.895,-0.278c0.66,0.065 0.967,-0.042 0.922,-0.322c-0.029,-0.197 -0.251,-0.356 -0.532,-0.383c-2.585,-0.225 -4.718,-0.05 -6.398,0.525c-1.625,0.56 -1.587,0.713 0.113,0.458Zm4.799,14.936c0.08,-0.077 0.083,-0.206 0.006,-0.286l-6.614,-6.897c-0.076,-0.08 -0.206,-0.083 -0.286,-0.006l-0.184,0.177c-0.08,0.077 -0.083,0.206 -0.006,0.286l6.614,6.896c0.076,0.081 0.206,0.083 0.286,0.006l0.184,-0.176Zm-15.643,-6.053c0.086,-0.064 0.104,-0.187 0.041,-0.273l-4.381,-5.92c-0.037,-0.05 -0.095,-0.079 -0.157,-0.079c-0.042,-0 -0.082,0.013 -0.116,0.038l-0.024,0.018c-0.086,0.063 -0.104,0.186 -0.041,0.272l4.381,5.921c0.037,0.05 0.095,0.079 0.157,0.079c0.042,-0 0.082,-0.014 0.116,-0.038l0.024,-0.018Zm-8.754,-18.671c-0.68,-0.27 -1.297,-0.235 -1.852,0.105c-0.525,0.32 -0.808,0.49 -0.848,0.51c-1.17,0.55 -2.245,1.185 -3.225,1.905c-0.64,0.47 -0.567,0.7 0.218,0.69l1.77,-0.022l1.125,-0c0.265,0.12 0.4,0.317 0.405,0.592l-3.593,1.905c-2.665,0.37 -5.122,1.29 -7.372,2.76c-0.22,0.145 -0.2,0.218 0.06,0.218c2.835,0.01 5.46,-0.733 7.875,-2.228c2.55,-1.31 4.425,-2.57 5.625,-3.78c0.96,-0.97 0.897,-1.855 -0.188,-2.655Zm-7.545,4.373c-0.275,0.03 -0.537,0.1 -0.787,0.21c-0.95,0.43 -1.063,0.647 -0.338,0.652c0.49,0 1.193,-0.172 2.108,-0.517c1.15,-0.435 0.822,-0.55 -0.983,-0.345Zm-7.665,-14.115c0.34,-0.59 0.22,-0.843 -0.36,-0.758c-1.925,0.275 -3.765,0.825 -5.52,1.65c-0.183,0.088 -0.294,0.246 -0.262,0.375c0.035,0.135 0.167,0.173 0.397,0.113c1.65,-0.4 3.248,-0.66 4.793,-0.78c0.397,-0.028 0.755,-0.254 0.952,-0.6Zm-10.102,5.49l-4.5,2.812c-0.47,0.145 -0.783,0.438 -0.938,0.878l-0.562,0.375c-1.445,1.18 -2.773,2.05 -3.983,2.61c-0.73,0.335 -1.215,0.777 -1.455,1.327l-4.462,3.09c-0.6,0.41 -0.528,0.633 0.217,0.668l4.245,0.18c1.155,0.415 2.34,0.565 3.555,0.45c0.215,-0.02 0.22,-0.065 0.015,-0.135c-0.58,-0.195 -0.895,-0.593 -0.945,-1.193c2.705,-0.82 5.268,-1.965 7.688,-3.435l4.065,-2.782c1.025,-0.705 0.937,-0.898 -0.263,-0.578l-4.177,1.11l-8.625,2.685l-0.158,-0.03c-0.25,-0.38 0.478,-0.857 2.183,-1.432c0.319,-0.108 0.604,-0.305 0.825,-0.57c0.515,-0.625 1.137,-0.818 1.867,-0.578c0.269,0.089 0.524,0.078 0.683,-0.03l1.912,-1.297c1.37,-0.16 2.745,-0.308 4.125,-0.443c0.185,-0.015 0.325,-0.075 0.42,-0.18c0.205,-0.225 0.13,-0.352 -0.225,-0.382c-1.615,-0.15 -3.18,0.06 -4.695,0.63l-0.157,-0.03c-0.19,-0.21 -0.263,-0.45 -0.218,-0.72l2.438,-0.623c1.245,-0.05 3.072,-0.275 5.482,-0.675c1.595,-0.265 2.643,-1.082 3.143,-2.452c0.355,-0.165 0.575,-0.408 0.66,-0.728c0.003,-0.011 0.005,-0.022 0.007,-0.033c0.024,-0.172 -0.115,-0.334 -0.306,-0.361c-0.013,-0.002 -0.026,-0.003 -0.039,-0.003c-2.78,-0.085 -5.387,0.54 -7.822,1.875Zm-0.255,37.897c0.885,3.41 1.09,3.363 0.615,-0.142c-0.02,-0.165 -0.08,-0.305 -0.18,-0.42c-0.565,-0.69 -0.71,-0.503 -0.435,0.562Zm-3.338,-3.615l-0.907,0.03l-2.318,-1.717c-0.149,-0.108 -0.298,-0.156 -0.39,-0.128c-0.145,0.04 -0.135,0.17 0.03,0.39c1.83,2.365 3.613,4.763 5.348,7.193c0.455,0.635 0.627,0.587 0.517,-0.143l-0.862,-5.625c-0.042,-0.261 -0.206,-0.47 -0.42,-0.532c-0.43,-0.13 -0.763,0.047 -0.998,0.532Zm-3.12,-7.5c-1.55,-0.285 -3.13,-0.772 -4.74,-1.462c-0.29,-0.125 -0.35,-0.055 -0.18,0.21c1.01,1.565 2.07,3.065 3.18,4.5c0.68,0.87 1.315,1.44 1.905,1.71c0.9,0.41 1.81,0.437 2.73,0.082c0.025,-0.009 0.05,-0.02 0.074,-0.031c0.522,-0.244 0.778,-0.818 0.565,-1.273c-0.009,-0.021 -0.02,-0.041 -0.031,-0.061l-2.033,-3.525c-0.092,-0.163 -0.336,-0.234 -0.592,-0.172c-0.285,0.07 -0.578,0.077 -0.878,0.022Zm-4.912,-6.78l-4.208,-2.437c-0.4,-0.23 -0.49,-0.143 -0.27,0.262l0.915,1.673c0.18,1.125 0.858,1.802 2.033,2.032c1.31,1.54 2.945,2.53 4.905,2.97c0.47,0.35 0.97,0.548 1.5,0.593c0.265,0.02 0.335,-0.093 0.21,-0.338c-1.115,-2.165 -2.81,-3.75 -5.085,-4.755Zm2.032,14.28l-1.44,-1.875l-1.687,-2.437c-1.34,-2.68 -2.053,-4.915 -2.138,-6.705c-0.025,-0.5 -0.14,-0.783 -0.345,-0.848c-0.015,-0.005 -0.03,-0.009 -0.046,-0.01c-0.147,-0.013 -0.284,0.159 -0.304,0.38c-0.002,0.022 -0.002,0.044 -0.002,0.065c0.095,2.69 0.852,5.188 2.272,7.493l1.313,2.812l0.562,1.688c0.16,0.37 0.39,0.682 0.69,0.937c0.265,0.79 0.708,1.078 1.328,0.863c0.221,-0.076 0.372,-0.29 0.375,-0.533c0.015,-0.665 -0.178,-1.275 -0.578,-1.83Zm-14.677,-40.38c-0.95,1.845 -1.8,3.735 -2.55,5.67c-0.13,0.345 -0.103,0.358 0.082,0.038l3.765,-6.435c0.185,-0.31 0.11,-0.388 -0.225,-0.233c-0.505,0.23 -0.862,0.55 -1.072,0.96Zm-8.168,9.6c-0.9,0.225 -1.597,0.735 -2.092,1.53c-2,1.335 -1.99,1.513 0.03,0.533c0.945,-0.415 1.705,-1.03 2.28,-1.845c2.305,-0.695 2.232,-0.768 -0.218,-0.218Zm-14.01,-7.192c-1.52,-0.095 -3.037,-0.085 -4.552,0.03c-1.315,0.105 -2.79,0.4 -4.425,0.885c-2.05,0.605 -4.09,1.252 -6.12,1.942c-0.009,0.003 -0.018,0.007 -0.027,0.011c-0.174,0.073 -0.274,0.237 -0.221,0.362c0.002,0.006 0.005,0.012 0.008,0.017c0.07,0.115 0.22,0.13 0.45,0.045c1.465,-0.54 2.975,-0.75 4.53,-0.63c4.42,0.34 8.865,-0.385 13.335,-2.175c0.55,-0.22 0.527,-0.337 -0.068,-0.352c-0.85,-0.025 -1.82,-0.07 -2.91,-0.135Zm-5.445,5.205c1.06,-0.4 0.933,-0.485 -0.382,-0.255c-0.5,0.09 -0.535,0.195 -0.105,0.315c0.13,0.035 0.292,0.015 0.487,-0.06Zm-1.408,-0.814c0.106,-0.001 0.194,-0.089 0.194,-0.195l-0.001,-0.046c-0,-0.107 -0.088,-0.194 -0.195,-0.194c-0,-0 -0,-0 -0.001,-0l-7.23,0.038c-0.106,0 -0.194,0.088 -0.194,0.195l0.001,0.046c0,0.106 0.088,0.194 0.195,0.194c-0,-0 0,-0 0.001,-0l7.23,-0.038Zm-12.849,3.439c3.72,-0.4 7.4,-1.04 11.04,-1.92c1.665,-0.405 1.64,-0.59 -0.075,-0.555c-0.995,0.025 -2.068,0.097 -3.218,0.217c-0.04,0.005 -0.862,0.063 -2.467,0.173c-1.96,0.135 -3.758,0.727 -5.393,1.777c-0.4,0.26 -0.362,0.363 0.113,0.308Zm8.585,19.787c0,-0 0,-0 0,-0c0.186,-0.122 -0.629,-1.69 -1.804,-3.473c-0,0 -0,0 -0,0c-1.176,-1.782 -2.296,-3.149 -2.481,-3.026c-0,-0 -0,-0 -0,-0c-0.186,0.122 0.629,1.689 1.804,3.472c0,0 0,0 0,0c1.176,1.783 2.296,3.149 2.481,3.027Zm-11.135,-13.217c-0.91,-0.855 -1.098,-0.72 -0.563,0.405c0.535,1.13 1.623,2.18 3.263,3.15c0.203,0.118 0.339,0.327 0.367,0.562c0.23,1.845 1.048,3.285 2.453,4.32c0.28,0.21 0.525,0.455 0.735,0.735c1.03,1.395 1.702,2.195 2.017,2.4c0.45,0.3 0.433,0.155 -0.052,-0.435l-2.475,-3.03c-0.141,-0.175 -0.217,-0.405 -0.218,-0.652c0,-1.17 -0.377,-2.175 -1.132,-3.015c-1.245,-1.38 -2.71,-2.86 -4.395,-4.44Zm-1.065,-8.355c0.81,-0.815 0.65,-1.373 -0.48,-1.673c-0.015,-0.004 -0.029,-0.007 -0.044,-0.01c-0.26,-0.047 -0.511,0.128 -0.558,0.388c-0.002,0.014 -0.004,0.028 -0.006,0.042c-0.165,1.845 0.01,2.473 0.525,1.883c0.295,-0.34 0.483,-0.55 0.563,-0.63Zm-25.643,12.427c-1.395,-1.07 -2.792,-2.132 -4.192,-3.187c-0.4,-0.3 -0.605,-0.325 -0.615,-0.075c-0.01,0.16 0.087,0.354 0.262,0.525c1.275,1.23 2.718,2.215 4.328,2.955c3.15,1.65 5.84,3.83 8.07,6.54c0.755,0.915 1.535,1.612 2.34,2.092c6.805,4.04 7.43,2.61 1.875,-4.29c-0.156,-0.195 -0.363,-0.336 -0.593,-0.405c-1.53,-0.475 -3.1,-0.75 -4.71,-0.825c-0.83,-0.04 -3.085,-1.15 -6.765,-3.33Zm5.97,5.97c-0.405,-0.415 -0.83,-0.812 -1.275,-1.192c-0.19,-0.165 -0.4,-0.27 -0.63,-0.315c-0.79,-0.155 -0.937,0.09 -0.442,0.735c0.125,0.164 0.341,0.292 0.607,0.36c0.62,0.155 1.128,0.49 1.523,1.005c0.42,0.695 0.892,1.355 1.417,1.98c0.03,0.035 0.258,0.41 0.683,1.125c0.27,0.455 0.72,0.78 1.35,0.975c0.46,0.14 1.867,0.747 4.222,1.822c0.565,0.255 0.838,0.175 0.818,-0.24c-0.013,-0.207 -0.184,-0.396 -0.428,-0.472c-3.265,-1.035 -5.88,-2.963 -7.845,-5.783Zm-1.312,-7.125c-2.74,-1.835 -5.738,-3.025 -8.993,-3.57c-0.29,-0.05 -0.555,-0.032 -0.795,0.053c-0.28,0.1 -0.27,0.182 0.03,0.247c1.48,0.34 2.805,1.003 3.975,1.988c0.22,0.385 0.523,0.687 0.908,0.907l1.095,0.03c0.27,0.605 0.707,0.98 1.312,1.125c0.16,0.165 0.348,0.29 0.563,0.375l7.027,2.76c0.097,0.042 0.196,0.039 0.255,-0.007c0.075,-0.055 0.063,-0.125 -0.037,-0.21c-1.68,-1.375 -3.46,-2.608 -5.34,-3.698Zm-0.375,8.73c-0.92,-0.98 -1.818,-1.982 -2.693,-3.007c-0.18,-0.205 -0.382,-0.365 -0.607,-0.48c-1.76,-0.865 -1.853,-0.473 -0.278,1.177c1.51,1.59 3.213,2.945 5.108,4.065c0.465,0.275 0.677,0.28 0.637,0.015c-0.02,-0.12 -0.092,-0.232 -0.217,-0.337c-0.315,-0.255 -0.645,-0.488 -0.99,-0.698c-0.4,-0.235 -0.72,-0.48 -0.96,-0.735Zm-3.098,-12.097c-0.235,-0.445 -0.492,-0.495 -0.772,-0.15c-0.007,0.008 -0.013,0.016 -0.018,0.025c-0.079,0.126 -0.02,0.306 0.13,0.4c0.01,0.006 0.02,0.012 0.03,0.017l0.975,0.465c0.244,0.119 0.49,0.149 0.675,0.083c0.69,-0.255 0.525,-0.413 -0.495,-0.473c-0.217,-0.013 -0.418,-0.154 -0.525,-0.367Zm-14.715,-17.385l-2.437,2.565c-1.325,0.235 -1.443,0.605 -0.353,1.11c1.72,0.8 2.993,0.392 3.818,-1.223c0.54,-1.055 1.017,-2.222 1.432,-3.502c0.205,-0.625 0.038,-0.743 -0.502,-0.353l-1.958,1.403Zm-6,7.687c-0.75,0.24 -1.125,0.783 -1.125,1.628c-1.71,0.54 -3.077,1.51 -4.102,2.91c-0.15,0.21 -0.1,0.28 0.15,0.21c1.845,-0.525 3.537,-1.378 5.077,-2.558c0.54,-0.335 0.915,-0.815 1.125,-1.44c1.245,-0.735 2.448,-1.54 3.608,-2.415c0.44,-0.33 0.477,-0.517 0.112,-0.562c-0.113,-0.014 -0.315,0.044 -0.547,0.157l-4.298,2.07Zm0.285,20.543c-0.905,-1.23 -1.045,-1.015 -0.42,0.645c0.088,0.224 0.248,0.416 0.458,0.547c2.47,1.56 2.562,1.283 0.277,-0.832c-0.115,-0.11 -0.22,-0.23 -0.315,-0.36Zm-5.347,-4.665c-2.415,-1.585 -2.415,-1.398 -0,0.562c1.02,1.05 2.202,1.87 3.547,2.46c0.245,0.11 0.28,0.06 0.105,-0.15c-1.005,-1.22 -2.222,-2.177 -3.652,-2.872Zm-0.511,2.277c0,-0 0,-0 0,-0c0.169,-0.066 0.193,-0.414 0.053,-0.77c0,-0 0,-0 0,-0c-0.139,-0.356 -0.393,-0.595 -0.561,-0.529c-0.001,-0 -0.001,-0 -0.001,-0c-0.168,0.066 -0.192,0.413 -0.052,0.77c-0,-0 -0,-0 -0,-0c0.139,0.356 0.393,0.595 0.561,0.529Z" style="fill:#111110;fill-rule:nonzero;"/><path d="M263.788,48.371l0.345,-0.03l2.812,1.875c0.96,0.345 1.598,0.97 1.913,1.875c0.09,0.255 0.01,0.325 -0.24,0.21c-0.73,-0.34 -1.96,-1.04 -3.69,-2.1c-0.825,-0.505 -1.205,-1.115 -1.14,-1.83Z" style="fill:#fcfcfc;fill-rule:nonzero;"/><path d="M267.133,49.714c-0.25,-0.145 -0.448,-0.343 -0.593,-0.593c-0.07,-0.47 0.118,-0.657 0.563,-0.562c0.635,0.55 0.645,0.935 0.03,1.155Z" style="fill:#c0bebf;fill-rule:nonzero;"/><path d="M267.103,48.559c-0.445,-0.095 -0.633,0.092 -0.563,0.562c-0.655,-0.355 -1.145,-0.845 -1.47,-1.47l1.11,0.368c0.183,0.061 0.409,0.01 0.6,-0.135c0.29,-0.22 0.398,0.005 0.323,0.675Z" style="fill:#6e6c6e;fill-rule:nonzero;"/><path d="M267.133,49.714c-0.13,0.145 -0.193,0.312 -0.188,0.502l-2.812,-1.875l-0.188,-0.69l1.125,0c0.325,0.625 0.815,1.115 1.47,1.47c0.145,0.25 0.343,0.448 0.593,0.593Z" style="fill:#2f2f2f;fill-rule:nonzero;"/><path d="M252.665,38.996l0.03,-0.345c0.91,-0.16 1.82,-0.32 2.73,-0.48c0.025,-0.005 0.45,-0.112 1.275,-0.322c1.38,-0.35 2.795,-0.03 4.245,0.96c2.675,1.825 2.373,2.512 -0.907,2.062c-0.145,-0.15 -0.218,-0.327 -0.218,-0.532c0.275,-0.07 0.47,-0.198 0.585,-0.383c0.005,-0.007 0.009,-0.014 0.012,-0.021c0.078,-0.159 -0.016,-0.367 -0.208,-0.461c-0.01,-0.005 -0.019,-0.009 -0.029,-0.013c-1.335,-0.535 -2.642,-0.752 -3.922,-0.652c-0.315,0.025 -0.498,0.135 -0.548,0.33c-0.056,0.229 0.104,0.472 0.36,0.547l2.625,0.78l1.313,0.938c0.77,0.385 1.332,0.582 1.687,0.592c1.65,0.035 2.83,0.795 3.54,2.28c0.335,0.7 0.775,1.418 1.32,2.153c0.2,0.275 0.135,0.382 -0.195,0.322c-0.945,-0.175 -1.805,-0.422 -2.58,-0.742c-0.625,-0.26 -1.332,-0.778 -2.122,-1.553c-2.545,-2.505 -5.543,-4.325 -8.993,-5.46Zm10.605,4.178c-0.425,-0.295 -0.807,-0.325 -1.147,-0.09c-0.023,0.016 -0.043,0.034 -0.061,0.055c-0.115,0.135 -0.098,0.34 0.037,0.455c0.021,0.018 0.044,0.033 0.069,0.045c0.41,0.2 0.767,0.217 1.072,0.052c0.021,-0.011 0.041,-0.025 0.058,-0.041c0.125,-0.113 0.138,-0.307 0.027,-0.429c-0.016,-0.018 -0.034,-0.034 -0.055,-0.047Z" style="fill:#e8e7e8;fill-rule:nonzero;"/><path d="M264.133,48.341l-0.345,0.03c-0.185,-0.525 -0.518,-0.885 -0.998,-1.08c-0.209,-0.081 -0.365,-0.215 -0.427,-0.367c-0.195,-0.49 0.047,-0.468 0.727,0.067c0.28,0.22 0.565,0.44 0.855,0.66l0.188,0.69Z" style="fill:#8a898a;fill-rule:nonzero;"/><path d="M263.27,43.174c0.021,0.013 0.039,0.029 0.055,0.047c0.111,0.122 0.098,0.316 -0.027,0.429c-0.017,0.016 -0.037,0.03 -0.058,0.041c-0.305,0.165 -0.662,0.148 -1.072,-0.052c-0.025,-0.012 -0.048,-0.027 -0.069,-0.045c-0.135,-0.115 -0.152,-0.32 -0.037,-0.455c0.018,-0.021 0.038,-0.039 0.061,-0.055c0.34,-0.235 0.722,-0.205 1.147,0.09Z" style="fill:#999898;fill-rule:nonzero;"/><path d="M253.633,45.716c0.01,-0.71 -0.355,-1.137 -1.095,-1.282c-1.175,-1.135 -2.56,-1.958 -4.155,-2.468l-0.938,-3.69c0.385,-0.3 0.79,-0.45 1.215,-0.45c0.325,-0.005 0.675,0.175 1.05,0.54c1.09,1.05 2.323,1.893 3.698,2.528c3.55,1.625 6.682,4.362 9.397,8.212c0.16,0.23 0.11,0.295 -0.15,0.195l-9.022,-3.585Zm-0.57,-3.93c-2.505,-0.055 -3.045,0.168 -1.62,0.668c0.19,0.07 0.477,0.2 0.862,0.39c0.675,0.345 1.088,0.197 1.238,-0.443c0.004,-0.017 0.007,-0.034 0.009,-0.051c0.034,-0.274 -0.164,-0.526 -0.438,-0.56c-0.017,-0.002 -0.034,-0.003 -0.051,-0.004Z" style="fill:#e8e7e8;fill-rule:nonzero;"/><path d="M259.82,40.339c-0.415,-0.115 -0.79,-0.073 -1.125,0.127l-2.625,-0.78c-0.256,-0.075 -0.416,-0.318 -0.36,-0.547c0.05,-0.195 0.233,-0.305 0.548,-0.33c1.28,-0.1 2.587,0.117 3.922,0.652c0.01,0.004 0.019,0.008 0.029,0.013c0.192,0.094 0.286,0.302 0.208,0.461c-0.003,0.007 -0.007,0.014 -0.012,0.021c-0.115,0.185 -0.31,0.313 -0.585,0.383Z" style="fill:#1f1e1d;fill-rule:nonzero;"/><path d="M260.038,40.871l-0.03,0.533l-1.313,-0.938c0.335,-0.2 0.71,-0.242 1.125,-0.127c0,0.205 0.073,0.382 0.218,0.532Z" style="fill:#aba9a9;fill-rule:nonzero;"/><path d="M251.203,36.236c0.69,-1.155 1.755,-1.685 3.195,-1.59c0.245,0.015 0.482,0.01 0.712,-0.015c0.685,-0.085 0.955,0.023 0.81,0.323c-0.089,0.168 -0.312,0.295 -0.592,0.337c-1.25,0.17 -2.478,0.63 -3.683,1.38c-0.75,0.465 -0.897,0.32 -0.442,-0.435Z" style="fill:#f5f5f5;fill-rule:nonzero;"/><path d="M253.063,41.786c0.017,0.001 0.034,0.002 0.051,0.004c0.274,0.034 0.472,0.286 0.438,0.56c-0.002,0.017 -0.005,0.034 -0.009,0.051c-0.15,0.64 -0.563,0.788 -1.238,0.443c-0.385,-0.19 -0.672,-0.32 -0.862,-0.39c-1.425,-0.5 -0.885,-0.723 1.62,-0.668Z" style="fill:#aba9a9;fill-rule:nonzero;"/><path d="M253.633,45.716l-4.688,-1.5c-0.085,-0.325 -0.022,-0.575 0.188,-0.75c1.655,0.49 2.702,0.89 3.142,1.2c0.185,0.13 0.273,0.053 0.263,-0.232c0.74,0.145 1.105,0.572 1.095,1.282Z" style="fill:#aba9a9;fill-rule:nonzero;"/><path d="M252.695,38.651l-0.03,0.345c-1.925,-0.965 -1.915,-1.08 0.03,-0.345Z" style="fill:#8a898a;fill-rule:nonzero;"/><path d="M249.133,43.466c-0.21,0.175 -0.273,0.425 -0.188,0.75l-3.967,-1.845l0.06,-0.375l4.095,1.47Z" style="fill:#7d7c7d;fill-rule:nonzero;"/><path d="M248.383,41.966l-8.625,-2.437l-0,-0.503c2.62,0.405 5.182,0.155 7.687,-0.75l0.938,3.69Z" style="fill:#cfcdce;fill-rule:nonzero;"/><path d="M240.74,50.764c2.145,2.315 4.148,4.755 6.008,7.32c0.535,0.735 0.427,0.847 -0.323,0.337c-3.705,-2.525 -7.22,-5.41 -10.545,-8.655c-0.925,-0.91 -2.097,-2.307 -3.517,-4.192c-1.105,-1.465 -2.29,-2.865 -3.555,-4.2c-0.185,-0.195 -0.15,-0.258 0.105,-0.188c0.695,0.18 1.387,0.56 2.077,1.14c5.605,4.655 8.855,7.468 9.75,8.438Z" style="fill:#f3f3f3;fill-rule:nonzero;"/><path d="M240.043,37.504c-1.7,0.255 -1.738,0.102 -0.113,-0.458c1.68,-0.575 3.813,-0.75 6.398,-0.525c0.281,0.027 0.503,0.186 0.532,0.383c0.045,0.28 -0.262,0.387 -0.922,0.322c-1.645,-0.16 -3.61,-0.067 -5.895,0.278Z" style="fill:#c0bebf;fill-rule:nonzero;"/><path d="M245.038,41.996l-0.06,0.375c-0.705,-0.315 -1.418,-0.612 -2.138,-0.892c-0.645,-0.255 -0.61,-0.395 0.105,-0.42c0.53,-0.02 1.228,0.292 2.093,0.937Z" style="fill:#5b595a;fill-rule:nonzero;"/><path d="M244.842,52.44c0.081,-0.077 0.083,-0.206 0.006,-0.286l-6.614,-6.897c-0.077,-0.081 -0.205,-0.083 -0.286,-0.006l-0.184,0.177c-0.081,0.077 -0.083,0.205 -0.006,0.286l6.614,6.896c0.077,0.081 0.205,0.084 0.286,0.006l0.184,-0.176Z" style="fill:#5b595a;"/><path d="M239.758,39.026l-0,0.503c-2.04,-0.45 -2.04,-0.618 -0,-0.503Z" style="fill:#7d7c7d;fill-rule:nonzero;"/><path d="M229.199,46.387c0.086,-0.064 0.105,-0.186 0.041,-0.273l-4.381,-5.92c-0.064,-0.087 -0.186,-0.105 -0.273,-0.041l-0.024,0.018c-0.087,0.064 -0.105,0.186 -0.041,0.272l4.381,5.921c0.064,0.086 0.186,0.105 0.273,0.041l0.024,-0.018Z" style="fill:#d8d7d7;"/><path d="M215.008,34.151c-0.38,-0.105 -0.568,-0.355 -0.563,-0.75l3.593,-1.905c0.845,-0.63 1.6,-1.365 2.265,-2.205c0.215,-0.275 0.19,-0.54 -0.075,-0.795c-0.05,-0.335 0.022,-0.595 0.217,-0.78c1.085,0.8 1.148,1.685 0.188,2.655c-1.2,1.21 -3.075,2.47 -5.625,3.78Z" style="fill:#f3f3f3;fill-rule:nonzero;"/><path d="M220.445,27.716c-0.195,0.185 -0.267,0.445 -0.217,0.78c-1.5,0.13 -2.795,0.703 -3.885,1.718c-0.28,0.26 -0.225,0.385 0.165,0.375l-0,0.315l-1.77,0.022c-0.785,0.01 -0.858,-0.22 -0.218,-0.69c0.98,-0.72 2.055,-1.355 3.225,-1.905c0.04,-0.02 0.323,-0.19 0.848,-0.51c0.555,-0.34 1.172,-0.375 1.852,-0.105Z" style="fill:#cfcdce;fill-rule:nonzero;"/><path d="M218.038,31.496c-0.005,-0.275 -0.14,-0.472 -0.405,-0.592c-0.12,-0.68 -0.495,-0.785 -1.125,-0.315c-0.39,0.01 -0.445,-0.115 -0.165,-0.375c1.09,-1.015 2.385,-1.588 3.885,-1.718c0.265,0.255 0.29,0.52 0.075,0.795c-0.665,0.84 -1.42,1.575 -2.265,2.205Z" style="fill:#3e3d3d;fill-rule:nonzero;"/><path d="M217.633,30.904l-1.125,-0l-0,-0.315c0.63,-0.47 1.005,-0.365 1.125,0.315Z" style="fill:#aba9a9;fill-rule:nonzero;"/><path d="M215.008,34.151c-2.415,1.495 -5.04,2.238 -7.875,2.228c-0.26,-0 -0.28,-0.073 -0.06,-0.218c2.25,-1.47 4.707,-2.39 7.372,-2.76c-0.005,0.395 0.183,0.645 0.563,0.75Z" style="fill:#cfcdce;fill-rule:nonzero;"/><path d="M212.9,32.089c1.805,-0.205 2.133,-0.09 0.983,0.345c-0.915,0.345 -1.618,0.517 -2.108,0.517c-0.725,-0.005 -0.612,-0.222 0.338,-0.652c0.25,-0.11 0.512,-0.18 0.787,-0.21Z" style="fill:#3e3d3d;fill-rule:nonzero;"/><path d="M205.235,17.974c-0.197,0.346 -0.555,0.572 -0.952,0.6c-1.545,0.12 -3.143,0.38 -4.793,0.78c-0.23,0.06 -0.362,0.022 -0.397,-0.113c-0.032,-0.129 0.079,-0.287 0.262,-0.375c1.755,-0.825 3.595,-1.375 5.52,-1.65c0.58,-0.085 0.7,0.168 0.36,0.758Z" style="fill:#e8e7e8;fill-rule:nonzero;"/><path d="M202.633,22.714c-0.19,-0.045 -0.378,-0.045 -0.563,-0l-6.75,1.125c-0.175,-0.075 -0.237,-0.2 -0.187,-0.375c2.435,-1.335 5.042,-1.96 7.822,-1.875c0.013,0 0.026,0.001 0.039,0.003c0.191,0.027 0.33,0.189 0.306,0.361c-0.002,0.011 -0.004,0.022 -0.007,0.033c-0.085,0.32 -0.305,0.563 -0.66,0.728Z" style="fill:#e3e2e2;fill-rule:nonzero;"/><path d="M202.633,22.714c-0.5,1.37 -1.548,2.187 -3.143,2.452c-2.41,0.4 -4.237,0.625 -5.482,0.675c-0.1,-0.435 0.025,-0.727 0.375,-0.877l0.937,-0.375c0.675,-0.15 1.345,-0.315 2.01,-0.495c0.345,-0.095 1.02,-0.198 2.025,-0.308c0.985,-0.11 1.89,-0.467 2.715,-1.072c0.185,-0.045 0.373,-0.045 0.563,-0Z" style="fill:#d8d7d7;fill-rule:nonzero;"/><path d="M202.07,22.714c-0.825,0.605 -1.73,0.962 -2.715,1.072c-1.005,0.11 -1.68,0.213 -2.025,0.308c-0.665,0.18 -1.335,0.345 -2.01,0.495c-0.195,-0.125 -0.257,-0.313 -0.187,-0.563c0.11,-0.02 0.172,-0.082 0.187,-0.187l6.75,-1.125Z" style="fill:#1f1e1d;fill-rule:nonzero;"/><path d="M194.008,31.091l-0.218,-0.345c0.95,-0.575 0.96,-0.897 0.03,-0.967c0.315,-0.395 0.253,-0.708 -0.187,-0.938l4.177,-1.11c1.2,-0.32 1.288,-0.127 0.263,0.578l-4.065,2.782Z" style="fill:#999898;fill-rule:nonzero;"/><path d="M192.32,27.589c-0.29,0.02 -0.415,-0.105 -0.375,-0.375c1.515,-0.57 3.08,-0.78 4.695,-0.63c0.355,0.03 0.43,0.157 0.225,0.382c-0.095,0.105 -0.235,0.165 -0.42,0.18c-1.38,0.135 -2.755,0.283 -4.125,0.443Z" style="fill:#aba9a9;fill-rule:nonzero;"/><path d="M194.878,61.361c-0.275,-1.065 -0.13,-1.252 0.435,-0.562c0.1,0.115 0.16,0.255 0.18,0.42c0.475,3.505 0.27,3.552 -0.615,0.142Z" style="fill:#2f2f2f;fill-rule:nonzero;"/><path d="M195.32,23.839c-0.015,0.105 -0.077,0.167 -0.187,0.187c-0.775,0.18 -1.025,0.493 -0.75,0.938c-0.35,0.15 -0.475,0.442 -0.375,0.877l-2.438,0.623l-0.562,0.187c-0.175,-0.075 -0.3,-0.2 -0.375,-0.375l4.5,-2.812c-0.05,0.175 0.012,0.3 0.187,0.375Z" style="fill:#c0bebf;fill-rule:nonzero;"/><path d="M195.32,24.589l-0.937,0.375c-0.275,-0.445 -0.025,-0.758 0.75,-0.938c-0.07,0.25 -0.008,0.438 0.187,0.563Z" style="fill:#3e3d3d;fill-rule:nonzero;"/><path d="M193.79,30.746c-2.735,1.01 -5.537,1.75 -8.407,2.22l-0,-0.877l8.437,-2.31c0.93,0.07 0.92,0.392 -0.03,0.967Z" style="fill:#5b595a;fill-rule:nonzero;"/><path d="M193.82,29.779l-8.437,2.31c-0.265,-0.11 -0.39,-0.298 -0.375,-0.563l8.625,-2.685c0.44,0.23 0.502,0.543 0.187,0.938Z" style="fill:#d8d7d7;fill-rule:nonzero;"/><path d="M194.008,31.091c-2.42,1.47 -4.983,2.615 -7.688,3.435l-2.437,0.563c-0.6,0.015 -0.97,-0.203 -1.11,-0.653c-0.059,-0.191 0.065,-0.41 0.285,-0.502l2.325,-0.968c2.87,-0.47 5.672,-1.21 8.407,-2.22l0.218,0.345Z" style="fill:#dfdede;fill-rule:nonzero;"/><path d="M190.633,57.776c1.235,2.055 1.537,2.045 0.907,-0.03c0.235,-0.485 0.568,-0.662 0.998,-0.532c0.214,0.062 0.378,0.271 0.42,0.532l0.862,5.625c0.11,0.73 -0.062,0.778 -0.517,0.143c-1.735,-2.43 -3.518,-4.828 -5.348,-7.193c-0.165,-0.22 -0.175,-0.35 -0.03,-0.39c0.092,-0.028 0.241,0.02 0.39,0.128l2.318,1.717Z" style="fill:#f8f7f8;fill-rule:nonzero;"/><path d="M192.32,27.589l-1.912,1.297c-0.159,0.108 -0.414,0.119 -0.683,0.03c-0.73,-0.24 -1.352,-0.047 -1.867,0.578c-0.221,0.265 -0.506,0.462 -0.825,0.57c-1.705,0.575 -2.433,1.052 -2.183,1.432c-0.37,0.245 -0.755,0.235 -1.155,-0.03c0.24,-0.55 0.725,-0.992 1.455,-1.327c1.21,-0.56 2.538,-1.43 3.983,-2.61c0.975,1.125 1.86,1.01 2.655,-0.345l0.157,0.03c-0.04,0.27 0.085,0.395 0.375,0.375Z" style="fill:#5b595a;fill-rule:nonzero;"/><path d="M188.42,50.246c0.3,0.055 0.593,0.048 0.878,-0.022c0.256,-0.062 0.5,0.009 0.592,0.172l2.033,3.525c0.011,0.02 0.022,0.04 0.031,0.061c0.213,0.455 -0.043,1.029 -0.565,1.273c-0.024,0.011 -0.049,0.022 -0.074,0.031c-0.92,0.355 -1.83,0.328 -2.73,-0.082c-0.59,-0.27 -1.225,-0.84 -1.905,-1.71c-1.11,-1.435 -2.17,-2.935 -3.18,-4.5c-0.17,-0.265 -0.11,-0.335 0.18,-0.21c1.61,0.69 3.19,1.177 4.74,1.462Zm-1.575,2.153c0.59,0.945 0.793,0.847 0.608,-0.293c-0.037,-0.24 -0.158,-0.43 -0.315,-0.495c-0.145,-0.06 -0.263,-0.022 -0.353,0.113c-0.112,0.168 -0.088,0.435 0.06,0.675Z" style="fill:#edeced;fill-rule:nonzero;"/><path d="M190.633,57.776l0.907,-0.03c0.63,2.075 0.328,2.085 -0.907,0.03Z" style="fill:#4b4b4b;fill-rule:nonzero;"/><path d="M191.788,27.184c-0.795,1.355 -1.68,1.47 -2.655,0.345l0.562,-0.375c0.515,0.135 0.953,-0.033 1.313,-0.503l0.562,-0.187c-0.045,0.27 0.028,0.51 0.218,0.72Z" style="fill:#2f2f2f;fill-rule:nonzero;"/><path d="M191.008,26.651c-0.36,0.47 -0.798,0.638 -1.313,0.503c0.155,-0.44 0.468,-0.733 0.938,-0.878c0.075,0.175 0.2,0.3 0.375,0.375Z" style="fill:#7d7c7d;fill-rule:nonzero;"/><path d="M186.883,47.966l-0.375,-1.125l-3.218,-2.782c-0.045,-0.26 0.028,-0.458 0.218,-0.593c2.275,1.005 3.97,2.59 5.085,4.755c0.125,0.245 0.055,0.358 -0.21,0.338c-0.53,-0.045 -1.03,-0.243 -1.5,-0.593Z" style="fill:#e3e2e2;fill-rule:nonzero;"/><path d="M183.695,35.404l0.188,-0.315l2.437,-0.563c0.05,0.6 0.365,0.998 0.945,1.193c0.205,0.07 0.2,0.115 -0.015,0.135c-1.215,0.115 -2.4,-0.035 -3.555,-0.45Z" style="fill:#2f2f2f;fill-rule:nonzero;"/><path d="M186.785,51.724c0.09,-0.135 0.208,-0.173 0.353,-0.113c0.157,0.065 0.278,0.255 0.315,0.495c0.185,1.14 -0.018,1.238 -0.608,0.293c-0.148,-0.24 -0.172,-0.507 -0.06,-0.675Z" style="fill:#c0bebf;fill-rule:nonzero;"/><path d="M186.883,47.966c-1.96,-0.44 -3.595,-1.43 -4.905,-2.97c-0.03,-0.195 -0.008,-0.355 0.067,-0.48c0.009,-0.014 0.019,-0.026 0.031,-0.038c0.102,-0.1 0.301,-0.067 0.439,0.074c0.015,0.015 0.028,0.03 0.04,0.047c0.98,1.305 2.298,2.052 3.953,2.242l0.375,1.125Z" style="fill:#c0bebf;fill-rule:nonzero;"/><path d="M186.508,46.841c-1.655,-0.19 -2.973,-0.937 -3.953,-2.242c-0.012,-0.017 -0.025,-0.032 -0.04,-0.047c-0.138,-0.141 -0.337,-0.174 -0.439,-0.074c-0.012,0.012 -0.022,0.024 -0.031,0.038c-0.075,0.125 -0.097,0.285 -0.067,0.48c-1.175,-0.23 -1.853,-0.907 -2.033,-2.032l3.345,1.095l3.218,2.782Z" style="fill:#7d7c7d;fill-rule:nonzero;"/><path d="M184.415,59.246l0.435,-0.937c0.135,-0.335 0.365,-0.523 0.69,-0.563c0.4,0.555 0.593,1.165 0.578,1.83c-0.003,0.243 -0.154,0.457 -0.375,0.533c-0.62,0.215 -1.063,-0.073 -1.328,-0.863Z" style="fill:#dfdede;fill-rule:nonzero;"/><path d="M185.54,57.746c-0.325,0.04 -0.555,0.228 -0.69,0.563c-0.28,-0.315 -0.655,-0.315 -1.125,-0l-0.562,-1.688c0.545,0.02 0.857,-0.23 0.937,-0.75l1.44,1.875Z" style="fill:#c0bebf;fill-rule:nonzero;"/><path d="M185.383,32.089l-0,0.877l-2.325,0.968c-0.22,0.092 -0.344,0.311 -0.285,0.502c0.14,0.45 0.51,0.668 1.11,0.653l-0.188,0.315l-4.245,-0.18c-0.745,-0.035 -0.817,-0.258 -0.217,-0.668l4.462,-3.09c0.4,0.265 0.785,0.275 1.155,0.03l0.158,0.03c-0.015,0.265 0.11,0.453 0.375,0.563Z" style="fill:#aba9a9;fill-rule:nonzero;"/><path d="M184.85,58.309l-0.435,0.937c-0.3,-0.255 -0.53,-0.567 -0.69,-0.937c0.47,-0.315 0.845,-0.315 1.125,-0Z" style="fill:#999898;fill-rule:nonzero;"/><path d="M184.1,55.871c-0.08,0.52 -0.392,0.77 -0.937,0.75l-1.313,-2.812c0.39,0.09 0.578,-0.035 0.563,-0.375l1.687,2.437Z" style="fill:#dfdede;fill-rule:nonzero;"/><path d="M183.508,43.466c-0.19,0.135 -0.263,0.333 -0.218,0.593l-3.345,-1.095l-0.915,-1.673c-0.22,-0.405 -0.13,-0.492 0.27,-0.262l4.208,2.437Z" style="fill:#cfcdce;fill-rule:nonzero;"/><path d="M182.413,53.434c0.015,0.34 -0.173,0.465 -0.563,0.375c-1.42,-2.305 -2.177,-4.803 -2.272,-7.493c-0,-0.021 0,-0.043 0.002,-0.065c0.02,-0.221 0.157,-0.393 0.304,-0.38c0.016,0.001 0.031,0.005 0.046,0.01c0.205,0.065 0.32,0.348 0.345,0.848c0.085,1.79 0.798,4.025 2.138,6.705Z" style="fill:#fafafa;fill-rule:nonzero;"/><path d="M170.863,17.366c0.21,-0.41 0.567,-0.73 1.072,-0.96c0.335,-0.155 0.41,-0.077 0.225,0.233l-3.765,6.435c-0.185,0.32 -0.212,0.307 -0.082,-0.038c0.75,-1.935 1.6,-3.825 2.55,-5.67Z" style="fill:#f3f3f3;fill-rule:nonzero;"/><path d="M162.913,27.184c-0.03,-0.115 -0.103,-0.188 -0.218,-0.218c2.45,-0.55 2.523,-0.477 0.218,0.218Z" style="fill:#2f2f2f;fill-rule:nonzero;"/><path d="M162.913,27.184c-0.575,0.815 -1.335,1.43 -2.28,1.845l-0.03,-0.533c0.495,-0.795 1.192,-1.305 2.092,-1.53c0.115,0.03 0.188,0.103 0.218,0.218Z" style="fill:#8a898a;fill-rule:nonzero;"/><path d="M160.603,28.496l0.03,0.533c-2.02,0.98 -2.03,0.802 -0.03,-0.533Z" style="fill:#c0bebf;fill-rule:nonzero;"/><path d="M148.685,19.774c1.09,0.065 2.06,0.11 2.91,0.135c0.595,0.015 0.618,0.132 0.068,0.352c-4.47,1.79 -8.915,2.515 -13.335,2.175c-1.555,-0.12 -3.065,0.09 -4.53,0.63c-0.23,0.085 -0.38,0.07 -0.45,-0.045c-0.003,-0.005 -0.006,-0.011 -0.008,-0.017c-0.053,-0.125 0.047,-0.289 0.221,-0.362c0.009,-0.004 0.018,-0.008 0.027,-0.011c2.03,-0.69 4.07,-1.337 6.12,-1.942c1.635,-0.485 3.11,-0.78 4.425,-0.885c1.515,-0.115 3.032,-0.125 4.552,-0.03Zm-5.677,1.252c-0.825,-0.29 -1.483,-0.165 -1.973,0.375c-0.195,0.21 -0.147,0.293 0.143,0.248l1.83,-0.308c5.59,-0.32 5.59,-0.425 -0,-0.315Z" style="fill:#f5f5f5;fill-rule:nonzero;"/><path d="M143.008,21.341l-0,-0.315c5.59,-0.11 5.59,-0.005 -0,0.315Z" style="fill:#7d7c7d;fill-rule:nonzero;"/><path d="M143.24,24.979c-0.195,0.075 -0.357,0.095 -0.487,0.06c-0.43,-0.12 -0.395,-0.225 0.105,-0.315c1.315,-0.23 1.442,-0.145 0.382,0.255Z" style="fill:#3e3d3d;fill-rule:nonzero;"/><path d="M143.008,21.026l-0,0.315l-1.83,0.308c-0.29,0.045 -0.338,-0.038 -0.143,-0.248c0.49,-0.54 1.148,-0.665 1.973,-0.375Z" style="fill:#c0bebf;fill-rule:nonzero;"/><path d="M141.832,24.165c0.107,-0.001 0.194,-0.089 0.194,-0.196l-0.001,-0.045c-0,-0.108 -0.088,-0.195 -0.196,-0.194l-7.23,0.038c-0.107,0 -0.194,0.088 -0.194,0.196l0.001,0.045c0,0.107 0.088,0.194 0.196,0.194l7.23,-0.038Z" style="fill:#4b4b4b;"/><path d="M128.983,27.604c-0.475,0.055 -0.513,-0.048 -0.113,-0.308c1.635,-1.05 3.433,-1.642 5.393,-1.777c1.605,-0.11 2.427,-0.168 2.467,-0.173c1.15,-0.12 2.223,-0.192 3.218,-0.217c1.715,-0.035 1.74,0.15 0.075,0.555c-3.64,0.88 -7.32,1.52 -11.04,1.92Z" style="fill:#f8f7f8;fill-rule:nonzero;"/><path d="M135.764,43.918c1.182,1.794 1.991,3.35 1.804,3.473c-0.186,0.123 -1.298,-1.233 -2.481,-3.027c-1.182,-1.793 -1.991,-3.349 -1.804,-3.472c0.186,-0.123 1.298,1.233 2.481,3.026Z" style="fill:#fafafa;"/><path d="M126.433,34.174c1.685,1.58 3.15,3.06 4.395,4.44c0.755,0.84 1.132,1.845 1.132,3.015c0.001,0.247 0.077,0.477 0.218,0.652l2.475,3.03c0.485,0.59 0.502,0.735 0.052,0.435c-0.315,-0.205 -0.987,-1.005 -2.017,-2.4c-0.21,-0.28 -0.455,-0.525 -0.735,-0.735c-1.405,-1.035 -2.223,-2.475 -2.453,-4.32c-0.028,-0.235 -0.164,-0.444 -0.367,-0.562c-1.64,-0.97 -2.728,-2.02 -3.263,-3.15c-0.535,-1.125 -0.347,-1.26 0.563,-0.405Z" style="fill:#3e3d3d;fill-rule:nonzero;"/><path d="M124.805,26.449c-0.515,0.59 -0.69,-0.038 -0.525,-1.883c0.002,-0.014 0.004,-0.028 0.006,-0.042c0.047,-0.26 0.298,-0.435 0.558,-0.388c0.015,0.003 0.029,0.006 0.044,0.01c1.13,0.3 1.29,0.858 0.48,1.673c-0.08,0.08 -0.268,0.29 -0.563,0.63Z" style="fill:#4b4b4b;fill-rule:nonzero;"/><path d="M99.508,38.464c0.115,-0.03 0.187,-0.103 0.217,-0.218c3.68,2.18 5.935,3.29 6.765,3.33c1.61,0.075 3.18,0.35 4.71,0.825c0.23,0.069 0.437,0.21 0.593,0.405c5.555,6.9 4.93,8.33 -1.875,4.29c-0.805,-0.48 -1.585,-1.177 -2.34,-2.092c-2.23,-2.71 -4.92,-4.89 -8.07,-6.54Zm12.375,5.94l-0.188,-0.413c-0.105,-0.244 -0.281,-0.428 -0.487,-0.51c-0.755,-0.3 -0.645,0.018 0.33,0.953c-0.165,0.335 -0.425,0.532 -0.78,0.592l-0.188,0l-2.835,-1.267c-0.18,-0.08 -0.222,-0.043 -0.127,0.112c0.595,1.025 1.51,1.65 2.745,1.875c0.245,0.63 0.692,1.015 1.342,1.155c0.61,0.71 1.348,1.163 2.213,1.358c0.255,0.055 0.335,-0.043 0.24,-0.293c-0.51,-1.34 -1.265,-2.527 -2.265,-3.562Z" style="fill:#dfdede;fill-rule:nonzero;"/><path d="M111.695,46.901c0.2,-0.125 0.263,-0.312 0.188,-0.562c1.1,-0.825 0.735,-1.21 -1.095,-1.155l-0.03,-0.158c0.355,-0.06 0.615,-0.257 0.78,-0.592l0.345,-0.03c1,1.035 1.755,2.222 2.265,3.562c0.095,0.25 0.015,0.348 -0.24,0.293c-0.865,-0.195 -1.603,-0.648 -2.213,-1.358Z" style="fill:#999898;fill-rule:nonzero;"/><path d="M105.478,44.809c-0.045,-0.26 0.027,-0.458 0.217,-0.593c1.965,2.82 4.58,4.748 7.845,5.783c0.244,0.076 0.415,0.265 0.428,0.472c0.02,0.415 -0.253,0.495 -0.818,0.24c-2.355,-1.075 -3.762,-1.682 -4.222,-1.822c-0.63,-0.195 -1.08,-0.52 -1.35,-0.975c-0.425,-0.715 -0.653,-1.09 -0.683,-1.125c-0.525,-0.625 -0.997,-1.285 -1.417,-1.98Z" style="fill:#7d7c7d;fill-rule:nonzero;"/><path d="M111.883,46.339c-0.68,-0.12 -1.045,-0.505 -1.095,-1.155c1.83,-0.055 2.195,0.33 1.095,1.155Z" style="fill:#d8d7d7;fill-rule:nonzero;"/><path d="M111.883,44.404l-0.345,0.03c-0.975,-0.935 -1.085,-1.253 -0.33,-0.953c0.206,0.082 0.382,0.266 0.487,0.51l0.188,0.413Z" style="fill:#c0bebf;fill-rule:nonzero;"/><path d="M111.883,46.339c0.075,0.25 0.012,0.437 -0.188,0.562c-0.65,-0.14 -1.097,-0.525 -1.342,-1.155c0.19,-0.21 0.262,-0.45 0.217,-0.72l0.188,0l0.03,0.158c0.05,0.65 0.415,1.035 1.095,1.155Z" style="fill:#7d7c7d;fill-rule:nonzero;"/><path d="M110.57,45.026c0.045,0.27 -0.027,0.51 -0.217,0.72c-1.235,-0.225 -2.15,-0.85 -2.745,-1.875c-0.095,-0.155 -0.053,-0.192 0.127,-0.112l2.835,1.267Z" style="fill:#6e6c6e;fill-rule:nonzero;"/><path d="M102.478,38.246c0.08,-0.47 0.402,-0.657 0.967,-0.562c0.38,0.065 0.568,-0.113 0.563,-0.533l0.375,-0.06c1.88,1.09 3.66,2.323 5.34,3.698c0.1,0.085 0.112,0.155 0.037,0.21c-0.059,0.046 -0.158,0.049 -0.255,0.007l-7.027,-2.76Z" style="fill:#d8d7d7;fill-rule:nonzero;"/><path d="M104.968,46.556c0.345,0.21 0.675,0.443 0.99,0.698c0.125,0.105 0.197,0.217 0.217,0.337c0.04,0.265 -0.172,0.26 -0.637,-0.015c-1.895,-1.12 -3.598,-2.475 -5.108,-4.065c-1.575,-1.65 -1.482,-2.042 0.278,-1.177c0.225,0.115 0.427,0.275 0.607,0.48c0.875,1.025 1.773,2.027 2.693,3.007c0.24,0.255 0.56,0.5 0.96,0.735Z" style="fill:#dfdede;fill-rule:nonzero;"/><path d="M105.695,44.216c-0.19,0.135 -0.262,0.333 -0.217,0.593c-0.395,-0.515 -0.903,-0.85 -1.523,-1.005c-0.266,-0.068 -0.482,-0.196 -0.607,-0.36c-0.495,-0.645 -0.348,-0.89 0.442,-0.735c0.23,0.045 0.44,0.15 0.63,0.315c0.445,0.38 0.87,0.777 1.275,1.192Z" style="fill:#2f2f2f;fill-rule:nonzero;"/><path d="M104.383,37.091l-0.375,0.06c-0.69,0.295 -1.288,0.245 -1.793,-0.15c-0.23,-0.18 -0.34,-0.145 -0.33,0.105l0.03,0.765c-0.605,-0.145 -1.042,-0.52 -1.312,-1.125c0.11,-0.59 -0.13,-0.83 -0.72,-0.72l-1.283,-0.217c-1.17,-0.985 -2.495,-1.648 -3.975,-1.988c-0.3,-0.065 -0.31,-0.147 -0.03,-0.247c0.24,-0.085 0.505,-0.103 0.795,-0.053c3.255,0.545 6.253,1.735 8.993,3.57Z" style="fill:#c0bebf;fill-rule:nonzero;"/><path d="M104.008,37.151c0.005,0.42 -0.183,0.598 -0.563,0.533c-0.565,-0.095 -0.887,0.092 -0.967,0.562c-0.215,-0.085 -0.403,-0.21 -0.563,-0.375l-0.03,-0.765c-0.01,-0.25 0.1,-0.285 0.33,-0.105c0.505,0.395 1.103,0.445 1.793,0.15Z" style="fill:#6e6c6e;fill-rule:nonzero;"/><path d="M101.435,34.091c1.02,0.06 1.185,0.218 0.495,0.473c-0.185,0.066 -0.431,0.036 -0.675,-0.083l-0.975,-0.465c-0.01,-0.005 -0.02,-0.011 -0.03,-0.017c-0.15,-0.094 -0.209,-0.274 -0.13,-0.4c0.005,-0.009 0.011,-0.017 0.018,-0.025c0.28,-0.345 0.537,-0.295 0.772,0.15c0.107,0.213 0.308,0.354 0.525,0.367Z" style="fill:#2f2f2f;fill-rule:nonzero;"/><path d="M100.603,36.746l-1.095,-0.03l0.375,-0.69c0.59,-0.11 0.83,0.13 0.72,0.72Z" style="fill:#6e6c6e;fill-rule:nonzero;"/><path d="M99.883,36.026l-0.375,0.69c-0.385,-0.22 -0.688,-0.522 -0.908,-0.907l1.283,0.217Z" style="fill:#3e3d3d;fill-rule:nonzero;"/><path d="M99.725,38.246c-0.03,0.115 -0.102,0.188 -0.217,0.218c-1.61,-0.74 -3.053,-1.725 -4.328,-2.955c-0.175,-0.171 -0.272,-0.365 -0.262,-0.525c0.01,-0.25 0.215,-0.225 0.615,0.075c1.4,1.055 2.797,2.117 4.192,3.187Z" style="fill:#f1f0f1;fill-rule:nonzero;"/><path d="M83.758,18.904c1.615,0.515 2.74,0.032 3.375,-1.448c0.003,-0.007 0.006,-0.015 0.009,-0.022c0.049,-0.144 -0.048,-0.31 -0.215,-0.367c-0.009,-0.003 -0.018,-0.006 -0.027,-0.008c-0.355,-0.095 -0.59,-0.335 -0.705,-0.72l1.958,-1.403c0.54,-0.39 0.707,-0.272 0.502,0.353c-0.415,1.28 -0.892,2.447 -1.432,3.502c-0.825,1.615 -2.098,2.023 -3.818,1.223c-1.09,-0.505 -0.972,-0.875 0.353,-1.11Z" style="fill:#c0bebf;fill-rule:nonzero;"/><path d="M83.758,18.904l2.437,-2.565c0.115,0.385 0.35,0.625 0.705,0.72c0.009,0.002 0.018,0.005 0.027,0.008c0.167,0.057 0.264,0.223 0.215,0.367c-0.003,0.007 -0.006,0.015 -0.009,0.022c-0.635,1.48 -1.76,1.963 -3.375,1.448Z" style="fill:#7d7c7d;fill-rule:nonzero;"/><path d="M81.32,24.776c-0.56,0.005 -0.935,-0.245 -1.125,-0.75l4.298,-2.07c0.232,-0.113 0.434,-0.171 0.547,-0.157c0.365,0.045 0.328,0.232 -0.112,0.562c-1.16,0.875 -2.363,1.68 -3.608,2.415Z" style="fill:#999898;fill-rule:nonzero;"/><path d="M80.795,44.929c2.285,2.115 2.193,2.392 -0.277,0.832c-0.21,-0.131 -0.37,-0.323 -0.458,-0.547c-0.625,-1.66 -0.485,-1.875 0.42,-0.645c0.095,0.13 0.2,0.25 0.315,0.36Z" style="fill:#d8d7d7;fill-rule:nonzero;"/><path d="M81.32,24.776c-0.21,0.625 -0.585,1.105 -1.125,1.44c-0.205,-0.47 -0.58,-0.657 -1.125,-0.562c0,-0.845 0.375,-1.388 1.125,-1.628c0.19,0.505 0.565,0.755 1.125,0.75Z" style="fill:#5b595a;fill-rule:nonzero;"/><path d="M80.195,26.216c-1.54,1.18 -3.232,2.033 -5.077,2.558c-0.25,0.07 -0.3,-0 -0.15,-0.21c1.025,-1.4 2.392,-2.37 4.102,-2.91c0.545,-0.095 0.92,0.092 1.125,0.562Z" style="fill:#8a898a;fill-rule:nonzero;"/><path d="M75.133,40.466c-0.14,-0.25 -0.14,-0.437 -0,-0.562c1.43,0.695 2.647,1.652 3.652,2.872c0.175,0.21 0.14,0.26 -0.105,0.15c-1.345,-0.59 -2.527,-1.41 -3.547,-2.46Z" style="fill:#8a898a;fill-rule:nonzero;"/><path d="M75.133,39.904c-0.14,0.125 -0.14,0.312 -0,0.562c-2.415,-1.96 -2.415,-2.147 -0,-0.562Z" style="fill:#6e6c6e;fill-rule:nonzero;"/><path d="M74.675,41.411c0.141,0.358 0.117,0.703 -0.053,0.77c-0.169,0.066 -0.421,-0.171 -0.561,-0.529c-0.141,-0.359 -0.117,-0.704 0.052,-0.77c0.17,-0.067 0.422,0.17 0.562,0.529Z" style="fill:#2f2f2f;"/></svg>