<?xml version="1.0" encoding="UTF-8" standalone="no"?><!DOCTYPE svg PUBLIC "-//W3C//DTD SVG 1.1//EN" "http://www.w3.org/Graphics/SVG/1.1/DTD/svg11.dtd"><svg width="100%" height="100%" viewBox="0 0 250 59" version="1.1" xmlns="http://www.w3.org/2000/svg" xmlns:xlink="http://www.w3.org/1999/xlink" xml:space="preserve" xmlns:serif="http://www.serif.com/" style="fill-rule:evenodd;clip-rule:evenodd;"><path d="M165.129,9.208c-0.335,0.35 -0.59,0.75 -0.765,1.2c-0.405,1.05 -0.318,1.355 0.262,0.915c0.13,-0.095 0.26,-0.233 0.39,-0.413c3.785,-5.145 8.683,-7.302 14.693,-6.472c3.305,0.455 6.28,2.12 8.925,4.995c0.205,0.225 0.56,0.702 1.065,1.432c0.35,0.495 0.742,0.955 1.177,1.38c0.007,0.007 0.015,0.014 0.022,0.021c0.173,0.151 0.414,0.164 0.533,0.028c0.006,-0.006 0.01,-0.012 0.015,-0.019c0.12,-0.17 0.115,-0.385 -0.015,-0.645c-2.795,-5.43 -6.99,-8.27 -12.585,-8.52c-2.695,-0.12 -5.18,0.36 -7.455,1.44c-2.195,1.045 -4.282,2.598 -6.262,4.658" style="fill:none;fill-rule:nonzero;stroke:#828282;stroke-width:1.5px;"/><path d="M71.334,14.533c-3.14,0.975 -5.718,2.407 -7.733,4.297c-2.34,2.19 -4.432,4.593 -6.277,7.208c-0.008,0.01 -0.015,0.02 -0.024,0.029c-0.112,0.126 -0.306,0.139 -0.428,0.03c-0.01,-0.009 -0.02,-0.019 -0.028,-0.029c-3.195,-3.64 -7.115,-5.788 -11.76,-6.443c-3.25,-0.46 -5.99,0.19 -8.22,1.95c-0.055,0.045 -0.093,0.098 -0.113,0.158c-0.075,0.235 0.015,0.275 0.27,0.12c2.615,-1.58 5.438,-2.065 8.468,-1.455c4.755,0.96 8.482,3.57 11.182,7.83c0.013,0.021 0.028,0.04 0.045,0.058c0.129,0.133 0.344,0.136 0.477,0.007c0.018,-0.017 0.034,-0.037 0.048,-0.058c3.77,-5.76 8.728,-10.067 14.873,-12.922" style="fill:none;fill-rule:nonzero;stroke:#818081;stroke-width:1.5px;"/><path d="M72.114,15.313c8.945,-2.505 17.322,-1.328 25.132,3.532c4.085,2.54 7.12,6.008 9.105,10.403c0.45,0.99 0.838,0.965 1.163,-0.075c0.45,-1.455 1.372,-2.903 2.767,-4.343c3.895,-4.03 8.66,-6.24 14.295,-6.63c3.88,-0.27 7.525,0.485 10.935,2.265c0.52,0.275 1.045,0.49 1.575,0.645c0.02,0.006 0.039,0.013 0.057,0.021c0.164,0.079 0.232,0.28 0.152,0.447c-0.008,0.018 -0.018,0.034 -0.029,0.05l-3.66,5.19c-0.145,0.208 -0.166,0.465 -0.052,0.652c0.19,0.295 0.43,0.345 0.72,0.15c0.155,-0.1 0.317,-0.302 0.487,-0.607c4.095,-7.185 10.39,-10.708 18.885,-10.568c0.345,0.005 0.553,-0.077 0.623,-0.247c0.004,-0.011 0.008,-0.023 0.01,-0.035c0.033,-0.157 -0.123,-0.324 -0.345,-0.37c-0.016,-0.003 -0.032,-0.006 -0.048,-0.008c-5.345,-0.54 -10.317,0.873 -14.917,4.238c-0.437,0.318 -1.021,0.344 -1.478,0.067c-1.38,-0.82 -2.755,-1.497 -4.125,-2.032c-1.36,-0.53 -2.837,-0.895 -4.432,-1.095c-8.405,-1.06 -15.355,1.67 -20.85,8.19c-0.015,0.017 -0.029,0.033 -0.045,0.048c-0.301,0.299 -0.796,0.295 -1.098,-0.009c-0.015,-0.015 -0.029,-0.031 -0.042,-0.047c-7.345,-8.78 -16.7,-12.87 -28.065,-12.27c-2.345,0.125 -4.845,0.678 -7.5,1.658" style="fill:none;fill-rule:nonzero;stroke:#878787;stroke-width:1.5px;"/><path d="M72.114,15.313c0.035,-0.555 -0.225,-0.815 -0.78,-0.78" style="fill:none;fill-rule:nonzero;stroke:#0c0b0b;stroke-width:1.5px;"/><path d="M182.783,16.747c0.624,-0.444 0.619,-1.537 -0.01,-2.422c-0.629,-0.886 -1.66,-1.249 -2.284,-0.806c-0.624,0.443 -0.619,1.537 0.01,2.422c0.629,0.885 1.66,1.249 2.284,0.806" style="fill:none;fill-rule:nonzero;stroke:#828282;stroke-width:1.5px;"/><path d="M197.964,13.76c-0.018,0.029 -0.032,0.06 -0.043,0.091c-0.097,0.272 0.046,0.575 0.317,0.672c0.033,0.011 0.066,0.02 0.101,0.025c3.27,0.485 6.24,1.617 8.91,3.397c2.165,1.445 3.672,3.255 4.522,5.43c0.455,1.165 1.1,2.035 1.935,2.61c0.181,0.128 0.431,0.099 0.578,-0.067c0.65,-0.745 0.765,-1.608 0.345,-2.588c-1.8,-4.205 -4.87,-7.245 -9.21,-9.12c-2.14,-0.925 -4.378,-1.2 -6.713,-0.825c-0.38,0.06 -0.627,0.185 -0.742,0.375" style="fill:none;fill-rule:nonzero;stroke:#878787;stroke-width:1.5px;"/><path d="M165.71,23.708c0.546,-0.042 0.939,-0.806 0.871,-1.692c-0,0 -0,0 -0,0c-0.068,-0.886 -0.574,-1.58 -1.119,-1.538c-0,-0 -0,-0 -0,-0c-0.546,0.042 -0.939,0.805 -0.87,1.691c-0,0 -0,0 -0,0c0.068,0.886 0.573,1.581 1.118,1.539c0,0 0,0 0,0" style="fill:none;fill-rule:nonzero;stroke:#818081;stroke-width:1.5px;"/><path d="M159.078,24.019c-0,-0 -0,-0 -0,-0c0.253,-0.818 -0.389,-1.754 -1.423,-2.074c-0,0 -0,0 -0,0c-1.034,-0.32 -2.093,0.09 -2.346,0.907l0,0c-0.253,0.818 0.39,1.754 1.423,2.074c0,-0 0,-0 0,-0c1.034,0.32 2.093,-0.09 2.346,-0.907c-0,-0 -0,-0 -0,-0" style="fill:none;fill-rule:nonzero;stroke:#808080;stroke-width:1.5px;"/><path d="M192.752,27.27c0.806,-0.321 1.158,-1.368 0.78,-2.32c-0.379,-0.952 -1.355,-1.471 -2.161,-1.15c-0,0 -0,0 -0,0c-0.807,0.321 -1.159,1.369 -0.78,2.32c0.379,0.952 1.354,1.471 2.161,1.15c-0,0 -0,0 -0,0" style="fill:none;fill-rule:nonzero;stroke:#808080;stroke-width:1.5px;"/><path d="M37.959,29.488c-5.19,-3.93 -10.713,-5.778 -16.568,-5.543c-2.6,0.1 -5.542,0.558 -8.827,1.373c-2.915,0.72 -5.718,1.79 -8.408,3.21c-0.195,0.1 -0.362,0.215 -0.502,0.345c-0.815,0.755 -0.743,0.997 0.217,0.727c0.17,-0.045 0.353,-0.117 0.548,-0.217c5.345,-2.695 10.95,-4.158 16.815,-4.388c3.445,-0.135 6.422,0.24 8.932,1.125c2.92,1.03 5.53,2.665 7.83,4.905c1.205,1.175 1.503,1.058 0.893,-0.352c-0.205,-0.48 -0.515,-0.875 -0.93,-1.185" style="fill:none;fill-rule:nonzero;stroke:#7f7f7f;stroke-width:1.5px;"/><path d="M122.349,27.585c0.815,-0.245 1.239,-1.27 0.939,-2.271c0,0 0,0 0,0c-0.3,-1.001 -1.219,-1.623 -2.034,-1.378c-0.816,0.244 -1.24,1.269 -0.94,2.27c0,0 0,0 0,0c0.3,1.001 1.219,1.624 2.035,1.379" style="fill:none;fill-rule:nonzero;stroke:#858585;stroke-width:1.5px;"/><path d="M225.691,26.518c-2.915,-1.89 -6.045,-2.315 -9.39,-1.275c-0.455,0.14 -0.825,0.317 -1.11,0.532c-0.725,0.545 -0.76,1.023 -0.105,1.433c0.295,0.18 0.73,0.297 1.305,0.352c1.465,0.14 2.925,0.308 4.38,0.503c3.325,0.44 5.918,2.04 7.778,4.8c0.5,0.75 0.825,0.827 0.975,0.232c0.05,-0.195 0.052,-0.425 0.007,-0.69c-0.44,-2.555 -1.72,-4.517 -3.84,-5.887" style="fill:none;fill-rule:nonzero;stroke:#878787;stroke-width:1.5px;"/><path d="M82.479,30.04c0.901,0.479 2.245,-0.26 2.977,-1.636c-0,-0 -0,-0 -0,-0c0.732,-1.377 0.593,-2.904 -0.308,-3.383c0,-0 0,-0 0,-0c-0.901,-0.479 -2.245,0.259 -2.977,1.636c0,0 0,0 0,0c-0.732,1.377 -0.593,2.904 0.308,3.383c0,0 0,0 0,0" style="fill:none;fill-rule:nonzero;stroke:#7f7f7f;stroke-width:1.5px;"/><path d="M75.834,27.44c-0.865,0.735 -0.96,1.56 -0.285,2.475c0.915,1.245 1.822,1.353 2.722,0.323c0.203,-0.236 0.523,-0.343 0.833,-0.278c1.125,0.235 1.805,0.235 2.04,0c0.012,-0.012 0.022,-0.026 0.029,-0.041c0.05,-0.108 -0.06,-0.267 -0.243,-0.351c-0.023,-0.011 -0.047,-0.02 -0.071,-0.028c-0.49,-0.155 -0.915,-0.522 -1.275,-1.102c-1.13,-1.83 -2.38,-2.163 -3.75,-0.998" style="fill:none;fill-rule:nonzero;stroke:#7f7f7f;stroke-width:1.5px;"/><path d="M48.322,32.387c0,0 0,0 0,0c0.738,-0.532 0.848,-1.659 0.244,-2.496c-0,-0 -0,-0 -0,-0c-0.605,-0.838 -1.709,-1.089 -2.446,-0.558l-0,0.001c-0.738,0.531 -0.847,1.658 -0.243,2.496c-0,-0 -0,-0 -0,-0c0.604,0.838 1.708,1.089 2.445,0.557c0,0 0,0 0,0" style="fill:none;fill-rule:nonzero;stroke:#808080;stroke-width:1.5px;"/><path d="M127.329,32.726c0.62,-0.267 0.798,-1.258 0.394,-2.195c-0.403,-0.937 -1.245,-1.488 -1.865,-1.221c-0,-0 -0,-0 -0,-0c-0.62,0.266 -0.798,1.257 -0.394,2.194c0.404,0.938 1.246,1.489 1.865,1.222c0,0 0,0 0,0" style="fill:none;fill-rule:nonzero;stroke:#808080;stroke-width:1.5px;"/><path d="M179.769,33.478c0.621,-0.789 0.4,-2.014 -0.489,-2.713c-0.889,-0.7 -2.131,-0.627 -2.752,0.162c-0.621,0.789 -0.4,2.014 0.489,2.714c0.889,0.7 2.132,0.626 2.752,-0.163" style="fill:none;fill-rule:nonzero;stroke:#808080;stroke-width:1.5px;"/><path d="M64.434,34.487c-0,0 -0,0 -0,0c0.701,-0.647 0.608,-1.906 -0.207,-2.789c-0.814,-0.883 -2.062,-1.077 -2.764,-0.43c0,0 0,0 0,0c-0.701,0.648 -0.608,1.907 0.207,2.79c0.815,0.883 2.062,1.077 2.764,0.429" style="fill:none;fill-rule:nonzero;stroke:#808080;stroke-width:1.5px;"/><path d="M238.802,34.1c0.673,-0.116 1.108,-0.899 0.963,-1.734c-0.144,-0.835 -0.816,-1.427 -1.489,-1.311c-0.673,0.117 -1.108,0.9 -0.964,1.735c0.144,0.835 0.817,1.426 1.49,1.31" style="fill:none;fill-rule:nonzero;stroke:#818081;stroke-width:1.5px;"/><path d="M206.101,31.76c-0.375,0.775 -0.307,1.703 0.203,2.783c0.019,0.041 0.044,0.079 0.073,0.113c0.193,0.231 0.541,0.262 0.771,0.069c0.035,-0.029 0.066,-0.063 0.093,-0.1c0.97,-1.345 0.89,-2.385 -0.24,-3.12c-0.011,-0.007 -0.022,-0.013 -0.033,-0.02c-0.298,-0.167 -0.681,-0.059 -0.848,0.238c-0.007,0.013 -0.013,0.025 -0.019,0.037" style="fill:none;fill-rule:nonzero;stroke:#878787;stroke-width:1.5px;"/><path d="M118.158,34.556c0.292,-1.153 -0.508,-2.365 -1.773,-2.684c-1.264,-0.32 -2.545,0.365 -2.836,1.518c-0.292,1.152 0.509,2.364 1.773,2.684c1.264,0.32 2.545,-0.365 2.836,-1.518" style="fill:none;fill-rule:nonzero;stroke:#858585;stroke-width:1.5px;"/><path d="M151.302,36.457c0.56,-0.135 0.856,-0.925 0.657,-1.749c-0.199,-0.823 -0.824,-1.39 -1.384,-1.254c-0.559,0.135 -0.856,0.924 -0.657,1.748c0.199,0.824 0.824,1.39 1.384,1.255" style="fill:none;fill-rule:nonzero;stroke:#8e8d8e;stroke-width:1.5px;"/><path d="M93.219,35.593c-0.99,-0.72 -1.988,-1.153 -2.993,-1.298c-0.875,-0.125 -1.132,0.048 -0.772,0.518c0.11,0.14 0.275,0.257 0.495,0.352c3.84,1.585 6.72,4.22 8.64,7.905c0.131,0.249 0.318,0.42 0.502,0.458c0.29,0.06 0.325,-0.183 0.105,-0.728c-0.815,-1.985 -1.99,-3.695 -3.525,-5.13c-0.935,-0.875 -1.752,-1.567 -2.452,-2.077" style="fill:none;fill-rule:nonzero;stroke:#808080;stroke-width:1.5px;"/><path d="M72.331,36.245c0,-0.934 -0.768,-1.702 -1.702,-1.702c-0.934,-0 -1.703,0.768 -1.703,1.702c0,0.934 0.769,1.703 1.703,1.703c0.934,-0 1.702,-0.769 1.702,-1.703" style="fill:none;fill-rule:nonzero;stroke:#7f7f7f;stroke-width:1.5px;"/><path d="M40.074,37.64c-4.77,-0.045 -9.538,-0.155 -14.303,-0.33c-3.5,-0.13 -6.945,-0.62 -10.335,-1.47c-0.26,-0.066 -0.505,-0.035 -0.66,0.083c-0.245,0.185 -0.19,0.362 0.165,0.532c2.395,1.145 5.128,1.77 8.198,1.875c5.75,0.2 11.5,0.278 17.25,0.233c0.27,-0 0.515,-0.05 0.735,-0.15c1.05,-0.5 0.7,-0.758 -1.05,-0.773" style="fill:none;fill-rule:nonzero;stroke:#828282;stroke-width:1.5px;"/><path d="M139.989,41.375c-2.645,5.17 -6.385,8.765 -11.22,10.785c-3.7,1.55 -8.57,2.063 -14.61,1.538c-7.555,-0.655 -14.958,-2.575 -22.208,-5.76c-0.32,-0.138 -0.685,-0.136 -1.005,0.007c-6.425,2.86 -12.9,4.233 -19.425,4.118c-3.44,-0.06 -6.54,-0.648 -9.3,-1.763c-1.97,-0.795 -3.862,-2.112 -5.677,-3.952c-1.635,-1.665 -3.128,-3.463 -4.478,-5.393c-0.515,-0.74 -0.655,-0.662 -0.42,0.233c0.3,1.145 0.785,2.175 1.455,3.09c0.3,0.405 1.038,1.257 2.213,2.557c3.49,3.87 7.83,6.05 13.02,6.54c6.985,0.66 13.872,-0.395 20.662,-3.165c0.055,-0.025 0.32,-0.105 0.795,-0.24c0.535,-0.15 0.828,-0.485 0.878,-1.005c0.002,-0.031 0.008,-0.062 0.017,-0.092c0.073,-0.248 0.341,-0.392 0.594,-0.317c0.03,0.008 0.059,0.02 0.086,0.034c9.485,4.96 19.433,7.138 29.843,6.533c9.405,-0.55 15.77,-5.133 19.095,-13.748" style="fill:none;fill-rule:nonzero;stroke:#808080;stroke-width:1.5px;"/><path d="M140.304,41.375c0.215,-0.365 0.615,-0.442 1.2,-0.232c3.315,1.18 6.825,1.605 10.53,1.275c2.65,-0.24 5.247,-0.688 7.792,-1.343c2.575,-0.66 5.035,-1.672 7.38,-3.037c0.428,-0.25 0.973,-0.192 1.343,0.142c2.135,1.915 4.667,2.93 7.597,3.045c4.56,0.18 9.123,0.28 13.688,0.3c0.445,0 0.685,-0.067 0.72,-0.202c0.001,-0.005 0.002,-0.011 0.002,-0.016c0.017,-0.151 -0.205,-0.302 -0.491,-0.333c-0.012,-0.002 -0.024,-0.003 -0.036,-0.004c-3.86,-0.31 -7.725,-0.527 -11.595,-0.652c-2.015,-0.065 -3.74,-0.388 -5.175,-0.968c-1.685,-0.68 -3.305,-1.502 -4.86,-2.467c-0.195,-0.121 -0.443,-0.124 -0.645,-0.008c-6.09,3.51 -12.558,5.025 -19.403,4.545c-3.64,-0.255 -7.202,-1.335 -10.687,-3.24c-0.24,-0.13 -0.335,-0.065 -0.285,0.195c0.135,0.72 0.572,1.205 1.312,1.455c0.87,0.295 1.303,0.81 1.298,1.545" style="fill:none;fill-rule:nonzero;stroke:#808080;stroke-width:1.5px;"/><path d="M140.304,41.375l-0.315,0" style="fill:none;fill-rule:nonzero;stroke:#030303;stroke-width:1.5px;"/><path d="M228.594,37.588c-3.45,-0.555 -6.92,-0.825 -10.41,-0.81c-1.835,0.01 -3.948,0.33 -6.338,0.96c-3.025,0.805 -6.075,1.5 -9.15,2.085c-0.225,0.04 -0.417,0.095 -0.577,0.165c-0.76,0.335 -0.71,0.592 0.15,0.772c0.195,0.04 0.405,0.035 0.63,-0.015c2.495,-0.525 4.975,-1.107 7.44,-1.747c3.05,-0.79 5.545,-1.23 7.485,-1.32c3.68,-0.175 7.35,0.06 11.01,0.705c5.27,0.925 10.507,0.792 15.712,-0.398c0.63,-0.145 1.123,-0.455 1.478,-0.93c0.16,-0.22 0.107,-0.292 -0.158,-0.217c-3.115,0.93 -6.28,1.45 -9.495,1.56c-1.515,0.05 -4.107,-0.22 -7.777,-0.81" style="fill:none;fill-rule:nonzero;stroke:#8b8b8b;stroke-width:1.5px;"/><path d="M107.664,39.83c-0.245,1.83 0.505,2.878 2.25,3.143c0.219,0.033 0.432,-0.097 0.502,-0.308c0.345,-1.115 0.145,-2.122 -0.6,-3.022c-1.225,-1.485 -1.942,-1.423 -2.152,0.187" style="fill:none;fill-rule:nonzero;stroke:#828282;stroke-width:1.5px;"/><path d="M79.735,42.118c0.629,-0.107 1.024,-0.919 0.875,-1.799c-0.149,-0.88 -0.789,-1.517 -1.418,-1.411c0,0 0,0 0,0c-0.629,0.106 -1.023,0.918 -0.875,1.799c0.149,0.88 0.789,1.517 1.418,1.411c0,-0 0,-0 0,-0" style="fill:none;fill-rule:nonzero;stroke:#808080;stroke-width:1.5px;"/><path d="M210.166,43.775c4.41,-1.18 8.883,-2.042 13.418,-2.587c0.125,-0.015 0.272,-0.073 0.442,-0.173c0.24,-0.135 0.22,-0.197 -0.06,-0.187c-4.735,0.165 -9.35,0.98 -13.845,2.445c-0.355,0.12 -0.52,0.242 -0.495,0.367c0.001,0.002 0.001,0.004 0.001,0.006c0.034,0.136 0.272,0.196 0.528,0.132c0.003,-0.001 0.007,-0.002 0.011,-0.003" style="fill:none;fill-rule:nonzero;stroke:#8f8e8f;stroke-width:1.5px;"/><path d="M180.871,14.51c-0.19,0.315 -0.185,0.655 0.015,1.02c0.145,0.27 0.385,0.46 0.72,0.57c0.92,0.295 1.023,-0.227 0.308,-1.567c-0.335,-0.63 -0.683,-0.638 -1.043,-0.023" style="fill:none;fill-rule:nonzero;stroke:#777675;stroke-width:1.5px;"/><path d="M165.864,22.333c-0.105,-1.185 -0.248,-1.185 -0.428,-0c-0.02,0.11 -0.01,0.205 0.03,0.285c0.115,0.275 0.233,0.28 0.353,0.015c0.04,-0.085 0.055,-0.185 0.045,-0.3" style="fill:none;fill-rule:nonzero;stroke:#494848;stroke-width:1.5px;"/><path d="M157.186,23.165c0.255,-0.88 0.04,-1.02 -0.645,-0.42c-0.183,0.16 -0.276,0.394 -0.247,0.623c0.11,0.995 0.662,1.285 1.657,0.87c0.232,-0.098 0.392,-0.302 0.42,-0.533c0.065,-0.55 -0.257,-0.667 -0.967,-0.352c-0.21,0.095 -0.283,0.032 -0.218,-0.188" style="fill:none;fill-rule:nonzero;stroke:#606060;stroke-width:1.5px;"/><path d="M191.679,25.843c-0.26,0.12 -0.218,0.362 0.127,0.727c0.012,0.013 0.025,0.025 0.039,0.036c0.184,0.152 0.461,0.125 0.612,-0.06c0.012,-0.014 0.022,-0.028 0.032,-0.043c0.47,-0.73 0.48,-1.308 0.03,-1.733c-0.157,-0.151 -0.411,-0.192 -0.653,-0.105c-0.925,0.335 -0.985,0.663 -0.18,0.983c0.155,0.06 0.153,0.125 -0.007,0.195" style="fill:none;fill-rule:nonzero;stroke:#676666;stroke-width:1.5px;"/><path d="M121.852,26.705c0,0 0,0 0,0c0.436,0.011 0.806,-0.421 0.819,-0.955c0.013,-0.535 -0.335,-0.984 -0.771,-0.994c-0,-0 -0,-0 -0,-0c-0.436,-0.011 -0.806,0.42 -0.819,0.955c-0.013,0.535 0.335,0.983 0.771,0.994" style="fill:none;fill-rule:nonzero;stroke:#747372;stroke-width:1.5px;"/><path d="M83.836,25.625c-0.87,0.715 -1.282,1.733 -1.237,3.053c0.03,0.875 0.395,1.052 1.095,0.532c1.31,-0.975 1.67,-2.1 1.08,-3.375c-0.012,-0.025 -0.025,-0.05 -0.04,-0.073c-0.176,-0.279 -0.552,-0.361 -0.834,-0.183c-0.022,0.014 -0.044,0.03 -0.064,0.046" style="fill:none;fill-rule:nonzero;stroke:#7e7d7e;stroke-width:1.5px;"/><path d="M76.126,28.34c-0.32,1.08 -0.115,1.67 0.615,1.77c0.435,0.06 0.903,-0.047 1.403,-0.322c1.025,-0.56 0.847,-1.24 -0.533,-2.04c-0.036,-0.021 -0.073,-0.04 -0.111,-0.056c-0.51,-0.22 -1.112,0.022 -1.333,0.536c-0.016,0.037 -0.029,0.074 -0.041,0.112" style="fill:none;fill-rule:nonzero;stroke:#7c7b7b;stroke-width:1.5px;"/><path d="M77.435,29.347c0.156,-0.084 0.153,-0.394 -0.005,-0.688c-0.159,-0.293 -0.417,-0.465 -0.573,-0.381c-0.155,0.085 -0.153,0.395 0.005,0.688c0.159,0.293 0.417,0.465 0.573,0.381" style="fill:none;fill-rule:nonzero;stroke:#e1dfdf;stroke-width:1.5px;"/><path d="M47.738,31.915c-0,-0 -0,-0 -0,-0c0.465,-0.209 0.636,-0.856 0.377,-1.434c-0.259,-0.579 -0.855,-0.883 -1.32,-0.675c-0,-0 -0,-0 -0,-0c-0.466,0.208 -0.637,0.856 -0.378,1.434c0.259,0.578 0.855,0.883 1.321,0.675" style="fill:none;fill-rule:nonzero;stroke:#757373;stroke-width:1.5px;"/><path d="M126.798,31.852c-0,-0 -0,-0 -0,-0c0.227,-0.057 0.309,-0.528 0.18,-1.043l0,0c-0.128,-0.515 -0.421,-0.892 -0.648,-0.835l-0,0c-0.228,0.057 -0.31,0.527 -0.181,1.042l-0,0c0.128,0.515 0.421,0.892 0.649,0.836c-0,-0 -0,-0 -0,-0" style="fill:none;fill-rule:nonzero;stroke:#79797a;stroke-width:1.5px;"/><path d="M179.028,33.307c0,0 0,0 0,0c0.534,-0.386 0.609,-1.205 0.168,-1.815l-0,-0c-0.442,-0.61 -1.244,-0.795 -1.777,-0.408l-0,-0c-0.533,0.386 -0.609,1.205 -0.167,1.815l-0,0c0.441,0.61 1.243,0.794 1.776,0.408c0,0 0,0 0,0" style="fill:none;fill-rule:nonzero;stroke:#6d6c6b;stroke-width:1.5px;"/><path d="M63.822,34.163c0.517,-0.338 0.571,-1.183 0.12,-1.871c-0.45,-0.689 -1.246,-0.977 -1.762,-0.639c-0.517,0.338 -0.571,1.182 -0.12,1.871c0.45,0.688 1.246,0.977 1.762,0.639" style="fill:none;fill-rule:nonzero;stroke:#727171;stroke-width:1.5px;"/><path d="M177.938,32.639c0.136,0.138 0.423,0.078 0.638,-0.132c0.214,-0.211 0.279,-0.498 0.143,-0.635c-0.135,-0.138 -0.423,-0.079 -0.637,0.132c-0.215,0.21 -0.279,0.497 -0.144,0.635" style="fill:none;fill-rule:nonzero;stroke:#7f7d7c;stroke-width:1.5px;"/><path d="M238.44,33.469c-0,0 -0,0 -0,0c0.25,0.013 0.474,-0.31 0.496,-0.717c0.021,-0.407 -0.168,-0.752 -0.418,-0.766l-0.001,0c-0.25,-0.013 -0.474,0.311 -0.495,0.718c-0.022,0.407 0.167,0.752 0.418,0.765c-0,0 -0,0 -0,0" style="fill:none;fill-rule:nonzero;stroke:#7e7e7e;stroke-width:1.5px;"/><path d="M206.826,34.121c0,0 0,0 0.001,0c0.226,0.012 0.436,-0.466 0.466,-1.057c0,-0 0,-0 0,-0c0.03,-0.592 -0.131,-1.088 -0.357,-1.1c-0,0 -0,0 -0,0c-0.226,-0.011 -0.437,0.466 -0.467,1.058c0,-0 0,-0 0,-0c-0.03,0.592 0.131,1.088 0.357,1.099" style="fill:none;fill-rule:nonzero;stroke:#818181;stroke-width:1.5px;"/><path d="M116.326,33.223c-1.14,-0.415 -1.485,-0.043 -1.035,1.117c0.006,0.017 0.013,0.033 0.021,0.049c0.192,0.414 0.694,0.595 1.112,0.401c0.015,-0.007 0.03,-0.014 0.045,-0.022c1.095,-0.595 1.047,-1.11 -0.143,-1.545" style="fill:none;fill-rule:nonzero;stroke:#6d6b6b;stroke-width:1.5px;"/><path d="M71.069,37.275c0.468,-0.25 0.614,-0.903 0.323,-1.448c-0.291,-0.544 -0.915,-0.787 -1.383,-0.537c-0.468,0.25 -0.614,0.904 -0.324,1.449c0.291,0.544 0.915,0.786 1.384,0.536" style="fill:none;fill-rule:nonzero;stroke:#767575;stroke-width:1.5px;"/><path d="M109.43,42.147c0.207,-0.069 0.189,-0.685 -0.04,-1.363c-0.228,-0.679 -0.586,-1.18 -0.793,-1.11c-0.206,0.069 -0.188,0.685 0.04,1.363c0.228,0.679 0.586,1.18 0.793,1.11" style="fill:none;fill-rule:nonzero;stroke:#676666;stroke-width:1.5px;"/><path d="M80.079,41.083c0.162,-0.332 0.086,-0.734 -0.188,-0.983c-0.91,-0.83 -1.182,-0.52 -0.817,0.93c0.235,0.925 0.57,0.943 1.005,0.053" style="fill:none;fill-rule:nonzero;stroke:#757373;stroke-width:1.5px;"/><path d="M165.129,9.208c1.98,-2.06 4.067,-3.613 6.262,-4.658c2.275,-1.08 4.76,-1.56 7.455,-1.44c5.595,0.25 9.79,3.09 12.585,8.52c0.13,0.26 0.135,0.475 0.015,0.645c-0.005,0.007 -0.009,0.013 -0.015,0.019c-0.119,0.136 -0.36,0.123 -0.533,-0.028c-0.007,-0.007 -0.015,-0.014 -0.022,-0.021c-0.435,-0.425 -0.827,-0.885 -1.177,-1.38c-0.505,-0.73 -0.86,-1.207 -1.065,-1.432c-2.645,-2.875 -5.62,-4.54 -8.925,-4.995c-6.01,-0.83 -10.908,1.327 -14.693,6.472c-0.13,0.18 -0.26,0.318 -0.39,0.413c-0.58,0.44 -0.667,0.135 -0.262,-0.915c0.175,-0.45 0.43,-0.85 0.765,-1.2Z" style="fill:#080807;fill-rule:nonzero;"/><path d="M72.114,15.313c0.035,-0.555 -0.225,-0.815 -0.78,-0.78c2.655,-0.98 5.155,-1.533 7.5,-1.658c11.365,-0.6 20.72,3.49 28.065,12.27c0.013,0.016 0.027,0.032 0.042,0.047c0.302,0.304 0.797,0.308 1.098,0.009c0.016,-0.015 0.03,-0.031 0.045,-0.048c5.495,-6.52 12.445,-9.25 20.85,-8.19c1.595,0.2 3.072,0.565 4.432,1.095c1.37,0.535 2.745,1.212 4.125,2.032c0.457,0.277 1.041,0.251 1.478,-0.067c4.6,-3.365 9.572,-4.778 14.917,-4.238c0.016,0.002 0.032,0.005 0.048,0.008c0.222,0.046 0.378,0.213 0.345,0.37c-0.002,0.012 -0.006,0.024 -0.01,0.035c-0.07,0.17 -0.278,0.252 -0.623,0.247c-8.495,-0.14 -14.79,3.383 -18.885,10.568c-0.17,0.305 -0.332,0.507 -0.487,0.607c-0.29,0.195 -0.53,0.145 -0.72,-0.15c-0.114,-0.187 -0.093,-0.444 0.052,-0.652l3.66,-5.19c0.011,-0.016 0.021,-0.032 0.029,-0.05c0.08,-0.167 0.012,-0.368 -0.152,-0.447c-0.018,-0.008 -0.037,-0.015 -0.057,-0.021c-0.53,-0.155 -1.055,-0.37 -1.575,-0.645c-3.41,-1.78 -7.055,-2.535 -10.935,-2.265c-5.635,0.39 -10.4,2.6 -14.295,6.63c-1.395,1.44 -2.317,2.888 -2.767,4.343c-0.325,1.04 -0.713,1.065 -1.163,0.075c-1.985,-4.395 -5.02,-7.863 -9.105,-10.403c-7.81,-4.86 -16.187,-6.037 -25.132,-3.532Z" style="fill:#121211;fill-rule:nonzero;"/><path d="M182.783,16.747c-0.624,0.443 -1.655,0.079 -2.284,-0.806c-0.629,-0.885 -0.634,-1.979 -0.01,-2.422c0.624,-0.443 1.655,-0.08 2.284,0.806c0.629,0.885 0.634,1.978 0.01,2.422Zm-1.912,-2.237c-0.19,0.315 -0.185,0.655 0.015,1.02c0.145,0.27 0.385,0.46 0.72,0.57c0.92,0.295 1.023,-0.227 0.308,-1.567c-0.335,-0.63 -0.683,-0.638 -1.043,-0.023Z" style="fill:#080807;fill-rule:nonzero;"/><path d="M197.964,13.76c0.115,-0.19 0.362,-0.315 0.742,-0.375c2.335,-0.375 4.573,-0.1 6.713,0.825c4.34,1.875 7.41,4.915 9.21,9.12c0.42,0.98 0.305,1.843 -0.345,2.588c-0.147,0.166 -0.397,0.195 -0.578,0.067c-0.835,-0.575 -1.48,-1.445 -1.935,-2.61c-0.85,-2.175 -2.357,-3.985 -4.522,-5.43c-2.67,-1.78 -5.64,-2.912 -8.91,-3.397c-0.035,-0.005 -0.068,-0.014 -0.101,-0.025c-0.271,-0.097 -0.414,-0.4 -0.317,-0.672c0.011,-0.031 0.025,-0.062 0.043,-0.091Z" style="fill:#121211;fill-rule:nonzero;"/><path d="M180.871,14.51c0.36,-0.615 0.708,-0.607 1.043,0.023c0.715,1.34 0.612,1.862 -0.308,1.567c-0.335,-0.11 -0.575,-0.3 -0.72,-0.57c-0.2,-0.365 -0.205,-0.705 -0.015,-1.02Z" style="fill:#e6e3e3;fill-rule:nonzero;"/><path d="M71.334,14.533c0.555,-0.035 0.815,0.225 0.78,0.78c-6.145,2.855 -11.103,7.162 -14.873,12.922c-0.014,0.021 -0.03,0.041 -0.048,0.058c-0.133,0.129 -0.348,0.126 -0.477,-0.007c-0.017,-0.018 -0.032,-0.037 -0.045,-0.058c-2.7,-4.26 -6.427,-6.87 -11.182,-7.83c-3.03,-0.61 -5.853,-0.125 -8.468,1.455c-0.255,0.155 -0.345,0.115 -0.27,-0.12c0.02,-0.06 0.058,-0.113 0.113,-0.158c2.23,-1.76 4.97,-2.41 8.22,-1.95c4.645,0.655 8.565,2.803 11.76,6.443c0.008,0.01 0.018,0.02 0.028,0.029c0.122,0.109 0.316,0.096 0.428,-0.03c0.009,-0.009 0.016,-0.019 0.024,-0.029c1.845,-2.615 3.937,-5.018 6.277,-7.208c2.015,-1.89 4.593,-3.322 7.733,-4.297Z" style="fill:#050404;fill-rule:nonzero;"/><path d="M165.71,23.708c0,0 0,0 0,0c-0.545,0.042 -1.05,-0.653 -1.118,-1.539c-0,0 -0,0 -0,0c-0.069,-0.886 0.324,-1.649 0.87,-1.691c-0,-0 -0,-0 -0,-0c0.545,-0.042 1.051,0.652 1.119,1.538c-0,0 -0,0 -0,0c0.068,0.886 -0.325,1.65 -0.871,1.692Zm0.154,-1.375c-0.105,-1.185 -0.248,-1.185 -0.428,-0c-0.02,0.11 -0.01,0.205 0.03,0.285c0.115,0.275 0.233,0.28 0.353,0.015c0.04,-0.085 0.055,-0.185 0.045,-0.3Z" style="fill:#050404;fill-rule:nonzero;"/><path d="M165.819,22.633c-0.12,0.265 -0.238,0.26 -0.353,-0.015c-0.04,-0.08 -0.05,-0.175 -0.03,-0.285c0.18,-1.185 0.323,-1.185 0.428,-0c0.01,0.115 -0.005,0.215 -0.045,0.3Z" style="fill:#8d8b8b;fill-rule:nonzero;"/><path d="M159.078,24.019l-0,-0c-0.253,0.817 -1.312,1.227 -2.346,0.907c0,-0 0,-0 0,-0c-1.033,-0.32 -1.676,-1.256 -1.423,-2.074l0,0c0.253,-0.817 1.312,-1.227 2.346,-0.907c-0,0 -0,0 -0,0c1.034,0.32 1.676,1.256 1.423,2.074Zm-1.892,-0.854c0.255,-0.88 0.04,-1.02 -0.645,-0.42c-0.183,0.16 -0.276,0.394 -0.247,0.623c0.11,0.995 0.662,1.285 1.657,0.87c0.232,-0.098 0.392,-0.302 0.42,-0.533c0.065,-0.55 -0.257,-0.667 -0.967,-0.352c-0.21,0.095 -0.283,0.032 -0.218,-0.188Z" style="fill:#030303;fill-rule:nonzero;"/><path d="M157.404,23.353c0.71,-0.315 1.032,-0.198 0.967,0.352c-0.028,0.231 -0.188,0.435 -0.42,0.533c-0.995,0.415 -1.547,0.125 -1.657,-0.87c-0.029,-0.229 0.064,-0.463 0.247,-0.623c0.685,-0.6 0.9,-0.46 0.645,0.42c-0.065,0.22 0.008,0.283 0.218,0.188Z" style="fill:#bdbcbc;fill-rule:nonzero;"/><path d="M192.752,27.27c-0,0 -0,0 -0,0c-0.807,0.321 -1.782,-0.198 -2.161,-1.15c-0.379,-0.951 -0.027,-1.999 0.78,-2.32c-0,0 -0,0 -0,0c0.806,-0.321 1.782,0.198 2.161,1.15c0.378,0.952 0.026,1.999 -0.78,2.32Zm-1.073,-1.427c-0.26,0.12 -0.218,0.362 0.127,0.727c0.012,0.013 0.025,0.025 0.039,0.036c0.184,0.152 0.461,0.125 0.612,-0.06c0.012,-0.014 0.022,-0.028 0.032,-0.043c0.47,-0.73 0.48,-1.308 0.03,-1.733c-0.157,-0.151 -0.411,-0.192 -0.653,-0.105c-0.925,0.335 -0.985,0.663 -0.18,0.983c0.155,0.06 0.153,0.125 -0.007,0.195Z" style="fill:#030303;fill-rule:nonzero;"/><path d="M37.959,29.488c0.415,0.31 0.725,0.705 0.93,1.185c0.61,1.41 0.312,1.527 -0.893,0.352c-2.3,-2.24 -4.91,-3.875 -7.83,-4.905c-2.51,-0.885 -5.487,-1.26 -8.932,-1.125c-5.865,0.23 -11.47,1.693 -16.815,4.388c-0.195,0.1 -0.378,0.172 -0.548,0.217c-0.96,0.27 -1.032,0.028 -0.217,-0.727c0.14,-0.13 0.307,-0.245 0.502,-0.345c2.69,-1.42 5.493,-2.49 8.408,-3.21c3.285,-0.815 6.227,-1.273 8.827,-1.373c5.855,-0.235 11.378,1.613 16.568,5.543Z" style="fill:#010101;fill-rule:nonzero;"/><path d="M122.349,27.585c-0.816,0.245 -1.735,-0.378 -2.035,-1.379c0,0 0,0 0,0c-0.3,-1.001 0.124,-2.026 0.94,-2.27c0.815,-0.245 1.734,0.377 2.034,1.378c0,0 0,0 0,0c0.3,1.001 -0.124,2.026 -0.939,2.271Zm-0.497,-0.88c0,0 0,0 0,0c0.436,0.011 0.806,-0.421 0.819,-0.955c0.013,-0.535 -0.335,-0.984 -0.771,-0.994c-0,-0 -0,-0 -0,-0c-0.436,-0.011 -0.806,0.42 -0.819,0.955c-0.013,0.535 0.335,0.983 0.771,0.994Z" style="fill:#0e0d0d;fill-rule:nonzero;"/><path d="M191.686,25.648c-0.805,-0.32 -0.745,-0.648 0.18,-0.983c0.242,-0.087 0.496,-0.046 0.653,0.105c0.45,0.425 0.44,1.003 -0.03,1.733c-0.01,0.015 -0.02,0.029 -0.032,0.043c-0.151,0.185 -0.428,0.212 -0.612,0.06c-0.014,-0.011 -0.027,-0.023 -0.039,-0.036c-0.345,-0.365 -0.387,-0.607 -0.127,-0.727c0.16,-0.07 0.162,-0.135 0.007,-0.195Z" style="fill:#cbc9c9;fill-rule:nonzero;"/><path d="M122.671,25.75c-0.013,0.538 -0.38,0.966 -0.819,0.955c-0.438,-0.011 -0.784,-0.456 -0.771,-0.994c0.014,-0.538 0.38,-0.966 0.819,-0.955c0.439,0.01 0.784,0.456 0.771,0.994Z" style="fill:#d9d8d6;"/><path d="M225.691,26.518c2.12,1.37 3.4,3.332 3.84,5.887c0.045,0.265 0.043,0.495 -0.007,0.69c-0.15,0.595 -0.475,0.518 -0.975,-0.232c-1.86,-2.76 -4.453,-4.36 -7.778,-4.8c-1.455,-0.195 -2.915,-0.363 -4.38,-0.503c-0.575,-0.055 -1.01,-0.172 -1.305,-0.352c-0.655,-0.41 -0.62,-0.888 0.105,-1.433c0.285,-0.215 0.655,-0.392 1.11,-0.532c3.345,-1.04 6.475,-0.615 9.39,1.275Z" style="fill:#121211;fill-rule:nonzero;"/><path d="M82.479,30.04c0,0 0,0 0,0c-0.901,-0.479 -1.04,-2.006 -0.308,-3.383c0,0 0,0 0,0c0.732,-1.377 2.076,-2.115 2.977,-1.636c0,-0 0,-0 0,-0c0.901,0.479 1.04,2.006 0.308,3.383c-0,-0 -0,-0 -0,-0c-0.732,1.376 -2.076,2.115 -2.977,1.636Zm1.357,-4.415c-0.87,0.715 -1.282,1.733 -1.237,3.053c0.03,0.875 0.395,1.052 1.095,0.532c1.31,-0.975 1.67,-2.1 1.08,-3.375c-0.012,-0.025 -0.025,-0.05 -0.04,-0.073c-0.176,-0.279 -0.552,-0.361 -0.834,-0.183c-0.022,0.014 -0.044,0.03 -0.064,0.046Z" style="fill:#010101;fill-rule:nonzero;"/><path d="M83.836,25.625c0.02,-0.016 0.042,-0.032 0.064,-0.046c0.282,-0.178 0.658,-0.096 0.834,0.183c0.015,0.023 0.028,0.048 0.04,0.073c0.59,1.275 0.23,2.4 -1.08,3.375c-0.7,0.52 -1.065,0.343 -1.095,-0.532c-0.045,-1.32 0.367,-2.338 1.237,-3.053Z" style="fill:#faf9fa;fill-rule:nonzero;"/><path d="M75.834,27.44c1.37,-1.165 2.62,-0.832 3.75,0.998c0.36,0.58 0.785,0.947 1.275,1.102c0.024,0.008 0.048,0.017 0.071,0.028c0.183,0.084 0.293,0.243 0.243,0.351c-0.007,0.015 -0.017,0.029 -0.029,0.041c-0.235,0.235 -0.915,0.235 -2.04,0c-0.31,-0.065 -0.63,0.042 -0.833,0.278c-0.9,1.03 -1.807,0.922 -2.722,-0.323c-0.675,-0.915 -0.58,-1.74 0.285,-2.475Zm0.292,0.9c-0.32,1.08 -0.115,1.67 0.615,1.77c0.435,0.06 0.903,-0.047 1.403,-0.322c1.025,-0.56 0.847,-1.24 -0.533,-2.04c-0.036,-0.021 -0.073,-0.04 -0.111,-0.056c-0.51,-0.22 -1.112,0.022 -1.333,0.536c-0.016,0.037 -0.029,0.074 -0.041,0.112Z" style="fill:#010101;fill-rule:nonzero;"/><path d="M76.126,28.34c0.012,-0.038 0.025,-0.075 0.041,-0.112c0.221,-0.514 0.823,-0.756 1.333,-0.536c0.038,0.016 0.075,0.035 0.111,0.056c1.38,0.8 1.558,1.48 0.533,2.04c-0.5,0.275 -0.968,0.382 -1.403,0.322c-0.73,-0.1 -0.935,-0.69 -0.615,-1.77Zm1.309,1.007c0.156,-0.084 0.153,-0.394 -0.005,-0.688c-0.159,-0.293 -0.417,-0.465 -0.573,-0.381c-0.155,0.085 -0.153,0.395 0.005,0.688c0.159,0.293 0.417,0.465 0.573,0.381Z" style="fill:#f6f5f5;fill-rule:nonzero;"/><path d="M77.43,28.659c0.159,0.295 0.162,0.604 0.005,0.688c-0.156,0.085 -0.413,-0.086 -0.573,-0.381c-0.159,-0.295 -0.161,-0.603 -0.005,-0.688c0.157,-0.084 0.413,0.087 0.573,0.381Z" style="fill:#cbc9c9;"/><path d="M48.322,32.387l0,0c-0.737,0.532 -1.841,0.281 -2.445,-0.557c-0,-0 -0,-0 -0,-0c-0.604,-0.838 -0.495,-1.965 0.243,-2.496l0,-0.001c0.737,-0.531 1.841,-0.28 2.446,0.558c-0,-0 -0,-0 -0,-0c0.604,0.837 0.494,1.964 -0.244,2.496Zm-0.584,-0.472c-0,-0 -0,-0 -0,-0c0.465,-0.209 0.636,-0.856 0.377,-1.434c-0.259,-0.579 -0.855,-0.883 -1.32,-0.675c-0,-0 -0,-0 -0,-0c-0.466,0.208 -0.637,0.856 -0.378,1.434c0.259,0.578 0.855,0.883 1.321,0.675Z" style="fill:#030303;fill-rule:nonzero;"/><path d="M127.329,32.726c0,0 0,0 0,0c-0.619,0.267 -1.461,-0.284 -1.865,-1.222c-0.404,-0.937 -0.226,-1.928 0.394,-2.194c-0,-0 -0,-0 -0,-0c0.62,-0.267 1.462,0.284 1.865,1.221c0.404,0.937 0.226,1.928 -0.394,2.195Zm-0.531,-0.874l-0,-0c0.227,-0.057 0.309,-0.528 0.18,-1.043l0,0c-0.128,-0.515 -0.421,-0.892 -0.648,-0.835l-0,0c-0.228,0.057 -0.31,0.527 -0.181,1.042l-0,0c0.128,0.515 0.421,0.892 0.649,0.836Z" style="fill:#030303;fill-rule:nonzero;"/><path d="M48.115,30.481c0.26,0.581 0.091,1.224 -0.377,1.434c-0.469,0.209 -1.06,-0.093 -1.321,-0.675c-0.26,-0.582 -0.091,-1.224 0.378,-1.434c0.468,-0.21 1.06,0.093 1.32,0.675Z" style="fill:#e6e3e3;"/><path d="M126.978,30.809c0.13,0.519 0.049,0.986 -0.18,1.043c-0.229,0.057 -0.52,-0.318 -0.649,-0.836c-0.129,-0.518 -0.048,-0.985 0.181,-1.042c0.229,-0.057 0.519,0.317 0.648,0.835Z" style="fill:#efeff0;"/><path d="M179.769,33.478c-0.62,0.789 -1.863,0.863 -2.752,0.163c-0.889,-0.7 -1.11,-1.925 -0.489,-2.714c0.621,-0.789 1.863,-0.862 2.752,-0.162c0.889,0.699 1.11,1.924 0.489,2.713Zm-0.741,-0.171l0,0c0.534,-0.386 0.609,-1.205 0.168,-1.815l-0,-0c-0.442,-0.61 -1.244,-0.795 -1.777,-0.408l-0,-0c-0.533,0.386 -0.609,1.205 -0.167,1.815l-0,0c0.441,0.61 1.243,0.794 1.776,0.408Z" style="fill:#030303;fill-rule:nonzero;"/><path d="M64.434,34.487c-0.702,0.648 -1.949,0.454 -2.764,-0.429c-0.815,-0.883 -0.908,-2.142 -0.207,-2.79c0,0 0,0 0,0c0.702,-0.647 1.95,-0.453 2.764,0.43c0.815,0.883 0.908,2.142 0.207,2.789c-0,0 -0,0 -0,0Zm-0.612,-0.324c0.517,-0.338 0.571,-1.183 0.12,-1.871c-0.45,-0.689 -1.246,-0.977 -1.762,-0.639c-0.517,0.338 -0.571,1.182 -0.12,1.871c0.45,0.688 1.246,0.977 1.762,0.639Z" style="fill:#030303;fill-rule:nonzero;"/><path d="M179.028,33.307l0,0c-0.533,0.386 -1.335,0.202 -1.776,-0.408l-0,-0c-0.442,-0.61 -0.366,-1.429 0.167,-1.815l-0,-0c0.533,-0.387 1.335,-0.202 1.777,0.408l-0,-0c0.441,0.61 0.366,1.429 -0.168,1.815Zm-1.09,-0.668c0.136,0.138 0.423,0.078 0.638,-0.132c0.214,-0.211 0.279,-0.498 0.143,-0.635c-0.135,-0.138 -0.423,-0.079 -0.637,0.132c-0.215,0.21 -0.279,0.497 -0.144,0.635Z" style="fill:#d7d4d3;fill-rule:nonzero;"/><path d="M238.802,34.1c-0.673,0.116 -1.346,-0.475 -1.49,-1.31c-0.144,-0.835 0.291,-1.618 0.964,-1.735c0.673,-0.116 1.345,0.476 1.489,1.311c0.145,0.835 -0.29,1.618 -0.963,1.734Zm-0.362,-0.631l-0,0c0.25,0.013 0.474,-0.31 0.496,-0.717c0.021,-0.407 -0.168,-0.752 -0.418,-0.766l-0.001,0c-0.25,-0.013 -0.474,0.311 -0.495,0.718c-0.022,0.407 0.167,0.752 0.418,0.765Z" style="fill:#050404;fill-rule:nonzero;"/><path d="M63.943,32.292c0.453,0.693 0.399,1.531 -0.121,1.871c-0.519,0.34 -1.309,0.054 -1.762,-0.639c-0.454,-0.693 -0.4,-1.531 0.12,-1.871c0.519,-0.34 1.309,-0.054 1.763,0.639Z" style="fill:#e0dede;"/><path d="M206.101,31.76c0.006,-0.012 0.012,-0.024 0.019,-0.037c0.167,-0.297 0.55,-0.405 0.848,-0.238c0.011,0.007 0.022,0.013 0.033,0.02c1.13,0.735 1.21,1.775 0.24,3.12c-0.027,0.037 -0.058,0.071 -0.093,0.1c-0.23,0.193 -0.578,0.162 -0.771,-0.069c-0.029,-0.034 -0.054,-0.072 -0.073,-0.113c-0.51,-1.08 -0.578,-2.008 -0.203,-2.783Zm0.725,2.361c0,0 0,0 0.001,0c0.226,0.012 0.436,-0.466 0.466,-1.057c0,-0 0,-0 0,-0c0.03,-0.592 -0.131,-1.088 -0.357,-1.1c-0,0 -0,0 -0,0c-0.226,-0.011 -0.437,0.466 -0.467,1.058c0,-0 0,-0 0,-0c-0.03,0.592 0.131,1.088 0.357,1.099Z" style="fill:#121211;fill-rule:nonzero;"/><path d="M118.158,34.556c-0.291,1.153 -1.572,1.838 -2.836,1.518c-1.264,-0.32 -2.065,-1.532 -1.773,-2.684c0.291,-1.153 1.572,-1.838 2.836,-1.518c1.265,0.319 2.065,1.531 1.773,2.684Zm-1.832,-1.333c-1.14,-0.415 -1.485,-0.043 -1.035,1.117c0.006,0.017 0.013,0.033 0.021,0.049c0.192,0.414 0.694,0.595 1.112,0.401c0.015,-0.007 0.03,-0.014 0.045,-0.022c1.095,-0.595 1.047,-1.11 -0.143,-1.545Z" style="fill:#0e0d0d;fill-rule:nonzero;"/><path d="M178.576,32.507c-0.216,0.212 -0.501,0.271 -0.638,0.132c-0.136,-0.139 -0.072,-0.423 0.144,-0.635c0.215,-0.212 0.501,-0.271 0.637,-0.132c0.137,0.138 0.072,0.423 -0.143,0.635Z" style="fill:#272625;"/><path d="M207.293,33.064c-0.03,0.595 -0.239,1.069 -0.466,1.057c-0.228,-0.011 -0.388,-0.504 -0.358,-1.099c0.03,-0.595 0.239,-1.069 0.467,-1.058c0.227,0.012 0.387,0.504 0.357,1.1Z" style="fill:#efeff0;"/><path d="M238.936,32.752c-0.022,0.409 -0.244,0.731 -0.496,0.717c-0.252,-0.013 -0.44,-0.356 -0.418,-0.765c0.021,-0.409 0.243,-0.731 0.496,-0.718c0.252,0.014 0.439,0.357 0.418,0.766Z" style="fill:#f7f7f8;"/><path d="M116.326,33.223c1.19,0.435 1.238,0.95 0.143,1.545c-0.015,0.008 -0.03,0.015 -0.045,0.022c-0.418,0.194 -0.92,0.013 -1.112,-0.401c-0.008,-0.016 -0.015,-0.032 -0.021,-0.049c-0.45,-1.16 -0.105,-1.532 1.035,-1.117Z" style="fill:#cbc9c9;fill-rule:nonzero;"/><path d="M151.959,34.708c0.201,0.829 -0.094,1.613 -0.657,1.749c-0.563,0.136 -1.183,-0.426 -1.384,-1.255c-0.2,-0.829 0.094,-1.612 0.657,-1.748c0.564,-0.137 1.184,0.426 1.384,1.254Z" style="fill:#1f1e1e;"/><path d="M95.671,37.67c1.535,1.435 2.71,3.145 3.525,5.13c0.22,0.545 0.185,0.788 -0.105,0.728c-0.184,-0.038 -0.371,-0.209 -0.502,-0.458c-1.92,-3.685 -4.8,-6.32 -8.64,-7.905c-0.22,-0.095 -0.385,-0.212 -0.495,-0.352c-0.36,-0.47 -0.103,-0.643 0.772,-0.518c1.005,0.145 2.003,0.578 2.993,1.298c0.7,0.51 1.517,1.202 2.452,2.077Z" style="fill:#030303;fill-rule:nonzero;"/><path d="M72.331,36.245c0,0.934 -0.768,1.703 -1.702,1.703c-0.934,-0 -1.703,-0.769 -1.703,-1.703c0,-0.934 0.769,-1.702 1.703,-1.702c0.934,-0 1.702,0.768 1.702,1.702Zm-1.262,1.03c0.468,-0.25 0.614,-0.903 0.323,-1.448c-0.291,-0.544 -0.915,-0.787 -1.383,-0.537c-0.468,0.25 -0.614,0.904 -0.324,1.449c0.291,0.544 0.915,0.786 1.384,0.536Z" style="fill:#010101;fill-rule:nonzero;"/><path d="M71.392,35.827c0.293,0.548 0.148,1.197 -0.323,1.448c-0.472,0.252 -1.091,0.011 -1.384,-0.536c-0.292,-0.548 -0.147,-1.197 0.324,-1.449c0.471,-0.251 1.091,-0.011 1.383,0.537Z" style="fill:#eae8e9;"/><path d="M40.074,37.64c1.75,0.015 2.1,0.273 1.05,0.773c-0.22,0.1 -0.465,0.15 -0.735,0.15c-5.75,0.045 -11.5,-0.033 -17.25,-0.233c-3.07,-0.105 -5.803,-0.73 -8.198,-1.875c-0.355,-0.17 -0.41,-0.347 -0.165,-0.532c0.155,-0.118 0.4,-0.149 0.66,-0.083c3.39,0.85 6.835,1.34 10.335,1.47c4.765,0.175 9.533,0.285 14.303,0.33Z" style="fill:#080807;fill-rule:nonzero;"/><path d="M140.304,41.375l-0.315,0c0.005,-0.735 -0.428,-1.25 -1.298,-1.545c-0.74,-0.25 -1.177,-0.735 -1.312,-1.455c-0.05,-0.26 0.045,-0.325 0.285,-0.195c3.485,1.905 7.047,2.985 10.687,3.24c6.845,0.48 13.313,-1.035 19.403,-4.545c0.202,-0.116 0.45,-0.113 0.645,0.008c1.555,0.965 3.175,1.787 4.86,2.467c1.435,0.58 3.16,0.903 5.175,0.968c3.87,0.125 7.735,0.342 11.595,0.652c0.012,0.001 0.024,0.002 0.036,0.004c0.286,0.031 0.508,0.182 0.491,0.333c-0,0.005 -0.001,0.011 -0.002,0.016c-0.035,0.135 -0.275,0.202 -0.72,0.202c-4.565,-0.02 -9.128,-0.12 -13.688,-0.3c-2.93,-0.115 -5.462,-1.13 -7.597,-3.045c-0.37,-0.334 -0.915,-0.392 -1.343,-0.142c-2.345,1.365 -4.805,2.377 -7.38,3.037c-2.545,0.655 -5.142,1.103 -7.792,1.343c-3.705,0.33 -7.215,-0.095 -10.53,-1.275c-0.585,-0.21 -0.985,-0.133 -1.2,0.232Z" style="fill:#030303;fill-rule:nonzero;"/><path d="M236.371,38.398c3.215,-0.11 6.38,-0.63 9.495,-1.56c0.265,-0.075 0.318,-0.003 0.158,0.217c-0.355,0.475 -0.848,0.785 -1.478,0.93c-5.205,1.19 -10.442,1.323 -15.712,0.398c-3.66,-0.645 -7.33,-0.88 -11.01,-0.705c-1.94,0.09 -4.435,0.53 -7.485,1.32c-2.465,0.64 -4.945,1.222 -7.44,1.747c-0.225,0.05 -0.435,0.055 -0.63,0.015c-0.86,-0.18 -0.91,-0.437 -0.15,-0.772c0.16,-0.07 0.352,-0.125 0.577,-0.165c3.075,-0.585 6.125,-1.28 9.15,-2.085c2.39,-0.63 4.503,-0.95 6.338,-0.96c3.49,-0.015 6.96,0.255 10.41,0.81c3.67,0.59 6.262,0.86 7.777,0.81Z" style="fill:#191919;fill-rule:nonzero;"/><path d="M107.664,39.83c0.21,-1.61 0.927,-1.672 2.152,-0.187c0.745,0.9 0.945,1.907 0.6,3.022c-0.07,0.211 -0.283,0.341 -0.502,0.308c-1.745,-0.265 -2.495,-1.313 -2.25,-3.143Zm1.766,2.317c0.207,-0.069 0.189,-0.685 -0.04,-1.363c-0.228,-0.679 -0.586,-1.18 -0.793,-1.11c-0.206,0.069 -0.188,0.685 0.04,1.363c0.228,0.679 0.586,1.18 0.793,1.11Z" style="fill:#080807;fill-rule:nonzero;"/><path d="M79.735,42.118c0,-0 0,-0 0,-0c-0.629,0.106 -1.269,-0.531 -1.418,-1.411c-0.148,-0.881 0.246,-1.693 0.875,-1.799c0,0 0,0 0,0c0.629,-0.106 1.269,0.531 1.418,1.411c0.149,0.88 -0.246,1.692 -0.875,1.799Zm0.344,-1.035c0.162,-0.332 0.086,-0.734 -0.188,-0.983c-0.91,-0.83 -1.182,-0.52 -0.817,0.93c0.235,0.925 0.57,0.943 1.005,0.053Z" style="fill:#030303;fill-rule:nonzero;"/><path d="M80.079,41.083c-0.435,0.89 -0.77,0.872 -1.005,-0.053c-0.365,-1.45 -0.093,-1.76 0.817,-0.93c0.274,0.249 0.35,0.651 0.188,0.983Z" style="fill:#e6e3e3;fill-rule:nonzero;"/><path d="M109.39,40.784c0.23,0.682 0.248,1.293 0.04,1.363c-0.208,0.07 -0.563,-0.427 -0.793,-1.11c-0.23,-0.683 -0.248,-1.294 -0.04,-1.364c0.208,-0.069 0.564,0.428 0.793,1.111Z" style="fill:#c6c4c5;"/><path d="M209.626,43.64c-0.025,-0.125 0.14,-0.247 0.495,-0.367c4.495,-1.465 9.11,-2.28 13.845,-2.445c0.28,-0.01 0.3,0.052 0.06,0.187c-0.17,0.1 -0.317,0.158 -0.442,0.173c-4.535,0.545 -9.008,1.407 -13.418,2.587c-0.004,0.001 -0.008,0.002 -0.011,0.003c-0.256,0.064 -0.494,0.004 -0.528,-0.132c-0,-0.002 -0,-0.004 -0.001,-0.006Z" style="fill:#212020;fill-rule:nonzero;"/><path d="M139.989,41.375l0.315,0c-3.325,8.615 -9.69,13.198 -19.095,13.748c-10.41,0.605 -20.358,-1.573 -29.843,-6.533c-0.027,-0.014 -0.056,-0.026 -0.086,-0.034c-0.253,-0.075 -0.521,0.069 -0.594,0.317c-0.009,0.03 -0.015,0.061 -0.017,0.092c-0.05,0.52 -0.343,0.855 -0.878,1.005c-0.475,0.135 -0.74,0.215 -0.795,0.24c-6.79,2.77 -13.677,3.825 -20.662,3.165c-5.19,-0.49 -9.53,-2.67 -13.02,-6.54c-1.175,-1.3 -1.913,-2.152 -2.213,-2.557c-0.67,-0.915 -1.155,-1.945 -1.455,-3.09c-0.235,-0.895 -0.095,-0.973 0.42,-0.233c1.35,1.93 2.843,3.728 4.478,5.393c1.815,1.84 3.707,3.157 5.677,3.952c2.76,1.115 5.86,1.703 9.3,1.763c6.525,0.115 13,-1.258 19.425,-4.118c0.32,-0.143 0.685,-0.145 1.005,-0.007c7.25,3.185 14.653,5.105 22.208,5.76c6.04,0.525 10.91,0.012 14.61,-1.538c4.835,-2.02 8.575,-5.615 11.22,-10.785Z" style="fill:#030303;fill-rule:nonzero;"/></svg>