<?xml version="1.0" encoding="UTF-8" standalone="no"?><!DOCTYPE svg PUBLIC "-//W3C//DTD SVG 1.1//EN" "http://www.w3.org/Graphics/SVG/1.1/DTD/svg11.dtd"><svg width="100%" height="100%" viewBox="0 0 1125 1125" version="1.1" xmlns="http://www.w3.org/2000/svg" xmlns:xlink="http://www.w3.org/1999/xlink" xml:space="preserve" xmlns:serif="http://www.serif.com/" style="fill-rule:evenodd;clip-rule:evenodd;"><path d="M111.68,749.088l-17.535,4.403l-18.687,-74.434l128.825,-32.341l5.256,20.932l-111.29,27.943l13.431,53.497Z" style="fill:#022d74;fill-rule:nonzero;"/><path d="M268.432,755.03c-2.169,1.288 -3.557,3.019 -4.16,5.2c-0.6,2.178 -0.197,4.46 1.216,6.841c1.316,2.219 3.081,3.603 5.297,4.15c2.215,0.54 4.412,0.172 6.578,-1.113c2.275,-1.347 3.694,-3.115 4.256,-5.306c0.56,-2.191 0.181,-4.397 -1.134,-6.619c-1.41,-2.381 -3.203,-3.837 -5.378,-4.372c-2.175,-0.537 -4.4,-0.128 -6.675,1.219m-4.888,-8.253c2.166,-1.284 4.416,-2.044 6.741,-2.278c2.328,-0.234 4.562,-0.022 6.706,0.637c2.141,0.66 4.134,1.732 5.975,3.213c1.844,1.481 3.375,3.253 4.6,5.316c1.284,2.171 2.141,4.431 2.572,6.787c0.428,2.353 0.428,4.644 -0.006,6.866c-0.435,2.225 -1.316,4.297 -2.638,6.225c-1.325,1.925 -3.072,3.537 -5.24,4.822c-2.116,1.25 -4.313,1.981 -6.585,2.184c-2.275,0.2 -4.475,-0.047 -6.606,-0.75c-2.131,-0.703 -4.116,-1.813 -5.947,-3.341c-1.831,-1.522 -3.391,-3.368 -4.675,-5.534c-1.222,-2.066 -2.053,-4.253 -2.494,-6.566c-0.443,-2.312 -0.45,-4.559 -0.025,-6.737c0.422,-2.181 1.269,-4.219 2.541,-6.116c1.269,-1.897 2.962,-3.472 5.081,-4.728m-71.29,89.95l32.431,-40.447c2.475,-3.178 5.806,-6.906 9.997,-11.175c-2.835,0.891 -5.497,1.613 -7.994,2.163c-2.497,0.55 -4.713,1.006 -6.641,1.362l-50.972,8.972l23.179,39.125Zm-22.025,60.541l-8.51,-14.363c-0.972,-1.64 -1.347,-3.203 -1.122,-4.697c0.222,-1.493 0.788,-2.862 1.694,-4.112l19.594,-24.472l-29.15,-49.203l-30.878,5.431c-1.313,0.2 -2.728,0.041 -4.253,-0.484c-1.529,-0.528 -2.76,-1.578 -3.7,-3.166l-8.51,-14.366l141.119,-22.39l11.144,18.806l-87.428,113.016Z" style="fill:#022d74;fill-rule:nonzero;"/><path d="M375.544,905.537l-85.116,101.965l-8.425,-7.034c-1.275,-1.066 -2.175,-2.194 -2.697,-3.391c-0.521,-1.2 -0.753,-2.65 -0.687,-4.362l4.044,-118.694c-1,1.488 -2.028,2.931 -3.082,4.338c-1.05,1.403 -2.05,2.671 -2.996,3.806l-55.975,67.056l-14.588,-12.178l85.116,-101.966l8.64,7.213c0.707,0.59 1.282,1.128 1.716,1.612c0.437,0.488 0.791,1 1.056,1.544c0.269,0.541 0.431,1.159 0.494,1.853c0.062,0.694 0.072,1.5 0.022,2.422l-4.028,118.828c1.075,-1.581 2.172,-3.109 3.284,-4.587c1.113,-1.475 2.178,-2.825 3.203,-4.053l55.503,-66.491l14.516,12.119Z" style="fill:#022d74;fill-rule:nonzero;"/><path d="M476.282,1017.08l-17.712,49.503c-15.663,4.519 -31.741,3.822 -48.241,-2.078c-10.134,-3.628 -18.731,-8.484 -25.794,-14.568c-7.065,-6.091 -12.481,-12.994 -16.25,-20.707c-3.768,-7.718 -5.818,-16.043 -6.146,-24.978c-0.329,-8.934 1.184,-18.097 4.54,-27.472c3.375,-9.437 7.975,-17.54 13.794,-24.309c5.816,-6.766 12.544,-11.969 20.181,-15.603c7.635,-3.635 15.972,-5.581 25.016,-5.838c9.037,-0.259 18.509,1.382 28.409,4.922c5.038,1.803 9.572,3.866 13.606,6.194c4.032,2.325 7.654,4.844 10.863,7.559c3.206,2.716 6.022,5.619 8.444,8.71c2.422,3.084 4.5,6.309 6.234,9.672l-9.141,7.212c-1.446,1.113 -2.953,1.588 -4.525,1.419c-1.571,-0.175 -3.012,-1.078 -4.318,-2.722c-1.325,-1.584 -2.735,-3.263 -4.222,-5.038c-1.488,-1.771 -3.275,-3.575 -5.366,-5.4c-2.09,-1.825 -4.619,-3.609 -7.584,-5.359c-2.966,-1.744 -6.622,-3.4 -10.963,-4.953c-6.603,-2.359 -12.94,-3.403 -19.012,-3.128c-6.075,0.275 -11.713,1.75 -16.916,4.428c-5.206,2.678 -9.847,6.519 -13.922,11.528c-4.078,5.003 -7.381,11.038 -9.909,18.103c-2.672,7.469 -3.991,14.525 -3.95,21.166c0.037,6.644 1.294,12.712 3.772,18.2c2.478,5.49 6.125,10.309 10.947,14.45c4.818,4.144 10.672,7.444 17.565,9.912c5.15,1.844 9.935,2.938 14.353,3.275c4.419,0.341 8.919,0.219 13.504,-0.362l8.887,-24.835l-17.456,-6.246c-1.331,-0.479 -2.244,-1.213 -2.738,-2.204c-0.493,-0.996 -0.534,-2.071 -0.118,-3.231l4.131,-11.55l40.037,14.328Z" style="fill:#022d74;fill-rule:nonzero;"/><path d="M585.029,1038.99l-17.475,-48.806c-1.413,-3.775 -2.847,-8.566 -4.288,-14.372c-0.725,2.881 -1.506,5.528 -2.34,7.944c-0.841,2.418 -1.613,4.537 -2.319,6.372l-19.047,48.125l45.469,0.737Zm40.047,50.463l-16.691,-0.269c-1.906,-0.031 -3.437,-0.531 -4.587,-1.506c-1.153,-0.969 -2.028,-2.166 -2.619,-3.591l-10.594,-29.509l-57.178,-0.929l-11.541,29.15c-0.512,1.222 -1.393,2.347 -2.64,3.372c-1.247,1.025 -2.791,1.522 -4.638,1.491l-16.69,-0.272l54.812,-131.95l21.86,0.356l50.506,133.657Z" style="fill:#022d74;fill-rule:nonzero;"/><path d="M710.477,953.669c-0.347,1.25 -0.8,2.231 -1.365,2.934c-0.566,0.707 -1.378,1.213 -2.444,1.519c-1.125,0.319 -2.516,0.206 -4.175,-0.341c-1.659,-0.546 -3.675,-1.106 -6.047,-1.678c-2.369,-0.565 -5.081,-0.937 -8.137,-1.115c-3.06,-0.185 -6.51,0.278 -10.354,1.381c-3.546,1.012 -6.537,2.353 -8.971,4.006c-2.438,1.663 -4.344,3.55 -5.719,5.672c-1.375,2.122 -2.21,4.391 -2.51,6.813c-0.296,2.418 -0.081,4.9 0.647,7.44c0.932,3.253 2.563,5.713 4.897,7.378c2.331,1.666 5.122,2.866 8.372,3.597c3.247,0.735 6.838,1.16 10.775,1.278c3.934,0.119 7.966,0.294 12.094,0.516c4.125,0.228 8.228,0.65 12.309,1.272c4.081,0.622 7.888,1.803 11.425,3.537c3.535,1.741 6.685,4.194 9.45,7.369c2.766,3.175 4.9,7.391 6.41,12.653c1.625,5.672 2.175,11.272 1.646,16.8c-0.528,5.522 -2.112,10.663 -4.746,15.413c-2.638,4.756 -6.354,8.968 -11.154,12.647c-4.796,3.678 -10.656,6.509 -17.571,8.49c-4.079,1.169 -8.169,1.91 -12.269,2.222c-4.103,0.313 -8.119,0.247 -12.05,-0.194c-3.931,-0.44 -7.731,-1.253 -11.397,-2.443c-3.669,-1.188 -7.078,-2.707 -10.228,-4.554l3.181,-11.659c0.297,-0.981 0.791,-1.822 1.481,-2.537c0.691,-0.707 1.541,-1.207 2.547,-1.494c1.36,-0.391 3.047,-0.185 5.066,0.609c2.022,0.8 4.412,1.619 7.181,2.453c2.766,0.841 5.988,1.419 9.663,1.741c3.675,0.322 7.818,-0.175 12.428,-1.5c7.506,-2.147 12.787,-5.644 15.847,-10.488c3.059,-4.84 3.665,-10.484 1.818,-16.928c-1.031,-3.603 -2.734,-6.303 -5.1,-8.087c-2.365,-1.781 -5.172,-3.041 -8.422,-3.772c-3.246,-0.731 -6.828,-1.119 -10.737,-1.147c-3.909,-0.031 -7.9,-0.119 -11.972,-0.262c-4.072,-0.147 -8.144,-0.513 -12.216,-1.11c-4.071,-0.587 -7.89,-1.8 -11.45,-3.625c-3.562,-1.825 -6.756,-4.428 -9.578,-7.809c-2.825,-3.381 -5.065,-7.969 -6.725,-13.76c-1.322,-4.612 -1.7,-9.337 -1.131,-14.165c0.566,-4.831 2.1,-9.413 4.6,-13.747c2.503,-4.328 6.006,-8.228 10.516,-11.694c4.506,-3.465 10.009,-6.131 16.512,-7.994c7.328,-2.103 14.385,-2.875 21.163,-2.321c6.781,0.553 12.997,2.318 18.65,5.306l-2.21,11.378Z" style="fill:#022d74;fill-rule:nonzero;"/><path d="M830.404,955.958l-41.491,-31.082c-3.259,-2.368 -7.093,-5.575 -11.5,-9.621c0.985,2.8 1.791,5.437 2.425,7.915c0.632,2.478 1.16,4.675 1.582,6.594l10.646,50.647l38.338,-24.453Zm61.237,20.012l-14.075,8.981c-1.609,1.022 -3.159,1.45 -4.659,1.275c-1.494,-0.175 -2.884,-0.693 -4.162,-1.556l-25.11,-18.775l-48.212,30.753l6.447,30.688c0.243,1.3 0.131,2.722 -0.344,4.262c-0.475,1.544 -1.491,2.81 -3.044,3.803l-14.075,8.979l-27.034,-140.304l18.431,-11.756l115.837,83.65Z" style="fill:#022d74;fill-rule:nonzero;"/><path d="M893.183,770.487l104.709,81.719l-6.753,8.653c-1.022,1.309 -2.122,2.247 -3.3,2.806c-1.181,0.56 -2.625,0.841 -4.337,0.831l-118.766,-0.14c1.522,0.953 3,1.928 4.438,2.937c1.437,1.007 2.737,1.96 3.903,2.869l68.862,53.741l-11.69,14.981l-104.71,-81.722l6.922,-8.872c0.566,-0.722 1.088,-1.312 1.556,-1.765c0.472,-0.454 0.972,-0.822 1.507,-1.104c0.534,-0.287 1.146,-0.471 1.837,-0.556c0.691,-0.087 1.497,-0.122 2.419,-0.103l118.897,0.122c-1.616,-1.025 -3.182,-2.069 -4.691,-3.134c-1.509,-1.063 -2.897,-2.085 -4.159,-3.069l-68.278,-53.285l11.634,-14.909Z" style="fill:#022d74;fill-rule:nonzero;"/><path d="M995.737,679.127c-7.275,-2.275 -14.128,-3.335 -20.553,-3.191c-6.425,0.153 -12.206,1.434 -17.344,3.853c-5.14,2.422 -9.593,5.913 -13.371,10.463c-3.775,4.553 -6.682,10.087 -8.719,16.6l-8.506,27.206l93.49,29.234l8.506,-27.2c2.038,-6.512 2.816,-12.715 2.338,-18.6c-0.478,-5.881 -2.156,-11.287 -5.028,-16.212c-2.872,-4.925 -6.894,-9.275 -12.06,-13.05c-5.162,-3.772 -11.415,-6.806 -18.753,-9.103m6.582,-21.035c9.39,2.935 17.496,7.144 24.318,12.628c6.822,5.479 12.15,11.869 15.991,19.157c3.844,7.29 6.091,15.309 6.741,24.047c0.646,8.743 -0.516,17.862 -3.491,27.371l-14.975,47.891l-126.769,-39.647l14.975,-47.887c2.975,-9.51 7.219,-17.669 12.731,-24.482c5.513,-6.812 11.925,-12.121 19.235,-15.925c7.312,-3.8 15.331,-6.012 24.062,-6.634c8.728,-0.616 17.791,0.541 27.182,3.481" style="fill:#022d74;fill-rule:nonzero;"/><path d="M275.459,137.401c0.056,1.297 -0.072,2.369 -0.394,3.213c-0.322,0.847 -0.938,1.578 -1.856,2.197c-0.972,0.653 -2.329,0.975 -4.079,0.965c-1.746,-0.006 -3.834,0.082 -6.265,0.275c-2.431,0.191 -5.125,0.672 -8.091,1.444c-2.962,0.775 -6.103,2.278 -9.415,4.513c-3.063,2.062 -5.494,4.256 -7.3,6.584c-1.804,2.328 -3.032,4.713 -3.688,7.156c-0.653,2.441 -0.747,4.86 -0.284,7.253c0.465,2.397 1.437,4.688 2.912,6.882c1.891,2.803 4.2,4.64 6.935,5.503c2.734,0.865 5.756,1.147 9.071,0.837c3.316,-0.303 6.866,-1.009 10.647,-2.109c3.778,-1.1 7.666,-2.181 11.663,-3.241c3.994,-1.059 8.028,-1.925 12.1,-2.593c4.072,-0.666 8.059,-0.722 11.959,-0.16c3.9,0.563 7.653,1.925 11.263,4.091c3.609,2.165 6.943,5.515 10.003,10.056c3.297,4.894 5.547,10.05 6.75,15.469c1.203,5.419 1.284,10.797 0.244,16.128c-1.038,5.334 -3.272,10.494 -6.704,15.472c-3.428,4.981 -8.128,9.481 -14.093,13.5c-3.519,2.372 -7.182,4.337 -10.985,5.9c-3.803,1.562 -7.643,2.74 -11.522,3.534c-3.875,0.797 -7.74,1.194 -11.596,1.194c-3.85,0.003 -7.563,-0.388 -11.132,-1.172l-0.572,-12.072c-0.021,-1.025 0.188,-1.978 0.625,-2.869c0.441,-0.89 1.094,-1.625 1.96,-2.209c1.172,-0.791 2.844,-1.119 5.009,-0.984c2.169,0.134 4.694,0.175 7.588,0.115c2.89,-0.056 6.134,-0.497 9.728,-1.325c3.594,-0.828 7.378,-2.581 11.356,-5.262c6.478,-4.363 10.425,-9.319 11.838,-14.869c1.415,-5.55 0.246,-11.103 -3.497,-16.666c-2.094,-3.109 -4.544,-5.146 -7.347,-6.115c-2.8,-0.966 -5.86,-1.294 -9.175,-0.991c-3.316,0.306 -6.838,1.047 -10.569,2.225c-3.728,1.178 -7.55,2.325 -11.469,3.447c-3.915,1.119 -7.903,2.025 -11.959,2.719c-4.056,0.694 -8.059,0.722 -12.009,0.081c-3.954,-0.634 -7.794,-2.125 -11.522,-4.469c-3.728,-2.343 -7.278,-6.015 -10.644,-11.012c-2.681,-3.978 -4.497,-8.353 -5.45,-13.122c-0.953,-4.772 -0.906,-9.603 0.134,-14.497c1.044,-4.891 3.172,-9.678 6.388,-14.369c3.219,-4.687 7.631,-8.922 13.244,-12.703c6.321,-4.259 12.793,-7.175 19.412,-8.74c6.619,-1.569 13.075,-1.804 19.375,-0.71l1.413,11.506Z" style="fill:#022d74;fill-rule:nonzero;"/><path d="M439.399,113.984c-2.538,-7.188 -5.794,-13.313 -9.766,-18.366c-3.972,-5.053 -8.472,-8.94 -13.512,-11.659c-5.038,-2.722 -10.513,-4.244 -16.431,-4.566c-5.919,-0.322 -12.097,0.653 -18.532,2.928c-6.378,2.254 -11.765,5.363 -16.168,9.332c-4.404,3.968 -7.725,8.597 -9.966,13.89c-2.238,5.291 -3.328,11.153 -3.272,17.591c0.056,6.434 1.356,13.25 3.894,20.437c2.562,7.25 5.84,13.394 9.84,18.438c3.997,5.044 8.529,8.906 13.582,11.587c5.059,2.682 10.537,4.169 16.447,4.46c5.909,0.297 12.05,-0.685 18.428,-2.938c6.437,-2.275 11.859,-5.378 16.275,-9.318c4.412,-3.941 7.728,-8.535 9.95,-13.788c2.218,-5.253 3.284,-11.091 3.203,-17.519c-0.088,-6.425 -1.413,-13.262 -3.972,-20.509m20.787,-7.344c3.275,9.278 4.791,18.363 4.541,27.256c-0.25,8.891 -2.116,17.132 -5.597,24.719c-3.481,7.591 -8.5,14.338 -15.056,20.238c-6.556,5.903 -14.531,10.515 -23.925,13.834c-9.334,3.297 -18.406,4.709 -27.216,4.234c-8.806,-0.475 -16.965,-2.565 -24.472,-6.275c-7.506,-3.706 -14.15,-8.94 -19.928,-15.703c-5.781,-6.762 -10.306,-14.781 -13.584,-24.056c-3.278,-9.278 -4.794,-18.362 -4.541,-27.256c0.247,-8.891 2.122,-17.15 5.625,-24.781c3.497,-7.625 8.525,-14.391 15.085,-20.294c6.553,-5.903 14.5,-10.506 23.834,-13.803c9.394,-3.319 18.494,-4.741 27.303,-4.266c8.81,0.475 16.96,2.584 24.444,6.331c7.487,3.747 14.119,9 19.9,15.763c5.778,6.762 10.309,14.784 13.587,24.059" style="fill:#022d74;fill-rule:nonzero;"/><path d="M582.651,147.538l0.86,18.056l-76.653,3.656l-6.322,-132.671l21.559,-1.029l5.463,114.613l55.093,-2.625Z" style="fill:#022d74;fill-rule:nonzero;"/><path d="M623.986,38.403l21.46,3.059l-18.747,131.494l-21.459,-3.059l18.746,-131.494Z" style="fill:#022d74;"/><path d="M785.447,153.655l-18.162,49.338c-15.704,4.378 -31.775,3.537 -48.222,-2.516c-10.097,-3.719 -18.65,-8.653 -25.657,-14.803c-7.009,-6.153 -12.362,-13.103 -16.062,-20.853c-3.7,-7.75 -5.672,-16.094 -5.922,-25.031c-0.247,-8.938 1.35,-18.082 4.791,-27.429c3.462,-9.406 8.134,-17.468 14.012,-24.184c5.878,-6.712 12.653,-11.853 20.322,-15.419c7.672,-3.565 16.025,-5.434 25.069,-5.612c9.04,-0.178 18.497,1.55 28.365,5.184c5.022,1.847 9.535,3.953 13.547,6.316c4.013,2.359 7.613,4.912 10.794,7.659c3.181,2.744 5.975,5.672 8.366,8.778c2.393,3.11 4.443,6.357 6.15,9.735l-9.21,7.125c-1.456,1.103 -2.968,1.562 -4.537,1.378c-1.569,-0.185 -3,-1.106 -4.294,-2.76c-1.309,-1.596 -2.703,-3.287 -4.172,-5.075c-1.475,-1.787 -3.25,-3.603 -5.322,-5.446c-2.072,-1.847 -4.584,-3.657 -7.534,-5.432c-2.95,-1.772 -6.591,-3.453 -10.919,-5.05c-6.578,-2.422 -12.906,-3.522 -18.981,-3.303c-6.078,0.222 -11.731,1.647 -16.956,4.275c-5.228,2.631 -9.903,6.428 -14.028,11.4c-4.122,4.969 -7.479,10.972 -10.069,18.013c-2.744,7.447 -4.122,14.49 -4.144,21.131c-0.022,6.644 1.181,12.722 3.606,18.234c2.428,5.513 6.032,10.363 10.816,14.547c4.781,4.188 10.606,7.541 17.475,10.072c5.134,1.891 9.906,3.025 14.325,3.406c4.412,0.378 8.916,0.3 13.503,-0.237l9.113,-24.756l-17.397,-6.407c-1.328,-0.49 -2.235,-1.231 -2.719,-2.228c-0.484,-0.997 -0.516,-2.072 -0.088,-3.228l4.238,-11.512l39.903,14.69Z" style="fill:#022d74;fill-rule:nonzero;"/><path d="M871.906,225.248l11.141,-50.628c0.806,-3.95 2.14,-8.766 4.003,-14.45c-2.144,2.056 -4.21,3.881 -6.203,5.481c-1.994,1.6 -3.778,2.991 -5.35,4.169l-41.713,30.637l38.122,24.791Zm7.097,64.034l-13.994,-9.103c-1.6,-1.04 -2.628,-2.275 -3.087,-3.712c-0.46,-1.438 -0.563,-2.916 -0.307,-4.435l6.713,-30.625l-47.941,-31.178l-25.272,18.553c-1.084,0.763 -2.425,1.247 -4.025,1.453c-1.603,0.207 -3.175,-0.193 -4.721,-1.2l-13.994,-9.103l116.565,-82.631l18.325,11.919l-28.262,140.062Z" style="fill:#022d74;fill-rule:nonzero;"/><path d="M473.582,548.032c-16,-22.568 -113.428,-29.206 -118.435,-235.128c-0.275,-11.403 4.303,-47.828 16.832,-54.172c16.625,-8.431 36.909,22.197 46.525,33.782c72.831,87.7 99.721,212.003 102.412,253.268c14.356,-10.468 75.747,-13.587 100.994,-2.109c8.415,-46.675 11.144,-65.509 29.84,-115.538c38.916,-104.128 95.204,-168.671 110.166,-171.378c36.694,-6.625 23.666,94.572 21.425,116.294c-9.397,91.441 -48.966,134.65 -107.872,168.325c-6.378,3.641 -19.125,20.656 -1.875,40.569c43.185,61.181 64.263,119.244 48.5,173.715c-44.709,154.485 -130.481,57.732 -153.747,67.441c-94.372,39.406 -124.606,5.503 -144.947,-55.369c-9.768,-29.243 -24.778,-60.584 15.372,-143.872c27.919,-57.921 38.719,-46.781 37.866,-61.381c-0.394,-6.731 -1.906,-16.837 -7.138,-18.525" style="fill:#022d74;fill-rule:nonzero;"/><path d="M498.627,733.857c-3.481,0 -106.206,-25.356 -174.956,-27.587l2.791,-12.304c0,0 54.781,6.71 109,19.569c22.509,5.331 21.784,4.931 63.165,20.322" style="fill:#022d74;fill-rule:nonzero;"/><path d="M498.64,752.207c-3.432,0.588 -108.975,-6.95 -177.104,2.534l0.666,-12.603c0,0 55.119,-2.687 110.734,0.766c23.094,1.431 22.31,1.162 65.704,9.303" style="fill:#022d74;fill-rule:nonzero;"/><path d="M502.555,767.396c-3.253,1.247 -108.247,14.315 -173.247,36.831l-1.793,-12.484c0,0 53.55,-13.341 108.784,-20.735c22.928,-3.072 22.109,-3.184 66.256,-3.612" style="fill:#022d74;fill-rule:nonzero;"/><path d="M636.721,737.379c3.484,0 106.209,-25.366 174.953,-27.61l-2.781,-12.287c0,0 -54.784,6.703 -108.997,19.556c-22.519,5.341 -21.791,4.937 -63.175,20.341" style="fill:#022d74;fill-rule:nonzero;"/><path d="M636.713,755.71c3.428,0.597 108.972,-6.937 177.1,2.541l-0.662,-12.587c0,0 -55.119,-2.7 -110.735,0.743c-23.096,1.438 -22.312,1.166 -65.703,9.303" style="fill:#022d74;fill-rule:nonzero;"/><path d="M632.801,770.905c3.25,1.241 108.241,14.319 173.244,36.835l1.794,-12.488c0,0 -53.554,-13.334 -108.785,-20.734c-22.928,-3.069 -22.109,-3.182 -66.253,-3.613" style="fill:#022d74;fill-rule:nonzero;"/><path d="M642.261,551.975c0,0 79.569,-176.74 95.635,-179.037c16.072,-2.297 -0.766,65.797 -37.488,99.465c-28.159,25.8 -55.85,75.741 -58.147,79.572" style="fill:#fff;fill-rule:nonzero;"/><path d="M572.898,771.235c0,16.359 -0.903,34.572 -0.903,48.281" style="fill:none;stroke:#fff;stroke-width:6.25px;"/><path d="M507.935,781.095c4.828,31.381 44.722,39.01 62.853,37.816c20.122,-1.319 66.991,-6.978 63.507,-37.36" style="fill:none;stroke:#fff;stroke-width:6.25px;"/><path d="M642.092,640.092c9.191,1.99 14.128,11.262 13.731,21.012c-1.003,24.013 -16.356,31.735 -25.559,29.744c-9.203,-2.006 -10.641,-27.569 -8.584,-37.094c2.059,-9.544 11.206,-15.662 20.412,-13.662" style="fill:#fff;fill-rule:nonzero;"/><path d="M500.689,637.272c-9.191,2 -14.128,11.268 -13.734,21.022c1.006,24.009 16.359,31.734 25.562,29.746c9.203,-2.003 10.644,-27.571 8.588,-37.109c-2.069,-9.534 -11.21,-15.644 -20.416,-13.659" style="fill:#fff;fill-rule:nonzero;"/><path d="M570.249,797.663c-7.487,-0.253 -41.075,-38.094 -30.222,-52.991c4.485,-6.156 18.997,-0.393 32.291,-1.225c21.012,-1.309 34.678,-2.8 34.969,5.482c0.634,18.512 -24.482,49.165 -37.038,48.734" style="fill:#fff;fill-rule:nonzero;"/><path d="M501.113,560.575c0,0 -79.566,-176.728 -95.634,-179.025c-16.063,-2.297 0.765,65.794 37.49,99.463c28.156,25.812 55.85,75.743 58.144,79.562" style="fill:#fff;fill-rule:nonzero;"/><path d="M516.112,657.954c0,4.028 -4.331,13.234 -8.672,13.234c-4.34,0 -2.496,-8.141 -2.496,-12.169c0,-4.028 -1.844,-10.781 2.496,-10.781c4.341,0 8.672,5.684 8.672,9.716" style="fill:#022d74;fill-rule:nonzero;"/><path d="M648.379,664.707c-0.938,4.084 -1.966,9.541 -6.36,8.534c-4.412,-1.003 -4.515,-7.375 -3.587,-11.475c0.94,-4.084 -0.463,-13.921 3.931,-12.921c4.416,1 6.944,11.775 6.016,15.862" style="fill:#022d74;fill-rule:nonzero;"/></svg>